IBM Plex Mono-Bold Italic.ufo
<glyph name="exclam" format="1">
  <advance width="600"/>
  <unicode hex="0021"/>
  <outline>
    <contour>
      <point x="321" y="243" type="line" name="hr00"/>
      <point x="417" y="495" type="line"/>
      <point x="451" y="698" type="line"/>
      <point x="290" y="698" type="line"/>
      <point x="257" y="495" type="line"/>
      <point x="269" y="243" type="line"/>
    </contour>
    <contour>
      <point x="256" y="-12" type="curve" smooth="yes"/>
      <point x="322" y="-12"/>
      <point x="354" y="21"/>
      <point x="361" y="63" type="curve" smooth="yes"/>
      <point x="366" y="93"/>
      <point x="367" y="103"/>
      <point x="367" y="111" type="curve" smooth="yes"/>
      <point x="367" y="146"/>
      <point x="341" y="174"/>
      <point x="279" y="174" type="curve" smooth="yes"/>
      <point x="213" y="174"/>
      <point x="181" y="141"/>
      <point x="174" y="99" type="curve" smooth="yes"/>
      <point x="169" y="69"/>
      <point x="168" y="59"/>
      <point x="168" y="51" type="curve" smooth="yes"/>
      <point x="168" y="16"/>
      <point x="194" y="-12"/>
    </contour>
  </outline>
</glyph>
<glyph name="numbersign" format="1">
  <advance width="600"/>
  <unicode hex="0023"/>
  <outline>
    <contour>
      <point x="42" y="0" type="line" name="hr00"/>
      <point x="157" y="0" type="line"/>
      <point x="396" y="698" type="line"/>
      <point x="281" y="698" type="line"/>
      <point x="214" y="503" type="line"/>
      <point x="88" y="503" type="line"/>
      <point x="70" y="395" type="line"/>
      <point x="177" y="395" type="line"/>
      <point x="146" y="303" type="line"/>
      <point x="17" y="303" type="line"/>
      <point x="-1" y="195" type="line"/>
      <point x="109" y="195" type="line"/>
    </contour>
    <contour>
      <point x="236" y="0" type="line"/>
      <point x="351" y="0" type="line"/>
      <point x="418" y="195" type="line"/>
      <point x="544" y="195" type="line"/>
      <point x="562" y="303" type="line"/>
      <point x="455" y="303" type="line"/>
      <point x="486" y="395" type="line"/>
      <point x="615" y="395" type="line"/>
      <point x="633" y="503" type="line"/>
      <point x="523" y="503" type="line"/>
      <point x="590" y="698" type="line"/>
      <point x="475" y="698" type="line"/>
    </contour>
  </outline>
</glyph>
<glyph name="dollar" format="1">
  <advance width="600"/>
  <unicode hex="0024"/>
  <outline>
    <contour>
      <point x="192" y="-113" type="line" name="hr00"/>
      <point x="304" y="-113" type="line"/>
      <point x="321" y="-10" type="line"/>
      <point x="475" y="5"/>
      <point x="562" y="97"/>
      <point x="562" y="227" type="curve" smooth="yes"/>
      <point x="562" y="322"/>
      <point x="495" y="373"/>
      <point x="395" y="404" type="curve" smooth="yes"/>
      <point x="381" y="408" type="line"/>
      <point x="410" y="582" type="line"/>
      <point x="448" y="572"/>
      <point x="476" y="552"/>
      <point x="499" y="521" type="curve"/>
      <point x="591" y="611" type="line"/>
      <point x="560" y="655"/>
      <point x="506" y="688"/>
      <point x="440" y="702" type="curve"/>
      <point x="458" y="811" type="line"/>
      <point x="346" y="811" type="line"/>
      <point x="329" y="708" type="line"/>
      <point x="180" y="696"/>
      <point x="90" y="610"/>
      <point x="90" y="485" type="curve" smooth="yes"/>
      <point x="90" y="398"/>
      <point x="144" y="338"/>
      <point x="251" y="307" type="curve" smooth="yes"/>
      <point x="271" y="301" type="line"/>
      <point x="239" y="111" type="line"/>
      <point x="189" y="121"/>
      <point x="139" y="146"/>
      <point x="108" y="190" type="curve"/>
      <point x="18" y="98" type="line"/>
      <point x="52" y="42"/>
      <point x="123" y="5"/>
      <point x="210" y="-7" type="curve"/>
    </contour>
    <contour>
      <point x="232" y="501" type="curve" smooth="yes"/>
      <point x="232" y="540"/>
      <point x="259" y="573"/>
      <point x="318" y="584" type="curve"/>
      <point x="294" y="436" type="line"/>
      <point x="251" y="450"/>
      <point x="232" y="465"/>
    </contour>
    <contour>
      <point x="419" y="211" type="curve" smooth="yes"/>
      <point x="419" y="160"/>
      <point x="391" y="126"/>
      <point x="332" y="113" type="curve"/>
      <point x="358" y="275" type="line"/>
      <point x="399" y="260"/>
      <point x="419" y="243"/>
    </contour>
  </outline>
</glyph>
<glyph name="percent" format="1">
  <advance width="600"/>
  <unicode hex="0025"/>
  <outline>
    <contour>
      <point x="187" y="339" type="curve" smooth="yes"/>
      <point x="300" y="339"/>
      <point x="372" y="430"/>
      <point x="372" y="564" type="curve" smooth="yes"/>
      <point x="372" y="654"/>
      <point x="323" y="710"/>
      <point x="235" y="710" type="curve" smooth="yes"/>
      <point x="122" y="710"/>
      <point x="50" y="619"/>
      <point x="50" y="485" type="curve" smooth="yes"/>
      <point x="50" y="395"/>
      <point x="99" y="339"/>
    </contour>
    <contour>
      <point x="196" y="425" type="curve" smooth="yes"/>
      <point x="165" y="425"/>
      <point x="151" y="441"/>
      <point x="151" y="476" type="curve" smooth="yes"/>
      <point x="151" y="492"/>
      <point x="160" y="535"/>
      <point x="163" y="553" type="curve" smooth="yes"/>
      <point x="170" y="595"/>
      <point x="185" y="624"/>
      <point x="226" y="624" type="curve" smooth="yes"/>
      <point x="257" y="624"/>
      <point x="271" y="608"/>
      <point x="271" y="573" type="curve" smooth="yes"/>
      <point x="271" y="557"/>
      <point x="262" y="514"/>
      <point x="259" y="496" type="curve" smooth="yes"/>
      <point x="252" y="454"/>
      <point x="237" y="425"/>
    </contour>
    <contour>
      <point x="360" y="398" type="line"/>
      <point x="471" y="398" type="line"/>
      <point x="672" y="698" type="line" name="hr01"/>
      <point x="561" y="698" type="line"/>
    </contour>
    <contour>
      <point x="-39" y="0" type="line"/>
      <point x="72" y="0" type="line"/>
      <point x="273" y="300" type="line"/>
      <point x="162" y="300" type="line"/>
    </contour>
    <contour>
      <point x="398" y="-12" type="curve" smooth="yes" name="hr02"/>
      <point x="511" y="-12"/>
      <point x="583" y="79"/>
      <point x="583" y="213" type="curve" smooth="yes"/>
      <point x="583" y="303"/>
      <point x="534" y="359"/>
      <point x="446" y="359" type="curve" smooth="yes"/>
      <point x="333" y="359"/>
      <point x="261" y="268"/>
      <point x="261" y="134" type="curve" smooth="yes"/>
      <point x="261" y="44"/>
      <point x="310" y="-12"/>
    </contour>
    <contour>
      <point x="407" y="74" type="curve" smooth="yes"/>
      <point x="376" y="74"/>
      <point x="362" y="90"/>
      <point x="362" y="125" type="curve" smooth="yes"/>
      <point x="362" y="141"/>
      <point x="371" y="184"/>
      <point x="374" y="202" type="curve" smooth="yes"/>
      <point x="381" y="244"/>
      <point x="396" y="273"/>
      <point x="437" y="273" type="curve" smooth="yes"/>
      <point x="468" y="273"/>
      <point x="482" y="257"/>
      <point x="482" y="222" type="curve" smooth="yes"/>
      <point x="482" y="206"/>
      <point x="473" y="163"/>
      <point x="470" y="145" type="curve" smooth="yes"/>
      <point x="463" y="103"/>
      <point x="448" y="74"/>
    </contour>
  </outline>
</glyph>
<glyph name="ampersand" format="1">
  <advance width="600"/>
  <unicode hex="0026"/>
  <outline>
    <contour>
      <point x="153" y="-12" type="curve" smooth="yes" name="hr00"/>
      <point x="237" y="-12"/>
      <point x="282" y="52"/>
      <point x="292" y="137" type="curve"/>
      <point x="298" y="137" type="line"/>
      <point x="325" y="27"/>
      <point x="372" y="-12"/>
      <point x="424" y="-12" type="curve" smooth="yes"/>
      <point x="477" y="-12"/>
      <point x="513" y="9"/>
      <point x="551" y="74" type="curve" smooth="yes"/>
      <point x="599" y="155" type="line"/>
      <point x="517" y="214" type="line"/>
      <point x="449" y="119" type="line"/>
      <point x="432" y="123" type="line"/>
      <point x="360" y="324" type="line"/>
      <point x="484" y="347"/>
      <point x="556" y="425"/>
      <point x="556" y="535" type="curve" smooth="yes"/>
      <point x="556" y="640"/>
      <point x="485" y="710"/>
      <point x="379" y="710" type="curve" smooth="yes"/>
      <point x="248" y="710"/>
      <point x="175" y="631"/>
      <point x="175" y="531" type="curve" smooth="yes"/>
      <point x="175" y="489"/>
      <point x="186" y="442"/>
      <point x="200" y="399" type="curve"/>
      <point x="64" y="391"/>
      <point x="10" y="292"/>
      <point x="10" y="171" type="curve" smooth="yes"/>
      <point x="10" y="50"/>
      <point x="69" y="-12"/>
    </contour>
    <contour>
      <point x="207" y="115" type="curve" smooth="yes"/>
      <point x="174" y="115"/>
      <point x="152" y="141"/>
      <point x="152" y="183" type="curve" smooth="yes"/>
      <point x="152" y="195"/>
      <point x="152" y="210"/>
      <point x="155" y="242" type="curve" smooth="yes"/>
      <point x="158" y="283"/>
      <point x="167" y="322"/>
      <point x="220" y="338" type="curve"/>
      <point x="277" y="169" type="line"/>
      <point x="258" y="119"/>
      <point x="231" y="115"/>
    </contour>
    <contour>
      <point x="368" y="606" type="curve" smooth="yes"/>
      <point x="404" y="606"/>
      <point x="428" y="578"/>
      <point x="428" y="542" type="curve" smooth="yes"/>
      <point x="428" y="523"/>
      <point x="427" y="507"/>
      <point x="423" y="483" type="curve" smooth="yes"/>
      <point x="415" y="435"/>
      <point x="391" y="407"/>
      <point x="337" y="387" type="curve"/>
      <point x="334" y="396" type="line" smooth="yes"/>
      <point x="315" y="448"/>
      <point x="305" y="487"/>
      <point x="305" y="530" type="curve" smooth="yes"/>
      <point x="305" y="571"/>
      <point x="323" y="606"/>
    </contour>
  </outline>
</glyph>
<glyph name="quotesingle" format="1">
  <advance width="600"/>
  <unicode hex="0027"/>
  <outline>
    <contour>
      <point x="392" y="415" type="line" name="hr00"/>
      <point x="446" y="740" type="line"/>
      <point x="316" y="740" type="line"/>
      <point x="262" y="415" type="line"/>
    </contour>
  </outline>
</glyph>
<glyph name="parenleft" format="1">
  <advance width="600"/>
  <unicode hex="0028"/>
  <outline>
    <contour>
      <point x="170" y="239" type="curve" smooth="yes" name="hr00"/>
      <point x="170" y="82"/>
      <point x="235" y="-58"/>
      <point x="316" y="-137" type="curve"/>
      <point x="447" y="-137" type="line"/>
      <point x="367" y="-57"/>
      <point x="291" y="82"/>
      <point x="291" y="213" type="curve" smooth="yes"/>
      <point x="291" y="234"/>
      <point x="292" y="251"/>
      <point x="296" y="275" type="curve" smooth="yes"/>
      <point x="312" y="370" type="line" smooth="yes"/>
      <point x="337" y="520"/>
      <point x="453" y="659"/>
      <point x="596" y="760" type="curve"/>
      <point x="453" y="760" type="line"/>
      <point x="301" y="659"/>
      <point x="170" y="461"/>
    </contour>
  </outline>
</glyph>
<glyph name="parenright" format="1">
  <advance width="600"/>
  <unicode hex="0029"/>
  <outline>
    <contour>
      <point x="452" y="384" type="curve" smooth="yes" name="hr00"/>
      <point x="452" y="541"/>
      <point x="387" y="681"/>
      <point x="306" y="760" type="curve"/>
      <point x="175" y="760" type="line"/>
      <point x="255" y="680"/>
      <point x="331" y="541"/>
      <point x="331" y="410" type="curve" smooth="yes"/>
      <point x="331" y="389"/>
      <point x="330" y="372"/>
      <point x="326" y="348" type="curve" smooth="yes"/>
      <point x="310" y="253" type="line" smooth="yes"/>
      <point x="285" y="103"/>
      <point x="169" y="-36"/>
      <point x="26" y="-137" type="curve"/>
      <point x="169" y="-137" type="line"/>
      <point x="321" y="-36"/>
      <point x="452" y="162"/>
    </contour>
  </outline>
</glyph>
<glyph name="asterisk" format="1">
  <advance width="600"/>
  <unicode hex="002A"/>
  <outline>
    <contour>
      <point x="288" y="190" type="line" name="hr00"/>
      <point x="376" y="40" type="line"/>
      <point x="485" y="109" type="line"/>
      <point x="397" y="252" type="line"/>
      <point x="578" y="317" type="line"/>
      <point x="557" y="431" type="line"/>
      <point x="379" y="370" type="line"/>
      <point x="409" y="548" type="line"/>
      <point x="283" y="548" type="line"/>
      <point x="253" y="370" type="line"/>
      <point x="95" y="431" type="line"/>
      <point x="40" y="320" type="line"/>
      <point x="198" y="259" type="line"/>
      <point x="61" y="109" type="line"/>
      <point x="157" y="40" type="line"/>
    </contour>
  </outline>
</glyph>
<glyph name="plus" format="1">
  <advance width="600"/>
  <unicode hex="002B"/>
  <outline>
    <contour>
      <point x="331" y="62" type="line" name="hr00"/>
      <point x="362" y="247" type="line"/>
      <point x="537" y="247" type="line"/>
      <point x="557" y="363" type="line"/>
      <point x="381" y="363" type="line"/>
      <point x="412" y="548" type="line"/>
      <point x="286" y="548" type="line"/>
      <point x="255" y="363" type="line"/>
      <point x="81" y="363" type="line"/>
      <point x="61" y="247" type="line"/>
      <point x="236" y="247" type="line"/>
      <point x="205" y="62" type="line"/>
    </contour>
  </outline>
</glyph>
<glyph name="comma" format="1">
  <advance width="600"/>
  <unicode hex="002C"/>
  <outline>
    <contour>
      <point x="102" y="-151" type="line" name="hr00"/>
      <point x="215" y="-151" type="line"/>
      <point x="398" y="173" type="line"/>
      <point x="211" y="173" type="line"/>
    </contour>
  </outline>
</glyph>
<glyph name="hyphen" format="1">
  <advance width="600"/>
  <unicode hex="002D"/>
  <outline>
    <contour>
      <point x="456" y="235" type="line" name="hr00"/>
      <point x="479" y="375" type="line"/>
      <point x="162" y="375" type="line"/>
      <point x="139" y="235" type="line"/>
    </contour>
  </outline>
</glyph>
<glyph name="period" format="1">
  <advance width="600"/>
  <unicode hex="002E"/>
  <outline>
    <contour>
      <point x="255" y="-12" type="curve" smooth="yes" name="hr00"/>
      <point x="328" y="-12"/>
      <point x="363" y="26"/>
      <point x="370" y="68" type="curve" smooth="yes"/>
      <point x="374" y="92"/>
      <point x="376" y="108"/>
      <point x="376" y="119" type="curve" smooth="yes"/>
      <point x="376" y="156"/>
      <point x="350" y="186"/>
      <point x="284" y="186" type="curve" smooth="yes"/>
      <point x="211" y="186"/>
      <point x="176" y="148"/>
      <point x="169" y="106" type="curve" smooth="yes"/>
      <point x="165" y="82"/>
      <point x="163" y="66"/>
      <point x="163" y="55" type="curve" smooth="yes"/>
      <point x="163" y="18"/>
      <point x="189" y="-12"/>
    </contour>
  </outline>
</glyph>
<glyph name="slash" format="1">
  <advance width="600"/>
  <unicode hex="002F"/>
  <outline>
    <contour>
      <point x="135" y="-138" type="line" name="hr00"/>
      <point x="599" y="760" type="line"/>
      <point x="465" y="760" type="line"/>
      <point x="1" y="-138" type="line"/>
    </contour>
  </outline>
</glyph>
<glyph name="zero" format="1">
  <advance width="600"/>
  <unicode hex="0030"/>
  <outline>
    <contour>
      <point x="278" y="-12" type="curve" smooth="yes" name="hr00"/>
      <point x="501" y="-12"/>
      <point x="592" y="212"/>
      <point x="592" y="442" type="curve" smooth="yes"/>
      <point x="592" y="609"/>
      <point x="518" y="710"/>
      <point x="350" y="710" type="curve" smooth="yes"/>
      <point x="127" y="710"/>
      <point x="36" y="486"/>
      <point x="36" y="256" type="curve" smooth="yes"/>
      <point x="36" y="89"/>
      <point x="112" y="-12"/>
    </contour>
    <contour>
      <point x="278" y="103" type="curve" smooth="yes"/>
      <point x="212" y="103"/>
      <point x="181" y="145"/>
      <point x="181" y="215" type="curve" smooth="yes"/>
      <point x="181" y="238"/>
      <point x="183" y="259"/>
      <point x="188" y="289" type="curve" smooth="yes"/>
      <point x="209" y="416" type="line" smooth="yes"/>
      <point x="228" y="530"/>
      <point x="259" y="595"/>
      <point x="350" y="595" type="curve" smooth="yes"/>
      <point x="416" y="595"/>
      <point x="447" y="553"/>
      <point x="447" y="483" type="curve" smooth="yes"/>
      <point x="447" y="460"/>
      <point x="445" y="439"/>
      <point x="440" y="409" type="curve" smooth="yes"/>
      <point x="419" y="282" type="line" smooth="yes"/>
      <point x="400" y="168"/>
      <point x="369" y="103"/>
    </contour>
    <contour>
      <point x="307" y="290" type="curve" smooth="yes"/>
      <point x="351" y="290"/>
      <point x="371" y="308"/>
      <point x="376" y="338" type="curve" smooth="yes"/>
      <point x="378" y="350"/>
      <point x="379" y="360"/>
      <point x="379" y="366" type="curve" smooth="yes"/>
      <point x="379" y="390"/>
      <point x="362" y="408"/>
      <point x="321" y="408" type="curve" smooth="yes"/>
      <point x="277" y="408"/>
      <point x="257" y="390"/>
      <point x="252" y="360" type="curve" smooth="yes"/>
      <point x="250" y="348"/>
      <point x="249" y="338"/>
      <point x="249" y="332" type="curve" smooth="yes"/>
      <point x="249" y="308"/>
      <point x="266" y="290"/>
    </contour>
  </outline>
</glyph>
<glyph name="one" format="1">
  <advance width="600"/>
  <unicode hex="0031"/>
  <outline>
    <contour>
      <point x="531" y="0" type="line" name="hr00"/>
      <point x="551" y="120" type="line"/>
      <point x="402" y="120" type="line"/>
      <point x="498" y="698" type="line"/>
      <point x="266" y="698" type="line"/>
      <point x="66" y="478" type="line"/>
      <point x="154" y="403" type="line"/>
      <point x="323" y="589" type="line"/>
      <point x="332" y="589" type="line"/>
      <point x="254" y="120" type="line"/>
      <point x="67" y="120" type="line"/>
      <point x="47" y="0" type="line"/>
    </contour>
  </outline>
</glyph>
<glyph name="two" format="1">
  <advance width="600"/>
  <unicode hex="0032"/>
  <outline>
    <contour>
      <point x="533" y="124" type="line" name="hr00"/>
      <point x="209" y="124" type="line"/>
      <point x="359" y="232" type="line" smooth="yes"/>
      <point x="495" y="330"/>
      <point x="580" y="396"/>
      <point x="580" y="515" type="curve" smooth="yes"/>
      <point x="580" y="632"/>
      <point x="495" y="710"/>
      <point x="350" y="710" type="curve" smooth="yes"/>
      <point x="215" y="710"/>
      <point x="131" y="633"/>
      <point x="84" y="533" type="curve"/>
      <point x="212" y="483" type="line"/>
      <point x="234" y="535"/>
      <point x="272" y="582"/>
      <point x="338" y="582" type="curve" smooth="yes"/>
      <point x="392" y="582"/>
      <point x="422" y="552"/>
      <point x="422" y="511" type="curve" smooth="yes"/>
      <point x="422" y="500"/>
      <point x="421" y="491"/>
      <point x="420" y="485" type="curve" smooth="yes"/>
      <point x="411" y="431"/>
      <point x="375" y="388"/>
      <point x="287" y="323" type="curve" smooth="yes"/>
      <point x="34" y="136" type="line"/>
      <point x="12" y="0" type="line"/>
      <point x="512" y="0" type="line"/>
    </contour>
  </outline>
</glyph>
<glyph name="three" format="1">
  <advance width="600"/>
  <unicode hex="0033"/>
  <outline>
    <contour>
      <point x="227" y="422" type="line"/>
      <point x="206" y="298" type="line"/>
      <point x="281" y="298" type="line" smooth="yes"/>
      <point x="343" y="298"/>
      <point x="383" y="269"/>
      <point x="383" y="221" type="curve" smooth="yes"/>
      <point x="383" y="212"/>
      <point x="382" y="201"/>
      <point x="381" y="195" type="curve" smooth="yes"/>
      <point x="372" y="141"/>
      <point x="331" y="109"/>
      <point x="261" y="109" type="curve" smooth="yes"/>
      <point x="182" y="109"/>
      <point x="143" y="146"/>
      <point x="118" y="199" type="curve"/>
      <point x="12" y="122" type="line"/>
      <point x="44" y="51"/>
      <point x="114" y="-12"/>
      <point x="255" y="-12" type="curve" smooth="yes"/>
      <point x="440" y="-12"/>
      <point x="539" y="85"/>
      <point x="539" y="215" type="curve" smooth="yes"/>
      <point x="539" y="298"/>
      <point x="489" y="349"/>
      <point x="415" y="362" type="curve"/>
      <point x="416" y="367" type="line"/>
      <point x="518" y="390"/>
      <point x="580" y="453"/>
      <point x="580" y="544" type="curve" smooth="yes" name="hr01"/>
      <point x="580" y="645"/>
      <point x="492" y="710"/>
      <point x="354" y="710" type="curve" smooth="yes"/>
      <point x="231" y="710"/>
      <point x="158" y="665"/>
      <point x="96" y="599" type="curve"/>
      <point x="178" y="507" type="line"/>
      <point x="222" y="566"/>
      <point x="272" y="589"/>
      <point x="328" y="589" type="curve" smooth="yes"/>
      <point x="384" y="589"/>
      <point x="420" y="562"/>
      <point x="420" y="518" type="curve" smooth="yes"/>
      <point x="420" y="509"/>
      <point x="419" y="503"/>
      <point x="417" y="491" type="curve" smooth="yes"/>
      <point x="411" y="455"/>
      <point x="375" y="422"/>
      <point x="294" y="422" type="curve" smooth="yes"/>
    </contour>
  </outline>
</glyph>
<glyph name="four" format="1">
  <advance width="600"/>
  <unicode hex="0034"/>
  <outline>
    <contour>
      <point x="442" y="0" type="line"/>
      <point x="464" y="134" type="line"/>
      <point x="553" y="134" type="line"/>
      <point x="572" y="249" type="line" name="hr01"/>
      <point x="483" y="249" type="line"/>
      <point x="558" y="698" type="line"/>
      <point x="379" y="698" type="line"/>
      <point x="28" y="264" type="line"/>
      <point x="6" y="134" type="line"/>
      <point x="320" y="134" type="line"/>
      <point x="298" y="0" type="line" name="hr02"/>
    </contour>
    <contour>
      <point x="378" y="530" type="line"/>
      <point x="386" y="530" type="line"/>
      <point x="339" y="249" type="line" name="hr03"/>
      <point x="151" y="249" type="line"/>
    </contour>
  </outline>
</glyph>
<glyph name="five" format="1">
  <advance width="600"/>
  <unicode hex="0035"/>
  <outline>
    <contour>
      <point x="593" y="698" type="line" name="hr00"/>
      <point x="162" y="698" type="line"/>
      <point x="70" y="303" type="line"/>
      <point x="188" y="287" type="line"/>
      <point x="212" y="308"/>
      <point x="251" y="336"/>
      <point x="306" y="336" type="curve" smooth="yes"/>
      <point x="366" y="336"/>
      <point x="401" y="305"/>
      <point x="401" y="252" type="curve" smooth="yes"/>
      <point x="401" y="238"/>
      <point x="400" y="224"/>
      <point x="398" y="212" type="curve" smooth="yes"/>
      <point x="388" y="152"/>
      <point x="345" y="109"/>
      <point x="271" y="109" type="curve" smooth="yes"/>
      <point x="199" y="109"/>
      <point x="156" y="148"/>
      <point x="135" y="199" type="curve"/>
      <point x="18" y="124" type="line"/>
      <point x="51" y="53"/>
      <point x="117" y="-12"/>
      <point x="268" y="-12" type="curve" smooth="yes"/>
      <point x="464" y="-12"/>
      <point x="563" y="126"/>
      <point x="563" y="262" type="curve" smooth="yes"/>
      <point x="563" y="385"/>
      <point x="482" y="456"/>
      <point x="373" y="456" type="curve" smooth="yes"/>
      <point x="285" y="456"/>
      <point x="244" y="416"/>
      <point x="204" y="346" type="curve"/>
      <point x="196" y="346" type="line"/>
      <point x="248" y="569" type="line"/>
      <point x="571" y="569" type="line"/>
    </contour>
  </outline>
</glyph>
<glyph name="six" format="1">
  <advance width="600"/>
  <unicode hex="0036"/>
  <outline>
    <contour>
      <point x="274" y="-12" type="curve" smooth="yes" name="hr00"/>
      <point x="462" y="-12"/>
      <point x="565" y="116"/>
      <point x="565" y="258" type="curve" smooth="yes"/>
      <point x="565" y="373"/>
      <point x="497" y="450"/>
      <point x="389" y="450" type="curve" smooth="yes"/>
      <point x="300" y="450"/>
      <point x="252" y="398"/>
      <point x="217" y="345" type="curve"/>
      <point x="209" y="348" type="line"/>
      <point x="261" y="483"/>
      <point x="380" y="582"/>
      <point x="568" y="698" type="curve"/>
      <point x="357" y="698" type="line"/>
      <point x="193" y="604"/>
      <point x="36" y="427"/>
      <point x="36" y="224" type="curve" smooth="yes"/>
      <point x="36" y="80"/>
      <point x="120" y="-12"/>
    </contour>
    <contour>
      <point x="285" y="104" type="curve" smooth="yes"/>
      <point x="221" y="104"/>
      <point x="186" y="136"/>
      <point x="186" y="200" type="curve" smooth="yes"/>
      <point x="186" y="209"/>
      <point x="187" y="221"/>
      <point x="189" y="233" type="curve" smooth="yes"/>
      <point x="200" y="299"/>
      <point x="244" y="336"/>
      <point x="311" y="336" type="curve" smooth="yes"/>
      <point x="375" y="336"/>
      <point x="410" y="304"/>
      <point x="410" y="240" type="curve" smooth="yes"/>
      <point x="410" y="231"/>
      <point x="409" y="219"/>
      <point x="407" y="207" type="curve" smooth="yes"/>
      <point x="396" y="141"/>
      <point x="352" y="104"/>
    </contour>
  </outline>
</glyph>
<glyph name="seven" format="1">
  <advance width="600"/>
  <unicode hex="0037"/>
  <outline>
    <contour>
      <point x="270" y="0" type="line" name="hr00"/>
      <point x="595" y="569" type="line"/>
      <point x="617" y="698" type="line"/>
      <point x="115" y="698" type="line"/>
      <point x="74" y="450" type="line"/>
      <point x="200" y="450" type="line"/>
      <point x="221" y="577" type="line"/>
      <point x="446" y="577" type="line"/>
      <point x="110" y="0" type="line"/>
    </contour>
  </outline>
</glyph>
<glyph name="eight" format="1">
  <advance width="600"/>
  <unicode hex="0038"/>
  <outline>
    <contour>
      <point x="269" y="-12" type="curve" smooth="yes"/>
      <point x="460" y="-12"/>
      <point x="556" y="103"/>
      <point x="556" y="213" type="curve" smooth="yes"/>
      <point x="556" y="288"/>
      <point x="512" y="340"/>
      <point x="442" y="360" type="curve"/>
      <point x="443" y="367" type="line"/>
      <point x="533" y="399"/>
      <point x="588" y="460"/>
      <point x="588" y="543" type="curve" smooth="yes" name="hr01"/>
      <point x="588" y="642"/>
      <point x="513" y="710"/>
      <point x="367" y="710" type="curve" smooth="yes"/>
      <point x="182" y="710"/>
      <point x="100" y="604"/>
      <point x="100" y="506" type="curve" smooth="yes"/>
      <point x="100" y="437"/>
      <point x="136" y="391"/>
      <point x="194" y="368" type="curve"/>
      <point x="193" y="361" type="line"/>
      <point x="88" y="337"/>
      <point x="24" y="263"/>
      <point x="24" y="166" type="curve" smooth="yes" name="hr02"/>
      <point x="24" y="61"/>
      <point x="109" y="-12"/>
    </contour>
    <contour>
      <point x="275" y="102" type="curve" smooth="yes"/>
      <point x="211" y="102"/>
      <point x="178" y="131"/>
      <point x="178" y="177" type="curve" smooth="yes"/>
      <point x="178" y="188"/>
      <point x="178" y="194"/>
      <point x="181" y="212" type="curve" smooth="yes"/>
      <point x="190" y="266"/>
      <point x="231" y="302"/>
      <point x="303" y="302" type="curve" smooth="yes"/>
      <point x="367" y="302"/>
      <point x="400" y="273"/>
      <point x="400" y="227" type="curve" smooth="yes"/>
      <point x="400" y="216"/>
      <point x="400" y="210"/>
      <point x="397" y="192" type="curve" smooth="yes"/>
      <point x="388" y="138"/>
      <point x="347" y="102"/>
    </contour>
    <contour>
      <point x="329" y="411" type="curve" smooth="yes"/>
      <point x="269" y="411"/>
      <point x="237" y="437"/>
      <point x="237" y="480" type="curve" smooth="yes" name="hr03"/>
      <point x="237" y="488"/>
      <point x="238" y="499"/>
      <point x="240" y="511" type="curve" smooth="yes"/>
      <point x="249" y="565"/>
      <point x="287" y="596"/>
      <point x="352" y="596" type="curve" smooth="yes"/>
      <point x="412" y="596"/>
      <point x="444" y="570"/>
      <point x="444" y="527" type="curve" smooth="yes"/>
      <point x="444" y="519"/>
      <point x="443" y="508"/>
      <point x="441" y="496" type="curve" smooth="yes"/>
      <point x="432" y="442"/>
      <point x="394" y="411"/>
    </contour>
  </outline>
</glyph>
<glyph name="nine" format="1">
  <advance width="600"/>
  <unicode hex="0039"/>
  <outline>
    <contour>
      <point x="592" y="474" type="curve" smooth="yes" name="hr00"/>
      <point x="592" y="618"/>
      <point x="508" y="710"/>
      <point x="354" y="710" type="curve" smooth="yes"/>
      <point x="166" y="710"/>
      <point x="63" y="582"/>
      <point x="63" y="440" type="curve" smooth="yes"/>
      <point x="63" y="325"/>
      <point x="131" y="248"/>
      <point x="239" y="248" type="curve" smooth="yes"/>
      <point x="328" y="248"/>
      <point x="376" y="300"/>
      <point x="411" y="353" type="curve"/>
      <point x="419" y="350" type="line"/>
      <point x="367" y="215"/>
      <point x="248" y="116"/>
      <point x="60" y="0" type="curve"/>
      <point x="271" y="0" type="line"/>
      <point x="435" y="94"/>
      <point x="592" y="271"/>
    </contour>
    <contour>
      <point x="317" y="362" type="curve" smooth="yes"/>
      <point x="253" y="362"/>
      <point x="218" y="394"/>
      <point x="218" y="458" type="curve" smooth="yes"/>
      <point x="218" y="467"/>
      <point x="219" y="479"/>
      <point x="221" y="491" type="curve" smooth="yes"/>
      <point x="232" y="557"/>
      <point x="276" y="594"/>
      <point x="343" y="594" type="curve" smooth="yes"/>
      <point x="407" y="594"/>
      <point x="442" y="562"/>
      <point x="442" y="498" type="curve" smooth="yes"/>
      <point x="442" y="489"/>
      <point x="441" y="477"/>
      <point x="439" y="465" type="curve" smooth="yes"/>
      <point x="428" y="399"/>
      <point x="384" y="362"/>
    </contour>
  </outline>
</glyph>
<glyph name="less" format="1">
  <advance width="600"/>
  <unicode hex="003C"/>
  <outline>
    <contour>
      <point x="473" y="7" type="line" name="hr00"/>
      <point x="495" y="138" type="line"/>
      <point x="224" y="296" type="line"/>
      <point x="225" y="304" type="line"/>
      <point x="548" y="461" type="line"/>
      <point x="572" y="604" type="line"/>
      <point x="104" y="375" type="line"/>
      <point x="81" y="237" type="line"/>
    </contour>
  </outline>
</glyph>
<glyph name="equal" format="1">
  <advance width="600"/>
  <unicode hex="003D"/>
  <outline>
    <contour>
      <point x="556" y="362" type="line" name="hr00"/>
      <point x="576" y="478" type="line"/>
      <point x="100" y="478" type="line"/>
      <point x="80" y="362" type="line"/>
    </contour>
    <contour>
      <point x="518" y="132" type="line"/>
      <point x="538" y="248" type="line"/>
      <point x="62" y="248" type="line"/>
      <point x="42" y="132" type="line"/>
    </contour>
  </outline>
</glyph>
<glyph name="greater" format="1">
  <advance width="600"/>
  <unicode hex="003E"/>
  <outline>
    <contour>
      <point x="45" y="6" type="line" name="hr00"/>
      <point x="514" y="237" type="line"/>
      <point x="537" y="375" type="line"/>
      <point x="144" y="604" type="line"/>
      <point x="122" y="473" type="line"/>
      <point x="394" y="316" type="line"/>
      <point x="393" y="308" type="line"/>
      <point x="69" y="151" type="line"/>
    </contour>
  </outline>
</glyph>
<glyph name="question" format="1">
  <advance width="600"/>
  <unicode hex="003F"/>
  <outline>
    <contour>
      <point x="344" y="234" type="line" name="hr00"/>
      <point x="356" y="305" type="line"/>
      <point x="471" y="322"/>
      <point x="566" y="401"/>
      <point x="566" y="524" type="curve" smooth="yes"/>
      <point x="566" y="638"/>
      <point x="484" y="710"/>
      <point x="350" y="710" type="curve" smooth="yes"/>
      <point x="218" y="710"/>
      <point x="141" y="640"/>
      <point x="106" y="555" type="curve"/>
      <point x="220" y="502" type="line"/>
      <point x="241" y="553"/>
      <point x="278" y="586"/>
      <point x="328" y="586" type="curve" smooth="yes"/>
      <point x="373" y="586"/>
      <point x="409" y="563"/>
      <point x="409" y="518" type="curve" smooth="yes"/>
      <point x="409" y="515"/>
      <point x="409" y="502"/>
      <point x="407" y="490" type="curve" smooth="yes"/>
      <point x="395" y="418"/>
      <point x="336" y="391"/>
      <point x="223" y="386" type="curve"/>
      <point x="198" y="234" type="line"/>
    </contour>
    <contour>
      <point x="237" y="-12" type="curve" smooth="yes"/>
      <point x="303" y="-12"/>
      <point x="335" y="21"/>
      <point x="342" y="63" type="curve" smooth="yes"/>
      <point x="347" y="93"/>
      <point x="348" y="103"/>
      <point x="348" y="111" type="curve" smooth="yes"/>
      <point x="348" y="146"/>
      <point x="322" y="174"/>
      <point x="260" y="174" type="curve" smooth="yes"/>
      <point x="194" y="174"/>
      <point x="162" y="141"/>
      <point x="155" y="99" type="curve" smooth="yes"/>
      <point x="150" y="69"/>
      <point x="149" y="59"/>
      <point x="149" y="51" type="curve" smooth="yes"/>
      <point x="149" y="16"/>
      <point x="175" y="-12"/>
    </contour>
  </outline>
</glyph>
<glyph name="at" format="1">
  <advance width="600"/>
  <unicode hex="0040"/>
  <outline>
    <contour>
      <point x="419" y="-18" type="line" name="hr00"/>
      <point x="297" y="-18" type="line" smooth="yes"/>
      <point x="188" y="-18"/>
      <point x="145" y="41"/>
      <point x="145" y="147" type="curve" smooth="yes"/>
      <point x="145" y="169"/>
      <point x="146" y="202"/>
      <point x="151" y="232" type="curve" smooth="yes"/>
      <point x="172" y="358" type="line" smooth="yes"/>
      <point x="206" y="564"/>
      <point x="274" y="616"/>
      <point x="366" y="616" type="curve" smooth="yes"/>
      <point x="435" y="616"/>
      <point x="477" y="587"/>
      <point x="477" y="509" type="curve" smooth="yes"/>
      <point x="477" y="497"/>
      <point x="476" y="480"/>
      <point x="473" y="463" type="curve" smooth="yes"/>
      <point x="467" y="428" type="line"/>
      <point x="463" y="428" type="line"/>
      <point x="456" y="477"/>
      <point x="425" y="508"/>
      <point x="374" y="508" type="curve" smooth="yes"/>
      <point x="275" y="508"/>
      <point x="210" y="391"/>
      <point x="210" y="234" type="curve" smooth="yes"/>
      <point x="210" y="136"/>
      <point x="239" y="80"/>
      <point x="314" y="80" type="curve" smooth="yes"/>
      <point x="366" y="80"/>
      <point x="396" y="119"/>
      <point x="421" y="173" type="curve"/>
      <point x="425" y="173" type="line"/>
      <point x="411" y="91" type="line"/>
      <point x="524" y="91" type="line"/>
      <point x="585" y="455" type="line" smooth="yes"/>
      <point x="588" y="473"/>
      <point x="589" y="491"/>
      <point x="589" y="505" type="curve" smooth="yes"/>
      <point x="589" y="626"/>
      <point x="517" y="710"/>
      <point x="372" y="710" type="curve" smooth="yes"/>
      <point x="176" y="710"/>
      <point x="89" y="557"/>
      <point x="54" y="366" type="curve" smooth="yes"/>
      <point x="43" y="305"/>
      <point x="35" y="232"/>
      <point x="35" y="170" type="curve" smooth="yes"/>
      <point x="35" y="-16"/>
      <point x="106" y="-113"/>
      <point x="285" y="-113" type="curve" smooth="yes"/>
      <point x="404" y="-113" type="line"/>
    </contour>
    <contour>
      <point x="361" y="172" type="curve" smooth="yes"/>
      <point x="336" y="172"/>
      <point x="325" y="190"/>
      <point x="325" y="223" type="curve" smooth="yes"/>
      <point x="325" y="233"/>
      <point x="326" y="265"/>
      <point x="328" y="280" type="curve" smooth="yes"/>
      <point x="336" y="328" type="line" smooth="yes"/>
      <point x="346" y="388"/>
      <point x="368" y="423"/>
      <point x="410" y="423" type="curve" smooth="yes"/>
      <point x="446" y="423"/>
      <point x="462" y="397"/>
      <point x="457" y="365" type="curve" smooth="yes"/>
      <point x="443" y="280" type="line" smooth="yes"/>
      <point x="437" y="242"/>
      <point x="421" y="214"/>
      <point x="410" y="200" type="curve" smooth="yes"/>
      <point x="398" y="185"/>
      <point x="382" y="172"/>
    </contour>
  </outline>
</glyph>
<glyph name="A" format="1">
  <advance width="600"/>
  <unicode hex="0041"/>
  <outline>
    <contour>
      <point x="552" y="0" type="line" name="hr00"/>
      <point x="476" y="698" type="line"/>
      <point x="270" y="698" type="line"/>
      <point x="-37" y="0" type="line"/>
      <point x="118" y="0" type="line"/>
      <point x="187" y="169" type="line"/>
      <point x="383" y="169" type="line"/>
      <point x="400" y="0" type="line"/>
    </contour>
    <contour>
      <point x="377" y="289" type="line"/>
      <point x="237" y="289" type="line"/>
      <point x="347" y="553" type="line"/>
      <point x="356" y="553" type="line"/>
    </contour>
    <contour>
      <point x="261" y="0" type="move" name="bottom"/>
    </contour>
    <contour>
      <point x="552" y="0" type="move" name="bottomright"/>
    </contour>
    <contour>
      <point x="370" y="698" type="move" name="top"/>
    </contour>
  </outline>
</glyph>
<glyph name="B" format="1">
  <advance width="600"/>
  <unicode hex="0042"/>
  <outline>
    <contour>
      <point x="35" y="0" type="line"/>
      <point x="305" y="0" type="line" smooth="yes"/>
      <point x="453" y="0"/>
      <point x="544" y="86"/>
      <point x="544" y="217" type="curve" smooth="yes"/>
      <point x="544" y="291"/>
      <point x="503" y="336"/>
      <point x="430" y="350" type="curve"/>
      <point x="431" y="355" type="line"/>
      <point x="528" y="379"/>
      <point x="576" y="441"/>
      <point x="576" y="537" type="curve" smooth="yes" name="hr01"/>
      <point x="576" y="634"/>
      <point x="510" y="698"/>
      <point x="389" y="698" type="curve" smooth="yes"/>
      <point x="152" y="698" type="line"/>
    </contour>
    <contour>
      <point x="197" y="104" type="line"/>
      <point x="230" y="303" type="line"/>
      <point x="312" y="303" type="line" smooth="yes"/>
      <point x="372" y="303"/>
      <point x="397" y="284"/>
      <point x="397" y="238" type="curve" smooth="yes" name="hr02"/>
      <point x="397" y="230"/>
      <point x="394" y="215"/>
      <point x="392" y="203" type="curve" smooth="yes"/>
      <point x="388" y="179" type="line" smooth="yes"/>
      <point x="379" y="125"/>
      <point x="339" y="104"/>
      <point x="273" y="104" type="curve" smooth="yes"/>
    </contour>
    <contour>
      <point x="247" y="402" type="line"/>
      <point x="279" y="594" type="line"/>
      <point x="343" y="594" type="line" smooth="yes"/>
      <point x="396" y="594"/>
      <point x="426" y="578"/>
      <point x="426" y="533" type="curve" smooth="yes" name="hr03"/>
      <point x="426" y="524"/>
      <point x="424" y="508"/>
      <point x="423" y="502" type="curve" smooth="yes"/>
      <point x="419" y="478" type="line" smooth="yes"/>
      <point x="409" y="418"/>
      <point x="374" y="402"/>
      <point x="304" y="402" type="curve" smooth="yes"/>
    </contour>
    <contour>
      <point x="260" y="0" type="move" name="bottom"/>
    </contour>
    <contour>
      <point x="365" y="698" type="move" name="top"/>
    </contour>
  </outline>
</glyph>
<glyph name="C" format="1">
  <advance width="600"/>
  <unicode hex="0043"/>
  <outline>
    <contour>
      <point x="290" y="-12" type="curve" smooth="yes" name="hr00"/>
      <point x="425" y="-12"/>
      <point x="504" y="58"/>
      <point x="559" y="189" type="curve"/>
      <point x="432" y="227" type="line"/>
      <point x="405" y="161"/>
      <point x="364" y="108"/>
      <point x="300" y="108" type="curve" smooth="yes"/>
      <point x="227" y="108"/>
      <point x="199" y="151"/>
      <point x="199" y="221" type="curve" smooth="yes"/>
      <point x="199" y="253"/>
      <point x="203" y="275"/>
      <point x="207" y="299" type="curve" smooth="yes"/>
      <point x="225" y="408" type="line" smooth="yes"/>
      <point x="244" y="520"/>
      <point x="285" y="590"/>
      <point x="367" y="590" type="curve" smooth="yes"/>
      <point x="439" y="590"/>
      <point x="457" y="542"/>
      <point x="461" y="476" type="curve"/>
      <point x="604" y="505" type="line"/>
      <point x="597" y="626"/>
      <point x="528" y="710"/>
      <point x="373" y="710" type="curve" smooth="yes"/>
      <point x="176" y="710"/>
      <point x="50" y="525"/>
      <point x="50" y="254" type="curve" smooth="yes"/>
      <point x="50" y="87"/>
      <point x="126" y="-12"/>
    </contour>
    <contour>
      <point x="293" y="0" type="move" name="bottom"/>
    </contour>
    <contour>
      <point x="373" y="698" type="move" name="top"/>
    </contour>
  </outline>
</glyph>
<glyph name="D" format="1">
  <advance width="600"/>
  <unicode hex="0044"/>
  <outline>
    <contour>
      <point x="25" y="0" type="line" name="hr00"/>
      <point x="252" y="0" type="line" smooth="yes"/>
      <point x="469" y="0"/>
      <point x="588" y="166"/>
      <point x="588" y="441" type="curve" smooth="yes"/>
      <point x="588" y="606"/>
      <point x="503" y="698"/>
      <point x="347" y="698" type="curve" smooth="yes"/>
      <point x="142" y="698" type="line"/>
    </contour>
    <contour>
      <point x="192" y="117" type="line"/>
      <point x="269" y="581" type="line"/>
      <point x="334" y="581" type="line" smooth="yes"/>
      <point x="405" y="581"/>
      <point x="439" y="545"/>
      <point x="439" y="469" type="curve" smooth="yes"/>
      <point x="439" y="450"/>
      <point x="437" y="425"/>
      <point x="433" y="401" type="curve" smooth="yes"/>
      <point x="412" y="275" type="line" smooth="yes"/>
      <point x="394" y="167"/>
      <point x="344" y="117"/>
      <point x="255" y="117" type="curve" smooth="yes"/>
    </contour>
    <contour>
      <point x="238" y="0" type="move" name="bottom"/>
    </contour>
    <contour>
      <point x="345" y="698" type="move" name="top"/>
    </contour>
  </outline>
</glyph>
<glyph name="E" format="1">
  <advance width="600"/>
  <unicode hex="0045"/>
  <outline>
    <contour>
      <point x="484" y="0" type="line" name="hr00"/>
      <point x="504" y="122" type="line"/>
      <point x="205" y="122" type="line"/>
      <point x="233" y="292" type="line"/>
      <point x="520" y="292" type="line"/>
      <point x="540" y="414" type="line"/>
      <point x="254" y="414" type="line"/>
      <point x="281" y="576" type="line"/>
      <point x="581" y="576" type="line"/>
      <point x="601" y="698" type="line"/>
      <point x="155" y="698" type="line"/>
      <point x="38" y="0" type="line"/>
    </contour>
    <contour>
      <point x="283" y="0" type="move" name="bottom"/>
    </contour>
    <contour>
      <point x="484" y="0" type="move" name="bottomright"/>
    </contour>
    <contour>
      <point x="373" y="698" type="move" name="top"/>
    </contour>
  </outline>
</glyph>
<glyph name="F" format="1">
  <advance width="600"/>
  <unicode hex="0046"/>
  <outline>
    <contour>
      <point x="185" y="0" type="line" name="hr00"/>
      <point x="234" y="292" type="line"/>
      <point x="516" y="292" type="line"/>
      <point x="536" y="414" type="line"/>
      <point x="254" y="414" type="line"/>
      <point x="281" y="576" type="line"/>
      <point x="597" y="576" type="line"/>
      <point x="617" y="698" type="line"/>
      <point x="155" y="698" type="line"/>
      <point x="38" y="0" type="line"/>
    </contour>
    <contour>
      <point x="112" y="0" type="move" name="bottom"/>
    </contour>
    <contour>
      <point x="386" y="698" type="move" name="top"/>
    </contour>
  </outline>
</glyph>
<glyph name="G" format="1">
  <advance width="600"/>
  <unicode hex="0047"/>
  <outline>
    <contour>
      <point x="373" y="0" type="line"/>
      <point x="504" y="0" type="line"/>
      <point x="566" y="372" type="line"/>
      <point x="312" y="372" type="line"/>
      <point x="295" y="267" type="line"/>
      <point x="418" y="267" type="line"/>
      <point x="410" y="219" type="line" smooth="yes"/>
      <point x="400" y="159"/>
      <point x="359" y="108"/>
      <point x="289" y="108" type="curve" smooth="yes" name="hr01"/>
      <point x="225" y="108"/>
      <point x="196" y="154"/>
      <point x="196" y="224" type="curve" smooth="yes"/>
      <point x="196" y="251"/>
      <point x="200" y="287"/>
      <point x="204" y="311" type="curve" smooth="yes"/>
      <point x="221" y="413" type="line" smooth="yes"/>
      <point x="239" y="521"/>
      <point x="279" y="590"/>
      <point x="355" y="590" type="curve" smooth="yes"/>
      <point x="424" y="590"/>
      <point x="441" y="536"/>
      <point x="446" y="476" type="curve"/>
      <point x="589" y="504" type="line"/>
      <point x="580" y="625"/>
      <point x="513" y="710"/>
      <point x="368" y="710" type="curve" smooth="yes"/>
      <point x="154" y="710"/>
      <point x="45" y="510"/>
      <point x="45" y="245" type="curve" smooth="yes"/>
      <point x="45" y="77"/>
      <point x="116" y="-12"/>
      <point x="230" y="-12" type="curve" smooth="yes"/>
      <point x="311" y="-12"/>
      <point x="346" y="39"/>
      <point x="381" y="101" type="curve" name="hr02"/>
      <point x="390" y="101" type="line"/>
    </contour>
    <contour>
      <point x="298" y="0" type="move" name="bottom"/>
    </contour>
    <contour>
      <point x="366" y="698" type="move" name="top"/>
    </contour>
  </outline>
</glyph>
<glyph name="H" format="1">
  <advance width="600"/>
  <unicode hex="0048"/>
  <outline>
    <contour>
      <point x="348" y="0" type="line" name="hr00"/>
      <point x="496" y="0" type="line"/>
      <point x="612" y="698" type="line"/>
      <point x="464" y="698" type="line"/>
      <point x="417" y="414" type="line"/>
      <point x="237" y="414" type="line"/>
      <point x="284" y="698" type="line"/>
      <point x="136" y="698" type="line"/>
      <point x="20" y="0" type="line"/>
      <point x="168" y="0" type="line"/>
      <point x="217" y="293" type="line"/>
      <point x="397" y="293" type="line"/>
    </contour>
    <contour>
      <point x="256" y="0" type="move" name="bottom"/>
    </contour>
    <contour>
      <point x="374" y="698" type="move" name="top"/>
    </contour>
  </outline>
</glyph>
<glyph name="I" format="1">
  <advance width="600"/>
  <unicode hex="0049"/>
  <outline>
    <contour>
      <point x="482" y="0" type="line" name="hr00"/>
      <point x="500" y="110" type="line"/>
      <point x="349" y="110" type="line"/>
      <point x="429" y="588" type="line"/>
      <point x="580" y="588" type="line"/>
      <point x="598" y="698" type="line"/>
      <point x="148" y="698" type="line"/>
      <point x="130" y="588" type="line"/>
      <point x="281" y="588" type="line"/>
      <point x="201" y="110" type="line"/>
      <point x="50" y="110" type="line"/>
      <point x="32" y="0" type="line"/>
    </contour>
    <contour>
      <point x="258" y="0" type="move" name="bottom"/>
    </contour>
    <contour>
      <point x="483" y="0" type="move" name="bottomright"/>
    </contour>
    <contour>
      <point x="374" y="698" type="move" name="top"/>
    </contour>
  </outline>
</glyph>
<glyph name="J" format="1">
  <advance width="600"/>
  <unicode hex="004A"/>
  <outline>
    <contour>
      <point x="201" y="698" type="line" name="hr00"/>
      <point x="181" y="576" type="line"/>
      <point x="415" y="576" type="line"/>
      <point x="353" y="206" type="line" smooth="yes"/>
      <point x="342" y="140"/>
      <point x="307" y="108"/>
      <point x="254" y="108" type="curve" smooth="yes"/>
      <point x="190" y="108"/>
      <point x="171" y="152"/>
      <point x="168" y="211" type="curve"/>
      <point x="29" y="185" type="line"/>
      <point x="32" y="68"/>
      <point x="103" y="-12"/>
      <point x="243" y="-12" type="curve" smooth="yes"/>
      <point x="389" y="-12"/>
      <point x="476" y="60"/>
      <point x="500" y="202" type="curve" smooth="yes"/>
      <point x="583" y="698" type="line"/>
    </contour>
    <contour>
      <point x="241" y="0" type="move" name="bottom"/>
    </contour>
    <contour>
      <point x="392" y="698" type="move" name="top"/>
    </contour>
  </outline>
</glyph>
<glyph name="K" format="1">
  <advance width="600"/>
  <unicode hex="004B"/>
  <outline>
    <contour>
      <point x="398" y="0" type="line" name="hr00"/>
      <point x="562" y="0" type="line"/>
      <point x="407" y="388" type="line"/>
      <point x="667" y="698" type="line"/>
      <point x="493" y="698" type="line"/>
      <point x="361" y="536" type="line"/>
      <point x="249" y="399" type="line"/>
      <point x="241" y="399" type="line"/>
      <point x="291" y="698" type="line"/>
      <point x="143" y="698" type="line"/>
      <point x="27" y="0" type="line"/>
      <point x="175" y="0" type="line"/>
      <point x="207" y="191" type="line"/>
      <point x="289" y="282" type="line"/>
    </contour>
    <contour>
      <point x="275" y="0" type="move" name="bottom"/>
    </contour>
    <contour>
      <point x="384" y="698" type="move" name="top"/>
    </contour>
  </outline>
</glyph>
<glyph name="L" format="1">
  <advance width="600"/>
  <unicode hex="004C"/>
  <outline>
    <contour>
      <point x="501" y="0" type="line" name="hr00"/>
      <point x="521" y="122" type="line"/>
      <point x="219" y="122" type="line"/>
      <point x="315" y="698" type="line"/>
      <point x="167" y="698" type="line"/>
      <point x="51" y="0" type="line"/>
    </contour>
    <contour>
      <point x="277.0" y="0.0" type="move" name="bottom"/>
    </contour>
    <contour>
      <point x="237.0" y="698.0" type="move" name="top"/>
    </contour>
    <contour>
      <point x="400.0" y="740.0" type="move" name="topright"/>
    </contour>
  </outline>
</glyph>
<glyph name="M" format="1">
  <advance width="600"/>
  <unicode hex="004D"/>
  <outline>
    <contour>
      <point x="390" y="0" type="line" name="hr00"/>
      <point x="518" y="0" type="line"/>
      <point x="635" y="698" type="line"/>
      <point x="467" y="698" type="line"/>
      <point x="341" y="461" type="line"/>
      <point x="332" y="461" type="line"/>
      <point x="284" y="698" type="line"/>
      <point x="115" y="698" type="line"/>
      <point x="-2" y="0" type="line"/>
      <point x="126" y="0" type="line"/>
      <point x="178" y="311" type="line"/>
      <point x="203" y="508" type="line"/>
      <point x="212" y="508" type="line"/>
      <point x="282" y="149" type="line"/>
      <point x="473" y="508" type="line"/>
      <point x="482" y="508" type="line"/>
      <point x="442" y="311" type="line"/>
    </contour>
    <contour>
      <point x="257" y="0" type="move" name="bottom"/>
    </contour>
    <contour>
      <point x="374" y="698" type="move" name="top"/>
    </contour>
  </outline>
</glyph>
<glyph name="N" format="1">
  <advance width="600"/>
  <unicode hex="004E"/>
  <outline>
    <contour>
      <point x="318" y="0" type="line" name="hr00"/>
      <point x="496" y="0" type="line"/>
      <point x="612" y="698" type="line"/>
      <point x="483" y="698" type="line"/>
      <point x="405" y="230" type="line"/>
      <point x="395" y="230" type="line"/>
      <point x="314" y="698" type="line"/>
      <point x="136" y="698" type="line"/>
      <point x="20" y="0" type="line"/>
      <point x="149" y="0" type="line"/>
      <point x="227" y="468" type="line"/>
      <point x="237" y="468" type="line"/>
    </contour>
    <contour>
      <point x="258" y="0" type="move" name="bottom"/>
    </contour>
    <contour>
      <point x="374" y="698" type="move" name="top"/>
    </contour>
  </outline>
</glyph>
<glyph name="O" format="1">
  <advance width="600"/>
  <unicode hex="004F"/>
  <outline>
    <contour>
      <point x="279" y="-12" type="curve" smooth="yes" name="hr00"/>
      <point x="501" y="-12"/>
      <point x="592" y="210"/>
      <point x="592" y="447" type="curve" smooth="yes"/>
      <point x="592" y="610"/>
      <point x="518" y="710"/>
      <point x="349" y="710" type="curve" smooth="yes"/>
      <point x="127" y="710"/>
      <point x="36" y="488"/>
      <point x="36" y="251" type="curve" smooth="yes"/>
      <point x="36" y="88"/>
      <point x="110" y="-12"/>
    </contour>
    <contour>
      <point x="279" y="108" type="curve" smooth="yes"/>
      <point x="216" y="108"/>
      <point x="187" y="149"/>
      <point x="187" y="218" type="curve" smooth="yes"/>
      <point x="187" y="243"/>
      <point x="189" y="266"/>
      <point x="193" y="290" type="curve" smooth="yes"/>
      <point x="213" y="410" type="line" smooth="yes"/>
      <point x="232" y="524"/>
      <point x="265" y="590"/>
      <point x="349" y="590" type="curve" smooth="yes"/>
      <point x="412" y="590"/>
      <point x="441" y="549"/>
      <point x="441" y="480" type="curve" smooth="yes"/>
      <point x="441" y="455"/>
      <point x="439" y="432"/>
      <point x="435" y="408" type="curve" smooth="yes"/>
      <point x="415" y="288" type="line" smooth="yes"/>
      <point x="396" y="174"/>
      <point x="363" y="108"/>
    </contour>
    <contour>
      <point x="265" y="0" type="move" name="bottom"/>
    </contour>
    <contour>
      <point x="358" y="698" type="move" name="top"/>
    </contour>
  </outline>
</glyph>
<glyph name="P" format="1">
  <advance width="600"/>
  <unicode hex="0050"/>
  <outline>
    <contour>
      <point x="185" y="0" type="line" name="hr00"/>
      <point x="228" y="256" type="line"/>
      <point x="347" y="256" type="line" smooth="yes"/>
      <point x="498" y="256"/>
      <point x="596" y="354"/>
      <point x="596" y="513" type="curve" smooth="yes"/>
      <point x="596" y="621"/>
      <point x="530" y="698"/>
      <point x="406" y="698" type="curve" smooth="yes"/>
      <point x="154" y="698" type="line"/>
      <point x="37" y="0" type="line"/>
    </contour>
    <contour>
      <point x="282" y="579" type="line"/>
      <point x="360" y="579" type="line" smooth="yes"/>
      <point x="419" y="579"/>
      <point x="442" y="561"/>
      <point x="442" y="516" type="curve" smooth="yes"/>
      <point x="442" y="505"/>
      <point x="441" y="495"/>
      <point x="440" y="489" type="curve" smooth="yes"/>
      <point x="435" y="459" type="line" smooth="yes"/>
      <point x="425" y="399"/>
      <point x="394" y="376"/>
      <point x="326" y="376" type="curve" smooth="yes"/>
      <point x="248" y="376" type="line"/>
    </contour>
    <contour>
      <point x="110" y="0" type="move" name="bottom"/>
    </contour>
    <contour>
      <point x="363" y="698" type="move" name="top"/>
    </contour>
  </outline>
</glyph>
<glyph name="Q" format="1">
  <advance width="600"/>
  <unicode hex="0051"/>
  <outline>
    <contour>
      <point x="406" y="-205" type="curve" smooth="yes" name="hr00"/>
      <point x="451" y="-205"/>
      <point x="481" y="-191"/>
      <point x="540" y="-126" type="curve" smooth="yes"/>
      <point x="588" y="-73" type="line"/>
      <point x="512" y="-4" type="line"/>
      <point x="427" y="-88" type="line"/>
      <point x="411" y="-84" type="line"/>
      <point x="357" y="-2" type="line"/>
      <point x="523" y="44"/>
      <point x="592" y="240"/>
      <point x="592" y="447" type="curve" smooth="yes"/>
      <point x="592" y="610"/>
      <point x="518" y="710"/>
      <point x="349" y="710" type="curve" smooth="yes"/>
      <point x="127" y="710"/>
      <point x="36" y="488"/>
      <point x="36" y="251" type="curve" smooth="yes"/>
      <point x="36" y="110"/>
      <point x="91" y="17"/>
      <point x="215" y="-6" type="curve"/>
      <point x="308" y="-146" type="line" smooth="yes"/>
      <point x="330" y="-178"/>
      <point x="356" y="-205"/>
    </contour>
    <contour>
      <point x="279" y="108" type="curve" smooth="yes"/>
      <point x="216" y="108"/>
      <point x="187" y="149"/>
      <point x="187" y="218" type="curve" smooth="yes"/>
      <point x="187" y="243"/>
      <point x="189" y="266"/>
      <point x="193" y="290" type="curve" smooth="yes"/>
      <point x="213" y="410" type="line" smooth="yes"/>
      <point x="232" y="524"/>
      <point x="265" y="590"/>
      <point x="349" y="590" type="curve" smooth="yes"/>
      <point x="412" y="590"/>
      <point x="441" y="549"/>
      <point x="441" y="480" type="curve" smooth="yes"/>
      <point x="441" y="455"/>
      <point x="439" y="432"/>
      <point x="435" y="408" type="curve" smooth="yes"/>
      <point x="415" y="288" type="line" smooth="yes"/>
      <point x="396" y="174"/>
      <point x="363" y="108"/>
    </contour>
    <contour>
      <point x="358" y="698" type="move" name="top"/>
    </contour>
  </outline>
</glyph>
<glyph name="R" format="1">
  <advance width="600"/>
  <unicode hex="0052"/>
  <outline>
    <contour>
      <point x="225" y="260" type="line" name="hr00"/>
      <point x="289" y="260" type="line"/>
      <point x="366" y="0" type="line"/>
      <point x="522" y="0" type="line"/>
      <point x="427" y="275" type="line"/>
      <point x="531" y="304"/>
      <point x="594" y="389"/>
      <point x="594" y="512" type="curve" smooth="yes"/>
      <point x="594" y="623"/>
      <point x="528" y="698"/>
      <point x="404" y="698" type="curve" smooth="yes"/>
      <point x="152" y="698" type="line"/>
      <point x="35" y="0" type="line"/>
      <point x="181" y="0" type="line"/>
    </contour>
    <contour>
      <point x="244" y="376" type="line"/>
      <point x="278" y="579" type="line"/>
      <point x="361" y="579" type="line" smooth="yes"/>
      <point x="410" y="579"/>
      <point x="440" y="559"/>
      <point x="440" y="513" type="curve" smooth="yes"/>
      <point x="440" y="503"/>
      <point x="439" y="492"/>
      <point x="437" y="480" type="curve" smooth="yes"/>
      <point x="433" y="456" type="line" smooth="yes"/>
      <point x="424" y="398"/>
      <point x="396" y="376"/>
      <point x="324" y="376" type="curve" smooth="yes"/>
    </contour>
    <contour>
      <point x="275" y="0" type="move" name="bottom"/>
    </contour>
    <contour>
      <point x="354" y="698" type="move" name="top"/>
    </contour>
  </outline>
</glyph>
<glyph name="S" format="1">
  <advance width="600"/>
  <unicode hex="0053"/>
  <outline>
    <contour>
      <point x="268" y="-12" type="curve" smooth="yes" name="hr00"/>
      <point x="445" y="-12"/>
      <point x="547" y="87"/>
      <point x="547" y="230" type="curve" smooth="yes"/>
      <point x="547" y="325"/>
      <point x="500" y="382"/>
      <point x="401" y="407" type="curve" smooth="yes"/>
      <point x="335" y="424" type="line" smooth="yes"/>
      <point x="273" y="440"/>
      <point x="251" y="458"/>
      <point x="251" y="498" type="curve" smooth="yes"/>
      <point x="251" y="554"/>
      <point x="287" y="590"/>
      <point x="360" y="590" type="curve" smooth="yes"/>
      <point x="420" y="590"/>
      <point x="467" y="565"/>
      <point x="497" y="523" type="curve"/>
      <point x="594" y="612" type="line"/>
      <point x="554" y="673"/>
      <point x="467" y="710"/>
      <point x="367" y="710" type="curve" smooth="yes"/>
      <point x="201" y="710"/>
      <point x="98" y="620"/>
      <point x="98" y="482" type="curve" smooth="yes"/>
      <point x="98" y="396"/>
      <point x="142" y="330"/>
      <point x="243" y="307" type="curve" smooth="yes"/>
      <point x="312" y="291" type="line" smooth="yes"/>
      <point x="368" y="278"/>
      <point x="393" y="259"/>
      <point x="393" y="213" type="curve" smooth="yes"/>
      <point x="393" y="149"/>
      <point x="353" y="110"/>
      <point x="277" y="110" type="curve" smooth="yes"/>
      <point x="215" y="110"/>
      <point x="146" y="136"/>
      <point x="105" y="189" type="curve"/>
      <point x="12" y="95" type="line"/>
      <point x="54" y="28"/>
      <point x="153" y="-12"/>
    </contour>
    <contour>
      <point x="269" y="0" type="move" name="bottom"/>
    </contour>
    <contour>
      <point x="367" y="698" type="move" name="top"/>
    </contour>
  </outline>
</glyph>
<glyph name="T" format="1">
  <advance width="600"/>
  <unicode hex="0054"/>
  <outline>
    <contour>
      <point x="629" y="576" type="line" name="hr00"/>
      <point x="649" y="698" type="line"/>
      <point x="97" y="698" type="line"/>
      <point x="77" y="576" type="line"/>
      <point x="279" y="576" type="line"/>
      <point x="183" y="0" type="line"/>
      <point x="331" y="0" type="line"/>
      <point x="427" y="576" type="line"/>
    </contour>
    <contour>
      <point x="258" y="0" type="move" name="bottom"/>
    </contour>
    <contour>
      <point x="373" y="698" type="move" name="top"/>
    </contour>
  </outline>
</glyph>
<glyph name="U" format="1">
  <advance width="600"/>
  <unicode hex="0055"/>
  <outline>
    <contour>
      <point x="128" y="698" type="line" name="hr00"/>
      <point x="60" y="291" type="line" smooth="yes"/>
      <point x="53" y="249"/>
      <point x="49" y="210"/>
      <point x="49" y="176" type="curve" smooth="yes"/>
      <point x="49" y="62"/>
      <point x="103" y="-12"/>
      <point x="269" y="-12" type="curve" smooth="yes"/>
      <point x="470" y="-12"/>
      <point x="516" y="86"/>
      <point x="547" y="272" type="curve" smooth="yes"/>
      <point x="618" y="698" type="line"/>
      <point x="471" y="698" type="line"/>
      <point x="397" y="255" type="line" smooth="yes"/>
      <point x="382" y="165"/>
      <point x="366" y="108"/>
      <point x="277" y="108" type="curve" smooth="yes"/>
      <point x="216" y="108"/>
      <point x="194" y="136"/>
      <point x="194" y="186" type="curve" smooth="yes"/>
      <point x="194" y="200"/>
      <point x="196" y="224"/>
      <point x="202" y="260" type="curve" smooth="yes"/>
      <point x="275" y="698" type="line"/>
    </contour>
    <contour>
      <point x="267" y="0" type="move" name="bottom"/>
    </contour>
    <contour>
      <point x="404" y="0" type="move" name="bottomright"/>
    </contour>
    <contour>
      <point x="371" y="698" type="move" name="top"/>
    </contour>
  </outline>
</glyph>
<glyph name="V" format="1">
  <advance width="600"/>
  <unicode hex="0056"/>
  <outline>
    <contour>
      <point x="363" y="0" type="line" name="hr00"/>
      <point x="661" y="698" type="line"/>
      <point x="499" y="698" type="line"/>
      <point x="363" y="347" type="line"/>
      <point x="285" y="142" type="line"/>
      <point x="276" y="142" type="line"/>
      <point x="267" y="347" type="line"/>
      <point x="243" y="698" type="line"/>
      <point x="85" y="698" type="line"/>
      <point x="152" y="0" type="line"/>
    </contour>
    <contour>
      <point x="257" y="0" type="move" name="bottom"/>
    </contour>
    <contour>
      <point x="374" y="698" type="move" name="top"/>
    </contour>
  </outline>
</glyph>
<glyph name="W" format="1">
  <advance width="600"/>
  <unicode hex="0057"/>
  <outline>
    <contour>
      <point x="200" y="0" type="line" name="hr00"/>
      <point x="317" y="386" type="line"/>
      <point x="327" y="386" type="line"/>
      <point x="312" y="0" type="line"/>
      <point x="502" y="0" type="line"/>
      <point x="661" y="698" type="line"/>
      <point x="540" y="698" type="line"/>
      <point x="447" y="274" type="line"/>
      <point x="420" y="136" type="line"/>
      <point x="411" y="136" type="line"/>
      <point x="417" y="546" type="line"/>
      <point x="282" y="546" type="line"/>
      <point x="155" y="136" type="line"/>
      <point x="146" y="136" type="line"/>
      <point x="163" y="280" type="line"/>
      <point x="211" y="698" type="line"/>
      <point x="84" y="698" type="line"/>
      <point x="10" y="0" type="line"/>
    </contour>
    <contour>
      <point x="256" y="0" type="move" name="bottom"/>
    </contour>
    <contour>
      <point x="374" y="698" type="move" name="top"/>
    </contour>
  </outline>
</glyph>
<glyph name="X" format="1">
  <advance width="600"/>
  <unicode hex="0058"/>
  <outline>
    <contour>
      <point x="413" y="359" type="line" name="hr00"/>
      <point x="650" y="698" type="line"/>
      <point x="488" y="698" type="line"/>
      <point x="410" y="587" type="line"/>
      <point x="340" y="475" type="line"/>
      <point x="332" y="475" type="line"/>
      <point x="299" y="587" type="line"/>
      <point x="260" y="698" type="line"/>
      <point x="94" y="698" type="line"/>
      <point x="223" y="361" type="line"/>
      <point x="-33" y="0" type="line"/>
      <point x="130" y="0" type="line"/>
      <point x="227" y="139" type="line"/>
      <point x="293" y="249" type="line"/>
      <point x="302" y="249" type="line"/>
      <point x="336" y="139" type="line"/>
      <point x="385" y="0" type="line"/>
      <point x="550" y="0" type="line"/>
    </contour>
    <contour>
      <point x="256" y="0" type="move" name="bottom"/>
    </contour>
    <contour>
      <point x="373" y="698" type="move" name="top"/>
    </contour>
  </outline>
</glyph>
<glyph name="Y" format="1">
  <advance width="600"/>
  <unicode hex="0059"/>
  <outline>
    <contour>
      <point x="332" y="0" type="line" name="hr00"/>
      <point x="373" y="249" type="line"/>
      <point x="668" y="698" type="line"/>
      <point x="503" y="698" type="line"/>
      <point x="403" y="534" type="line"/>
      <point x="325" y="397" type="line"/>
      <point x="316" y="397" type="line"/>
      <point x="285" y="534" type="line"/>
      <point x="236" y="698" type="line"/>
      <point x="78" y="698" type="line"/>
      <point x="225" y="246" type="line"/>
      <point x="184" y="0" type="line"/>
    </contour>
    <contour>
      <point x="258" y="0" type="move" name="bottom"/>
    </contour>
    <contour>
      <point x="367" y="698" type="move" name="top"/>
    </contour>
  </outline>
</glyph>
<glyph name="Z" format="1">
  <advance width="600"/>
  <unicode hex="005A"/>
  <outline>
    <contour>
      <point x="527" y="122" type="line" name="hr00"/>
      <point x="204" y="122" type="line"/>
      <point x="591" y="568" type="line"/>
      <point x="612" y="698" type="line"/>
      <point x="133" y="698" type="line"/>
      <point x="113" y="576" type="line"/>
      <point x="417" y="576" type="line"/>
      <point x="30" y="130" type="line"/>
      <point x="8" y="0" type="line"/>
      <point x="507" y="0" type="line"/>
    </contour>
    <contour>
      <point x="253" y="0" type="move" name="bottom"/>
    </contour>
    <contour>
      <point x="364" y="698" type="move" name="top"/>
    </contour>
  </outline>
</glyph>
<glyph name="bracketleft" format="1">
  <advance width="600"/>
  <unicode hex="005B"/>
  <outline>
    <contour>
      <point x="438" y="-138" type="line" name="hr00"/>
      <point x="455" y="-40" type="line"/>
      <point x="252" y="-40" type="line"/>
      <point x="369" y="662" type="line"/>
      <point x="572" y="662" type="line"/>
      <point x="588" y="760" type="line"/>
      <point x="268" y="760" type="line"/>
      <point x="118" y="-138" type="line"/>
    </contour>
  </outline>
</glyph>
<glyph name="backslash" format="1">
  <advance width="600"/>
  <unicode hex="005C"/>
  <outline>
    <contour>
      <point x="449" y="-138" type="line" name="hr00"/>
      <point x="280" y="760" type="line"/>
      <point x="161" y="760" type="line"/>
      <point x="330" y="-138" type="line"/>
    </contour>
  </outline>
</glyph>
<glyph name="bracketright" format="1">
  <advance width="600"/>
  <unicode hex="005D"/>
  <outline>
    <contour>
      <point x="181" y="760" type="line" name="hr00"/>
      <point x="164" y="662" type="line"/>
      <point x="367" y="662" type="line"/>
      <point x="250" y="-40" type="line"/>
      <point x="47" y="-40" type="line"/>
      <point x="31" y="-138" type="line"/>
      <point x="351" y="-138" type="line"/>
      <point x="501" y="760" type="line"/>
    </contour>
  </outline>
</glyph>
<glyph name="asciicircum" format="1">
  <advance width="600"/>
  <unicode hex="005E"/>
  <outline>
    <contour>
      <point x="578" y="304" type="line" name="hr00"/>
      <point x="445" y="698" type="line"/>
      <point x="289" y="698" type="line"/>
      <point x="34" y="304" type="line"/>
      <point x="144" y="252" type="line"/>
      <point x="342" y="562" type="line"/>
      <point x="353" y="562" type="line"/>
      <point x="459" y="256" type="line"/>
    </contour>
  </outline>
</glyph>
<glyph name="underscore" format="1">
  <advance width="600"/>
  <unicode hex="005F"/>
  <outline>
    <contour>
      <point x="463" y="-191" type="line" name="hr00"/>
      <point x="483" y="-72" type="line"/>
      <point x="8" y="-72" type="line"/>
      <point x="-12" y="-191" type="line"/>
    </contour>
  </outline>
</glyph>
<glyph name="grave" format="1">
  <advance width="600"/>
  <unicode hex="0060"/>
  <outline>
    <contour>
      <point x="293" y="571" type="line" name="hr00"/>
      <point x="380" y="610" type="line"/>
      <point x="303" y="806" type="line"/>
      <point x="179" y="747" type="line"/>
    </contour>
    <contour>
      <point x="300" y="516" type="move" name="_top"/>
    </contour>
  </outline>
</glyph>
<glyph name="a" format="1">
  <advance width="600"/>
  <unicode hex="0061"/>
  <outline>
    <contour>
      <point x="181" y="-12" type="curve" smooth="yes"/>
      <point x="272" y="-12"/>
      <point x="311" y="44"/>
      <point x="350" y="123" type="curve"/>
      <point x="355" y="123" type="line"/>
      <point x="353" y="110" type="line" smooth="yes"/>
      <point x="342" y="38"/>
      <point x="384" y="0"/>
      <point x="459" y="0" type="curve" smooth="yes" name="hr01"/>
      <point x="534" y="0" type="line"/>
      <point x="552" y="107" type="line"/>
      <point x="499" y="107" type="line"/>
      <point x="567" y="516" type="line"/>
      <point x="421" y="516" type="line"/>
      <point x="405" y="420" type="line"/>
      <point x="398" y="420" type="line"/>
      <point x="383" y="488"/>
      <point x="349" y="528"/>
      <point x="271" y="528" type="curve" smooth="yes" name="hr02"/>
      <point x="126" y="528"/>
      <point x="38" y="392"/>
      <point x="38" y="193" type="curve" smooth="yes"/>
      <point x="38" y="68"/>
      <point x="73" y="-12"/>
    </contour>
    <contour>
      <point x="247" y="101" type="curve" smooth="yes"/>
      <point x="200" y="101"/>
      <point x="186" y="139"/>
      <point x="186" y="187" type="curve" smooth="yes"/>
      <point x="186" y="205"/>
      <point x="188" y="221"/>
      <point x="190" y="233" type="curve" smooth="yes"/>
      <point x="200" y="293" type="line" smooth="yes"/>
      <point x="213" y="371"/>
      <point x="244" y="415"/>
      <point x="317" y="415" type="curve" smooth="yes"/>
      <point x="379" y="415"/>
      <point x="399" y="384"/>
      <point x="390" y="330" type="curve" smooth="yes"/>
      <point x="376" y="247" type="line" smooth="yes"/>
      <point x="369" y="204"/>
      <point x="347" y="168"/>
      <point x="332" y="149" type="curve" smooth="yes"/>
      <point x="309" y="120"/>
      <point x="281" y="101"/>
    </contour>
    <contour>
      <point x="248.0" y="0.0" type="move" name="bottom"/>
    </contour>
    <contour>
      <point x="534.0" y="0.0" type="move" name="bottomright"/>
    </contour>
    <contour>
      <point x="326.0" y="516.0" type="move" name="top"/>
    </contour>
  </outline>
</glyph>
<glyph name="c" format="1">
  <advance width="600"/>
  <unicode hex="0063"/>
  <outline>
    <contour>
      <point x="273" y="-12" type="curve" smooth="yes" name="hr00"/>
      <point x="397" y="-12"/>
      <point x="465" y="48"/>
      <point x="533" y="156" type="curve"/>
      <point x="442" y="215" type="line"/>
      <point x="369" y="119"/>
      <point x="339" y="105"/>
      <point x="297" y="105" type="curve" smooth="yes"/>
      <point x="231" y="105"/>
      <point x="206" y="141"/>
      <point x="206" y="194" type="curve" smooth="yes"/>
      <point x="206" y="210"/>
      <point x="208" y="229"/>
      <point x="210" y="241" type="curve" smooth="yes"/>
      <point x="220" y="301" type="line" smooth="yes"/>
      <point x="232" y="373"/>
      <point x="274" y="411"/>
      <point x="331" y="411" type="curve" smooth="yes"/>
      <point x="389" y="411"/>
      <point x="410" y="384"/>
      <point x="424" y="341" type="curve"/>
      <point x="543" y="397" type="line"/>
      <point x="521" y="475"/>
      <point x="461" y="528"/>
      <point x="343" y="528" type="curve" smooth="yes"/>
      <point x="159" y="528"/>
      <point x="57" y="382"/>
      <point x="57" y="206" type="curve" smooth="yes"/>
      <point x="57" y="68"/>
      <point x="133" y="-12"/>
    </contour>
    <contour>
      <point x="276" y="0" type="move" name="bottom"/>
    </contour>
    <contour>
      <point x="339" y="516" type="move" name="top"/>
    </contour>
  </outline>
</glyph>
<glyph name="e" format="1">
  <advance width="600"/>
  <unicode hex="0065"/>
  <outline>
    <contour>
      <point x="281" y="-12" type="curve" smooth="yes" name="hr00"/>
      <point x="413" y="-12"/>
      <point x="479" y="52"/>
      <point x="533" y="129" type="curve"/>
      <point x="442" y="188" type="line"/>
      <point x="389" y="120"/>
      <point x="357" y="100"/>
      <point x="300" y="100" type="curve" smooth="yes"/>
      <point x="230" y="100"/>
      <point x="201" y="131"/>
      <point x="201" y="186" type="curve" smooth="yes"/>
      <point x="201" y="191"/>
      <point x="201" y="195"/>
      <point x="202" y="203" type="curve"/>
      <point x="496" y="214"/>
      <point x="550" y="303"/>
      <point x="550" y="386" type="curve" smooth="yes"/>
      <point x="550" y="481"/>
      <point x="464" y="528"/>
      <point x="360" y="528" type="curve" smooth="yes"/>
      <point x="177" y="528"/>
      <point x="56" y="400"/>
      <point x="56" y="208" type="curve" smooth="yes"/>
      <point x="56" y="71"/>
      <point x="129" y="-12"/>
    </contour>
    <contour>
      <point x="345" y="425" type="curve" smooth="yes"/>
      <point x="389" y="425"/>
      <point x="409" y="406"/>
      <point x="409" y="373" type="curve" smooth="yes"/>
      <point x="409" y="340"/>
      <point x="397" y="297"/>
      <point x="212" y="287" type="curve"/>
      <point x="215" y="301" type="line" smooth="yes"/>
      <point x="234" y="390"/>
      <point x="282" y="425"/>
    </contour>
    <contour>
      <point x="294" y="0" type="move" name="bottom"/>
    </contour>
    <contour>
      <point x="409" y="0" type="move" name="bottomright"/>
    </contour>
    <contour>
      <point x="343" y="516" type="move" name="top"/>
    </contour>
  </outline>
</glyph>
<glyph name="f" format="1">
  <advance width="600"/>
  <unicode hex="0066"/>
  <outline>
    <contour>
      <point x="173" y="-212" type="curve" smooth="yes" name="hr00"/>
      <point x="257" y="-212"/>
      <point x="315" y="-165"/>
      <point x="334" y="-53" type="curve" smooth="yes"/>
      <point x="410" y="402" type="line"/>
      <point x="597" y="402" type="line"/>
      <point x="616" y="516" type="line"/>
      <point x="430" y="516" type="line"/>
      <point x="448" y="626" type="line"/>
      <point x="634" y="626" type="line"/>
      <point x="653" y="740" type="line"/>
      <point x="475" y="740" type="line" smooth="yes"/>
      <point x="368" y="740"/>
      <point x="311" y="680"/>
      <point x="297" y="594" type="curve" smooth="yes"/>
      <point x="284" y="516" type="line"/>
      <point x="121" y="516" type="line"/>
      <point x="102" y="402" type="line"/>
      <point x="265" y="402" type="line"/>
      <point x="183" y="-92" type="line"/>
      <point x="171" y="-97" type="line"/>
      <point x="68" y="39" type="line"/>
      <point x="-32" y="-30" type="line"/>
      <point x="9" y="-89" type="line" smooth="yes"/>
      <point x="61" y="-163"/>
      <point x="100" y="-212"/>
    </contour>
  </outline>
</glyph>
<glyph name="g" format="1">
  <advance width="600"/>
  <unicode hex="0067"/>
  <outline>
    <contour>
      <point x="224" y="-212" type="curve" smooth="yes"/>
      <point x="377" y="-212"/>
      <point x="473" y="-131"/>
      <point x="501" y="36" type="curve" smooth="yes"/>
      <point x="581" y="516" type="line"/>
      <point x="435" y="516" type="line"/>
      <point x="419" y="420" type="line"/>
      <point x="411" y="420" type="line"/>
      <point x="397" y="488"/>
      <point x="358" y="528"/>
      <point x="275" y="528" type="curve" smooth="yes" name="hr01"/>
      <point x="130" y="528"/>
      <point x="41" y="396"/>
      <point x="41" y="208" type="curve" smooth="yes"/>
      <point x="41" y="93"/>
      <point x="85" y="8"/>
      <point x="196" y="8" type="curve" smooth="yes"/>
      <point x="285" y="8"/>
      <point x="330" y="64"/>
      <point x="368" y="143" type="curve"/>
      <point x="374" y="143" type="line"/>
      <point x="359" y="54" type="line" smooth="yes"/>
      <point x="338" y="-72"/>
      <point x="294" y="-99"/>
      <point x="220" y="-99" type="curve" smooth="yes"/>
      <point x="174" y="-99"/>
      <point x="132" y="-85"/>
      <point x="100" y="-46" type="curve"/>
      <point x="13" y="-136" type="line"/>
      <point x="65" y="-197"/>
      <point x="128" y="-212"/>
    </contour>
    <contour>
      <point x="260" y="122" type="curve" smooth="yes"/>
      <point x="210" y="122"/>
      <point x="191" y="158"/>
      <point x="191" y="202" type="curve" smooth="yes"/>
      <point x="191" y="223"/>
      <point x="193" y="239"/>
      <point x="195" y="251" type="curve" smooth="yes"/>
      <point x="202" y="293" type="line" smooth="yes"/>
      <point x="214" y="365"/>
      <point x="251" y="415"/>
      <point x="325" y="415" type="curve" smooth="yes"/>
      <point x="390" y="415"/>
      <point x="413" y="381"/>
      <point x="405" y="333" type="curve" smooth="yes"/>
      <point x="394" y="266" type="line" smooth="yes"/>
      <point x="386" y="218"/>
      <point x="361" y="187"/>
      <point x="345" y="168" type="curve" smooth="yes"/>
      <point x="321" y="140"/>
      <point x="296" y="122"/>
    </contour>
    <contour>
      <point x="331" y="516" type="move" name="top"/>
    </contour>
  </outline>
</glyph>
<glyph name="i" format="1">
  <advance width="600"/>
  <unicode hex="0069"/>
  <outline>
    <contour>
      <point x="339" y="584" type="curve" smooth="yes"/>
      <point x="399" y="584"/>
      <point x="426" y="608"/>
      <point x="433" y="650" type="curve" smooth="yes"/>
      <point x="437" y="674"/>
      <point x="438" y="683"/>
      <point x="438" y="690" type="curve" smooth="yes"/>
      <point x="438" y="725"/>
      <point x="416" y="751"/>
      <point x="356" y="751" type="curve" smooth="yes"/>
      <point x="296" y="751"/>
      <point x="269" y="727"/>
      <point x="262" y="685" type="curve" smooth="yes"/>
      <point x="258" y="661"/>
      <point x="257" y="652"/>
      <point x="257" y="645" type="curve" smooth="yes"/>
      <point x="257" y="610"/>
      <point x="279" y="584"/>
    </contour>
    <contour>
      <point x="298" y="-12" type="curve" smooth="yes"/>
      <point x="367" y="-12"/>
      <point x="423" y="27"/>
      <point x="490" y="103" type="curve" smooth="yes"/>
      <point x="551" y="173" type="line"/>
      <point x="471" y="244" type="line"/>
      <point x="331" y="101" type="line"/>
      <point x="314" y="106" type="line" name="hr01"/>
      <point x="391" y="516" type="line"/>
      <point x="87" y="516" type="line"/>
      <point x="68" y="402" type="line"/>
      <point x="224" y="402" type="line"/>
      <point x="184" y="188" type="line" smooth="yes"/>
      <point x="176" y="147"/>
      <point x="174" y="130"/>
      <point x="174" y="108" type="curve" smooth="yes"/>
      <point x="174" y="35"/>
      <point x="216" y="-12"/>
    </contour>
    <contour>
      <point x="296" y="0" type="move" name="bottom"/>
    </contour>
    <contour>
      <point x="466" y="0" type="move" name="bottomright"/>
    </contour>
  </outline>
</glyph>
<glyph name="j" format="1">
  <advance width="600"/>
  <unicode hex="006A"/>
  <outline>
    <contour>
      <point x="216" y="-212" type="curve" smooth="yes" name="hr00"/>
      <point x="312" y="-212"/>
      <point x="365" y="-162"/>
      <point x="386" y="-37" type="curve" smooth="yes"/>
      <point x="478" y="516" type="line"/>
      <point x="143" y="516" type="line"/>
      <point x="124" y="402" type="line"/>
      <point x="313" y="402" type="line"/>
      <point x="230" y="-96" type="line"/>
      <point x="217" y="-101" type="line"/>
      <point x="104" y="54" type="line"/>
      <point x="4" y="-15" type="line"/>
      <point x="36" y="-65" type="line" smooth="yes"/>
      <point x="97" y="-160"/>
      <point x="137" y="-212"/>
    </contour>
    <contour>
      <point x="422" y="584" type="curve" smooth="yes"/>
      <point x="482" y="584"/>
      <point x="509" y="608"/>
      <point x="516" y="650" type="curve" smooth="yes"/>
      <point x="520" y="674"/>
      <point x="521" y="683"/>
      <point x="521" y="690" type="curve" smooth="yes"/>
      <point x="521" y="725"/>
      <point x="499" y="751"/>
      <point x="439" y="751" type="curve" smooth="yes"/>
      <point x="379" y="751"/>
      <point x="352" y="727"/>
      <point x="345" y="685" type="curve" smooth="yes"/>
      <point x="341" y="661"/>
      <point x="340" y="652"/>
      <point x="340" y="645" type="curve" smooth="yes"/>
      <point x="340" y="610"/>
      <point x="362" y="584"/>
    </contour>
  </outline>
</glyph>
<glyph name="k" format="1">
  <advance width="600"/>
  <unicode hex="006B"/>
  <outline>
    <contour>
      <point x="24" y="0" type="line"/>
      <point x="170" y="0" type="line"/>
      <point x="215" y="269" type="line" smooth="yes"/>
      <point x="223" y="317"/>
      <point x="241" y="346"/>
      <point x="261" y="371" type="curve" smooth="yes"/>
      <point x="291" y="409"/>
      <point x="316" y="419"/>
      <point x="341" y="419" type="curve" smooth="yes"/>
      <point x="384" y="419"/>
      <point x="408" y="395"/>
      <point x="408" y="361" type="curve" smooth="yes"/>
      <point x="408" y="297"/>
      <point x="344" y="262"/>
      <point x="225" y="227" type="curve"/>
      <point x="275" y="90" type="line" smooth="yes"/>
      <point x="298" y="26"/>
      <point x="331" y="-12"/>
      <point x="394" y="-12" type="curve" smooth="yes" name="hr01"/>
      <point x="447" y="-12"/>
      <point x="491" y="14"/>
      <point x="534" y="60" type="curve" smooth="yes"/>
      <point x="586" y="116" type="line"/>
      <point x="516" y="185" type="line"/>
      <point x="434" y="105" type="line"/>
      <point x="419" y="108" type="line"/>
      <point x="377" y="218" type="line"/>
      <point x="492" y="253"/>
      <point x="554" y="311"/>
      <point x="554" y="406" type="curve" smooth="yes"/>
      <point x="554" y="474"/>
      <point x="505" y="528"/>
      <point x="420" y="528" type="curve" smooth="yes"/>
      <point x="332" y="528"/>
      <point x="277" y="470"/>
      <point x="242" y="393" type="curve"/>
      <point x="236" y="393" type="line"/>
      <point x="293" y="740" type="line" name="hr02"/>
      <point x="147" y="740" type="line"/>
    </contour>
    <contour>
      <point x="248" y="0" type="move" name="bottom"/>
    </contour>
  </outline>
</glyph>
<glyph name="m" format="1">
  <advance width="600"/>
  <unicode hex="006D"/>
  <outline>
    <contour>
      <point x="106" y="0" type="line"/>
      <point x="160" y="324" type="line" smooth="yes"/>
      <point x="163" y="342"/>
      <point x="170" y="366"/>
      <point x="184" y="389" type="curve" smooth="yes"/>
      <point x="200" y="415"/>
      <point x="215" y="421"/>
      <point x="230" y="421" type="curve" smooth="yes"/>
      <point x="249" y="421"/>
      <point x="259" y="408"/>
      <point x="259" y="383" type="curve" smooth="yes"/>
      <point x="259" y="369"/>
      <point x="257" y="353"/>
      <point x="255" y="341" type="curve" smooth="yes"/>
      <point x="198" y="0" type="line"/>
      <point x="316" y="0" type="line"/>
      <point x="368" y="312" type="line" smooth="yes"/>
      <point x="374" y="348"/>
      <point x="381" y="369"/>
      <point x="393" y="389" type="curve" smooth="yes"/>
      <point x="408" y="414"/>
      <point x="423" y="421"/>
      <point x="440" y="421" type="curve" smooth="yes"/>
      <point x="458" y="421"/>
      <point x="469" y="406"/>
      <point x="469" y="382" type="curve" smooth="yes"/>
      <point x="469" y="369"/>
      <point x="467" y="353"/>
      <point x="465" y="341" type="curve" smooth="yes"/>
      <point x="408" y="0" type="line"/>
      <point x="526" y="0" type="line"/>
      <point x="585" y="356" type="line" smooth="yes"/>
      <point x="589" y="380"/>
      <point x="592" y="409"/>
      <point x="592" y="432" type="curve" smooth="yes"/>
      <point x="592" y="495"/>
      <point x="563" y="528"/>
      <point x="504" y="528" type="curve" smooth="yes"/>
      <point x="441" y="528"/>
      <point x="405" y="484"/>
      <point x="380" y="426" type="curve"/>
      <point x="375" y="426" type="line"/>
      <point x="382" y="494"/>
      <point x="350" y="528"/>
      <point x="297" y="528" type="curve" smooth="yes"/>
      <point x="243" y="528"/>
      <point x="206" y="486"/>
      <point x="183" y="426" type="curve"/>
      <point x="177" y="426" type="line"/>
      <point x="192" y="516" type="line" name="hr01"/>
      <point x="74" y="516" type="line"/>
      <point x="-12" y="0" type="line"/>
    </contour>
    <contour>
      <point x="257" y="0" type="move" name="bottom"/>
    </contour>
    <contour>
      <point x="355" y="516" type="move" name="top"/>
    </contour>
  </outline>
</glyph>
<glyph name="n" format="1">
  <advance width="600"/>
  <unicode hex="006E"/>
  <outline>
    <contour>
      <point x="171" y="0" type="line"/>
      <point x="216" y="269" type="line" smooth="yes"/>
      <point x="223" y="311"/>
      <point x="248" y="349"/>
      <point x="263" y="369" type="curve" smooth="yes"/>
      <point x="286" y="399"/>
      <point x="310" y="416"/>
      <point x="344" y="416" type="curve" smooth="yes"/>
      <point x="389" y="416"/>
      <point x="404" y="382"/>
      <point x="404" y="355" type="curve" smooth="yes"/>
      <point x="404" y="330"/>
      <point x="400" y="311"/>
      <point x="397" y="293" type="curve" smooth="yes"/>
      <point x="348" y="0" type="line"/>
      <point x="494" y="0" type="line"/>
      <point x="540" y="275" type="line" smooth="yes"/>
      <point x="548" y="323"/>
      <point x="551" y="350"/>
      <point x="551" y="379" type="curve" smooth="yes"/>
      <point x="551" y="459"/>
      <point x="511" y="528"/>
      <point x="410" y="528" type="curve" smooth="yes"/>
      <point x="328" y="528"/>
      <point x="281" y="477"/>
      <point x="242" y="393" type="curve"/>
      <point x="237" y="393" type="line"/>
      <point x="257" y="516" type="line" name="hr01"/>
      <point x="111" y="516" type="line"/>
      <point x="25" y="0" type="line"/>
    </contour>
    <contour>
      <point x="261" y="0" type="move" name="bottom"/>
    </contour>
    <contour>
      <point x="332" y="516" type="move" name="top"/>
    </contour>
  </outline>
</glyph>
<glyph name="o" format="1">
  <advance width="600"/>
  <unicode hex="006F"/>
  <outline>
    <contour>
      <point x="265" y="-12" type="curve" smooth="yes" name="hr00"/>
      <point x="438" y="-12"/>
      <point x="557" y="109"/>
      <point x="557" y="306" type="curve" smooth="yes"/>
      <point x="557" y="442"/>
      <point x="475" y="528"/>
      <point x="335" y="528" type="curve" smooth="yes"/>
      <point x="162" y="528"/>
      <point x="43" y="407"/>
      <point x="43" y="210" type="curve" smooth="yes"/>
      <point x="43" y="74"/>
      <point x="125" y="-12"/>
    </contour>
    <contour>
      <point x="276" y="97" type="curve" smooth="yes"/>
      <point x="222" y="97"/>
      <point x="188" y="127"/>
      <point x="188" y="188" type="curve" smooth="yes"/>
      <point x="188" y="200"/>
      <point x="191" y="217"/>
      <point x="193" y="229" type="curve" smooth="yes"/>
      <point x="206" y="307" type="line" smooth="yes"/>
      <point x="218" y="379"/>
      <point x="260" y="419"/>
      <point x="324" y="419" type="curve" smooth="yes"/>
      <point x="378" y="419"/>
      <point x="412" y="389"/>
      <point x="412" y="328" type="curve" smooth="yes"/>
      <point x="412" y="316"/>
      <point x="409" y="299"/>
      <point x="407" y="287" type="curve" smooth="yes"/>
      <point x="394" y="209" type="line" smooth="yes"/>
      <point x="382" y="137"/>
      <point x="340" y="97"/>
    </contour>
    <contour>
      <point x="259" y="0" type="move" name="bottom"/>
    </contour>
    <contour>
      <point x="343" y="516" type="move" name="top"/>
    </contour>
  </outline>
</glyph>
<glyph name="r" format="1">
  <advance width="600"/>
  <unicode hex="0072"/>
  <outline>
    <contour>
      <point x="292" y="0" type="line"/>
      <point x="331" y="236" type="line" smooth="yes"/>
      <point x="337" y="272"/>
      <point x="359" y="309"/>
      <point x="372" y="325" type="curve" smooth="yes"/>
      <point x="396" y="355"/>
      <point x="426" y="370"/>
      <point x="480" y="370" type="curve" smooth="yes"/>
      <point x="571" y="370" type="line"/>
      <point x="597" y="516" type="line"/>
      <point x="563" y="516" type="line" smooth="yes"/>
      <point x="462" y="516"/>
      <point x="400" y="458"/>
      <point x="357" y="360" type="curve"/>
      <point x="351" y="360" type="line"/>
      <point x="378" y="516" type="line"/>
      <point x="114" y="516" type="line"/>
      <point x="95" y="402" type="line" name="hr01"/>
      <point x="213" y="402" type="line"/>
      <point x="146" y="0" type="line"/>
    </contour>
    <contour>
      <point x="217" y="0" type="move" name="bottom"/>
    </contour>
    <contour>
      <point x="356" y="516" type="move" name="top"/>
    </contour>
  </outline>
</glyph>
<glyph name="s" format="1">
  <advance width="600"/>
  <unicode hex="0073"/>
  <outline>
    <contour>
      <point x="258" y="-12" type="curve" smooth="yes" name="hr00"/>
      <point x="412" y="-12"/>
      <point x="511" y="56"/>
      <point x="511" y="170" type="curve" smooth="yes"/>
      <point x="511" y="254"/>
      <point x="458" y="290"/>
      <point x="372" y="309" type="curve" smooth="yes"/>
      <point x="295" y="326" type="line" smooth="yes"/>
      <point x="263" y="333"/>
      <point x="244" y="341"/>
      <point x="244" y="369" type="curve" smooth="yes"/>
      <point x="244" y="406"/>
      <point x="278" y="425"/>
      <point x="330" y="425" type="curve" smooth="yes"/>
      <point x="388" y="425"/>
      <point x="436" y="402"/>
      <point x="459" y="373" type="curve"/>
      <point x="539" y="455" type="line"/>
      <point x="504" y="500"/>
      <point x="426" y="528"/>
      <point x="334" y="528" type="curve"/>
      <point x="200" y="528"/>
      <point x="100" y="466"/>
      <point x="100" y="350" type="curve" smooth="yes"/>
      <point x="100" y="259"/>
      <point x="161" y="226"/>
      <point x="239" y="209" type="curve" smooth="yes"/>
      <point x="313" y="193" type="line" smooth="yes"/>
      <point x="344" y="186"/>
      <point x="366" y="176"/>
      <point x="366" y="148" type="curve" smooth="yes"/>
      <point x="366" y="111"/>
      <point x="328" y="91"/>
      <point x="268" y="91" type="curve" smooth="yes"/>
      <point x="207" y="91"/>
      <point x="152" y="112"/>
      <point x="123" y="153" type="curve"/>
      <point x="41" y="72" type="line"/>
      <point x="76" y="18"/>
      <point x="155" y="-12"/>
    </contour>
    <contour>
      <point x="263" y="0" type="move" name="bottom"/>
    </contour>
    <contour>
      <point x="335" y="516" type="move" name="top"/>
    </contour>
  </outline>
</glyph>
<glyph name="t" format="1">
  <advance width="600"/>
  <unicode hex="0074"/>
  <outline>
    <contour>
      <point x="278" y="-12" type="curve" smooth="yes" name="hr00"/>
      <point x="349" y="-12"/>
      <point x="397" y="23"/>
      <point x="482" y="96" type="curve" smooth="yes"/>
      <point x="542" y="148" type="line"/>
      <point x="470" y="230" type="line"/>
      <point x="314" y="107" type="line"/>
      <point x="294" y="114" type="line"/>
      <point x="342" y="402" type="line"/>
      <point x="544" y="402" type="line"/>
      <point x="563" y="516" type="line"/>
      <point x="361" y="516" type="line"/>
      <point x="391" y="698" type="line"/>
      <point x="255" y="698" type="line"/>
      <point x="235" y="576" type="line" smooth="yes"/>
      <point x="228" y="531"/>
      <point x="208" y="516"/>
      <point x="165" y="516" type="curve" smooth="yes"/>
      <point x="82" y="516" type="line"/>
      <point x="63" y="402" type="line"/>
      <point x="195" y="402" type="line"/>
      <point x="158" y="182" type="line" smooth="yes"/>
      <point x="153" y="152"/>
      <point x="151" y="134"/>
      <point x="151" y="116" type="curve" smooth="yes"/>
      <point x="151" y="39"/>
      <point x="190" y="-12"/>
    </contour>
    <contour>
      <point x="281" y="0" type="move" name="bottom"/>
    </contour>
    <contour>
      <point x="466" y="780" type="move" name="topright"/>
    </contour>
  </outline>
</glyph>
<glyph name="v" format="1">
  <advance width="600"/>
  <unicode hex="0076"/>
  <outline>
    <contour>
      <point x="55" y="516" type="line" name="hr00"/>
      <point x="36" y="402" type="line"/>
      <point x="125" y="402" type="line"/>
      <point x="90" y="172" type="line" smooth="yes"/>
      <point x="86" y="147"/>
      <point x="84" y="133"/>
      <point x="84" y="111" type="curve" smooth="yes"/>
      <point x="84" y="36"/>
      <point x="126" y="-12"/>
      <point x="211" y="-12" type="curve" smooth="yes"/>
      <point x="385" y="-12"/>
      <point x="553" y="146"/>
      <point x="553" y="350" type="curve" smooth="yes"/>
      <point x="553" y="423"/>
      <point x="536" y="486"/>
      <point x="502" y="528" type="curve"/>
      <point x="372" y="480" type="line"/>
      <point x="393" y="441"/>
      <point x="406" y="395"/>
      <point x="406" y="350" type="curve" smooth="yes"/>
      <point x="406" y="242"/>
      <point x="360" y="133"/>
      <point x="233" y="88" type="curve"/>
      <point x="221" y="96" type="line"/>
      <point x="286" y="516" type="line"/>
    </contour>
    <contour>
      <point x="238" y="0" type="move" name="bottom"/>
    </contour>
    <contour>
      <point x="339" y="516" type="move" name="top"/>
    </contour>
  </outline>
</glyph>
<glyph name="w" format="1">
  <advance width="600"/>
  <unicode hex="0077"/>
  <outline>
    <contour>
      <point x="108" y="-12" type="curve" smooth="yes" name="hr00"/>
      <point x="167" y="-12"/>
      <point x="211" y="25"/>
      <point x="235" y="98" type="curve"/>
      <point x="242" y="98" type="line"/>
      <point x="239" y="39"/>
      <point x="265" y="-12"/>
      <point x="337" y="-12" type="curve" smooth="yes"/>
      <point x="392" y="-12"/>
      <point x="448" y="18"/>
      <point x="491" y="72" type="curve" smooth="yes"/>
      <point x="545" y="140"/>
      <point x="579" y="246"/>
      <point x="579" y="365" type="curve" smooth="yes"/>
      <point x="579" y="433"/>
      <point x="565" y="487"/>
      <point x="545" y="524" type="curve"/>
      <point x="443" y="494" type="line"/>
      <point x="455" y="461"/>
      <point x="461" y="413"/>
      <point x="461" y="366" type="curve" smooth="yes"/>
      <point x="461" y="229"/>
      <point x="412" y="103"/>
      <point x="363" y="103" type="curve" smooth="yes"/>
      <point x="341" y="103"/>
      <point x="333" y="120"/>
      <point x="333" y="139" type="curve" smooth="yes"/>
      <point x="333" y="148"/>
      <point x="336" y="171"/>
      <point x="338" y="182" type="curve" smooth="yes"/>
      <point x="392" y="516" type="line"/>
      <point x="279" y="516" type="line"/>
      <point x="231" y="206" type="line" smooth="yes"/>
      <point x="228" y="183"/>
      <point x="220" y="160"/>
      <point x="211" y="146" type="curve" smooth="yes"/>
      <point x="196" y="122"/>
      <point x="180" y="107"/>
      <point x="160" y="107" type="curve" smooth="yes"/>
      <point x="138" y="107"/>
      <point x="129" y="121"/>
      <point x="129" y="142" type="curve" smooth="yes"/>
      <point x="129" y="154"/>
      <point x="131" y="176"/>
      <point x="133" y="187" type="curve" smooth="yes"/>
      <point x="194" y="516" type="line"/>
      <point x="76" y="516" type="line"/>
      <point x="22" y="192" type="line" smooth="yes"/>
      <point x="17" y="160"/>
      <point x="13" y="115"/>
      <point x="13" y="97" type="curve" smooth="yes"/>
      <point x="13" y="32"/>
      <point x="42" y="-12"/>
    </contour>
    <contour>
      <point x="225" y="0" type="move" name="bottom"/>
    </contour>
    <contour>
      <point x="336" y="516" type="move" name="top"/>
    </contour>
  </outline>
</glyph>
<glyph name="y" format="1">
  <advance width="600"/>
  <unicode hex="0079"/>
  <outline>
    <contour>
      <point x="217" y="-212" type="curve" smooth="yes" name="hr00"/>
      <point x="370" y="-212"/>
      <point x="466" y="-131"/>
      <point x="494" y="36" type="curve" smooth="yes"/>
      <point x="574" y="516" type="line"/>
      <point x="428" y="516" type="line"/>
      <point x="386" y="264" type="line" smooth="yes"/>
      <point x="379" y="222"/>
      <point x="354" y="184"/>
      <point x="339" y="164" type="curve" smooth="yes"/>
      <point x="316" y="134"/>
      <point x="292" y="117"/>
      <point x="258" y="117" type="curve" smooth="yes"/>
      <point x="213" y="117"/>
      <point x="198" y="151"/>
      <point x="198" y="178" type="curve" smooth="yes"/>
      <point x="198" y="203"/>
      <point x="202" y="223"/>
      <point x="205" y="241" type="curve" smooth="yes"/>
      <point x="251" y="516" type="line"/>
      <point x="105" y="516" type="line"/>
      <point x="62" y="258" type="line" smooth="yes"/>
      <point x="54" y="210"/>
      <point x="51" y="183"/>
      <point x="51" y="154" type="curve" smooth="yes"/>
      <point x="51" y="74"/>
      <point x="91" y="5"/>
      <point x="192" y="5" type="curve" smooth="yes"/>
      <point x="274" y="5"/>
      <point x="321" y="56"/>
      <point x="360" y="140" type="curve"/>
      <point x="365" y="140" type="line"/>
      <point x="351" y="54" type="line" smooth="yes"/>
      <point x="331" y="-71"/>
      <point x="287" y="-99"/>
      <point x="213" y="-99" type="curve" smooth="yes"/>
      <point x="167" y="-99"/>
      <point x="125" y="-85"/>
      <point x="93" y="-46" type="curve"/>
      <point x="6" y="-136" type="line"/>
      <point x="58" y="-197"/>
      <point x="121" y="-212"/>
    </contour>
    <contour>
      <point x="512" y="0" type="move" name="bottom"/>
    </contour>
    <contour>
      <point x="349" y="516" type="move" name="top"/>
    </contour>
  </outline>
</glyph>
<glyph name="z" format="1">
  <advance width="600"/>
  <unicode hex="007A"/>
  <outline>
    <contour>
      <point x="414" y="-12" type="curve" smooth="yes"/>
      <point x="495" y="-12"/>
      <point x="544" y="49"/>
      <point x="544" y="114" type="curve" smooth="yes"/>
      <point x="544" y="144"/>
      <point x="536" y="173"/>
      <point x="514" y="212" type="curve" smooth="yes"/>
      <point x="499" y="239" type="line"/>
      <point x="414" y="202" type="line"/>
      <point x="444" y="114" type="line"/>
      <point x="433" y="101" type="line"/>
      <point x="237" y="138" type="line"/>
      <point x="561" y="396" type="line"/>
      <point x="581" y="516" type="line"/>
      <point x="456" y="516" type="line"/>
      <point x="444" y="443" type="line"/>
      <point x="438" y="438" type="line"/>
      <point x="436" y="440" type="line" smooth="yes"/>
      <point x="367" y="509"/>
      <point x="300" y="528"/>
      <point x="238" y="528" type="curve" smooth="yes" name="hr01"/>
      <point x="139" y="528"/>
      <point x="75" y="463"/>
      <point x="75" y="348" type="curve" smooth="yes"/>
      <point x="75" y="339" type="line"/>
      <point x="183" y="339" type="line"/>
      <point x="183" y="397"/>
      <point x="213" y="415"/>
      <point x="247" y="415" type="curve" smooth="yes"/>
      <point x="290" y="415"/>
      <point x="320" y="404"/>
      <point x="358" y="374" type="curve"/>
      <point x="38" y="120" type="line"/>
      <point x="18" y="0" type="line"/>
      <point x="143" y="0" type="line"/>
      <point x="155" y="73" type="line"/>
      <point x="159" y="76" type="line"/>
      <point x="260" y="24" type="line" smooth="yes"/>
      <point x="314" y="-4"/>
      <point x="366" y="-12"/>
    </contour>
    <contour>
      <point x="287" y="0" type="move" name="bottom"/>
    </contour>
    <contour>
      <point x="320" y="516" type="move" name="top"/>
    </contour>
  </outline>
</glyph>
<glyph name="braceleft" format="1">
  <advance width="600"/>
  <unicode hex="007B"/>
  <outline>
    <contour>
      <point x="444" y="-138" type="line"/>
      <point x="460" y="-40" type="line"/>
      <point x="277" y="-40" type="line"/>
      <point x="285" y="9" type="line" smooth="yes"/>
      <point x="293" y="59"/>
      <point x="316" y="81"/>
      <point x="341" y="107" type="curve" smooth="yes"/>
      <point x="372" y="140"/>
      <point x="406" y="173"/>
      <point x="406" y="222" type="curve" smooth="yes"/>
      <point x="406" y="269"/>
      <point x="373" y="299"/>
      <point x="304" y="307" type="curve"/>
      <point x="306" y="315" type="line"/>
      <point x="397" y="325"/>
      <point x="440" y="367"/>
      <point x="440" y="429" type="curve" smooth="yes" name="hr01"/>
      <point x="440" y="463"/>
      <point x="424" y="491"/>
      <point x="409" y="515" type="curve" smooth="yes"/>
      <point x="393" y="541"/>
      <point x="384" y="556"/>
      <point x="384" y="589" type="curve" smooth="yes" name="hr02"/>
      <point x="384" y="599"/>
      <point x="386" y="614"/>
      <point x="394" y="662" type="curve"/>
      <point x="577" y="662" type="line"/>
      <point x="594" y="760" type="line"/>
      <point x="417" y="760" type="line" smooth="yes"/>
      <point x="328" y="760"/>
      <point x="285" y="716"/>
      <point x="275" y="653" type="curve" smooth="yes"/>
      <point x="273" y="641"/>
      <point x="265" y="593"/>
      <point x="265" y="579" type="curve" smooth="yes"/>
      <point x="265" y="534"/>
      <point x="283" y="508"/>
      <point x="302" y="480" type="curve" smooth="yes"/>
      <point x="316" y="459"/>
      <point x="322" y="441"/>
      <point x="322" y="425" type="curve" smooth="yes" name="hr03"/>
      <point x="322" y="383"/>
      <point x="280" y="360"/>
      <point x="204" y="360" type="curve" smooth="yes"/>
      <point x="115" y="360" type="line"/>
      <point x="99" y="262" type="line"/>
      <point x="188" y="262" type="line" smooth="yes"/>
      <point x="253" y="262"/>
      <point x="287" y="244"/>
      <point x="287" y="213" type="curve" smooth="yes" name="hr04"/>
      <point x="287" y="193"/>
      <point x="279" y="176"/>
      <point x="245" y="142" type="curve" smooth="yes"/>
      <point x="217" y="114"/>
      <point x="182" y="82"/>
      <point x="169" y="15" type="curve" smooth="yes"/>
      <point x="160" y="-31"/>
      <point x="159" y="-47"/>
      <point x="159" y="-55" type="curve" smooth="yes"/>
      <point x="159" y="-104"/>
      <point x="190" y="-138"/>
      <point x="268" y="-138" type="curve" smooth="yes"/>
    </contour>
  </outline>
</glyph>
<glyph name="bar" format="1">
  <advance width="600"/>
  <unicode hex="007C"/>
  <outline>
    <contour>
      <point x="297" y="-138" type="line" name="hr00"/>
      <point x="447" y="760" type="line"/>
      <point x="323" y="760" type="line"/>
      <point x="173" y="-138" type="line"/>
    </contour>
  </outline>
</glyph>
<glyph name="braceright" format="1">
  <advance width="600"/>
  <unicode hex="007D"/>
  <outline>
    <contour>
      <point x="174" y="760" type="line" name="hr00"/>
      <point x="158" y="662" type="line"/>
      <point x="341" y="662" type="line"/>
      <point x="333" y="613" type="line" smooth="yes"/>
      <point x="325" y="563"/>
      <point x="302" y="541"/>
      <point x="277" y="515" type="curve" smooth="yes"/>
      <point x="246" y="482"/>
      <point x="212" y="449"/>
      <point x="212" y="400" type="curve" smooth="yes"/>
      <point x="212" y="353"/>
      <point x="245" y="323"/>
      <point x="314" y="315" type="curve"/>
      <point x="312" y="307" type="line"/>
      <point x="221" y="297"/>
      <point x="178" y="255"/>
      <point x="178" y="193" type="curve" smooth="yes"/>
      <point x="178" y="159"/>
      <point x="194" y="131"/>
      <point x="209" y="107" type="curve" smooth="yes"/>
      <point x="225" y="81"/>
      <point x="234" y="66"/>
      <point x="234" y="33" type="curve" smooth="yes"/>
      <point x="234" y="23"/>
      <point x="232" y="8"/>
      <point x="224" y="-40" type="curve"/>
      <point x="41" y="-40" type="line"/>
      <point x="24" y="-138" type="line"/>
      <point x="201" y="-138" type="line" smooth="yes"/>
      <point x="290" y="-138"/>
      <point x="333" y="-94"/>
      <point x="343" y="-31" type="curve" smooth="yes"/>
      <point x="345" y="-19"/>
      <point x="353" y="29"/>
      <point x="353" y="43" type="curve" smooth="yes"/>
      <point x="353" y="88"/>
      <point x="335" y="114"/>
      <point x="316" y="142" type="curve" smooth="yes"/>
      <point x="302" y="163"/>
      <point x="296" y="181"/>
      <point x="296" y="197" type="curve" smooth="yes"/>
      <point x="296" y="239"/>
      <point x="338" y="262"/>
      <point x="414" y="262" type="curve" smooth="yes"/>
      <point x="503" y="262" type="line"/>
      <point x="519" y="360" type="line"/>
      <point x="430" y="360" type="line" smooth="yes"/>
      <point x="365" y="360"/>
      <point x="331" y="378"/>
      <point x="331" y="409" type="curve" smooth="yes"/>
      <point x="331" y="429"/>
      <point x="339" y="446"/>
      <point x="373" y="480" type="curve" smooth="yes"/>
      <point x="401" y="508"/>
      <point x="436" y="540"/>
      <point x="449" y="607" type="curve" smooth="yes"/>
      <point x="458" y="653"/>
      <point x="459" y="669"/>
      <point x="459" y="677" type="curve" smooth="yes"/>
      <point x="459" y="726"/>
      <point x="428" y="760"/>
      <point x="350" y="760" type="curve" smooth="yes"/>
    </contour>
  </outline>
</glyph>
<glyph name="asciitilde" format="1">
  <advance width="600"/>
  <unicode hex="007E"/>
  <outline>
    <contour>
      <point x="394" y="173" type="curve" smooth="yes" name="hr00"/>
      <point x="493" y="173"/>
      <point x="560" y="273"/>
      <point x="588" y="403" type="curve"/>
      <point x="485" y="424" type="line"/>
      <point x="465" y="349"/>
      <point x="435" y="296"/>
      <point x="404" y="296" type="curve" smooth="yes"/>
      <point x="375" y="296"/>
      <point x="368" y="318"/>
      <point x="339" y="364" type="curve" smooth="yes"/>
      <point x="319" y="396"/>
      <point x="285" y="436"/>
      <point x="213" y="436" type="curve" smooth="yes"/>
      <point x="114" y="436"/>
      <point x="47" y="336"/>
      <point x="19" y="206" type="curve"/>
      <point x="122" y="185" type="line"/>
      <point x="142" y="260"/>
      <point x="172" y="313"/>
      <point x="203" y="313" type="curve" smooth="yes"/>
      <point x="232" y="313"/>
      <point x="239" y="291"/>
      <point x="268" y="245" type="curve" smooth="yes"/>
      <point x="288" y="213"/>
      <point x="322" y="173"/>
    </contour>
  </outline>
</glyph>
<glyph name="exclamdown" format="1">
  <advance width="600"/>
  <unicode hex="00A1"/>
  <outline>
    <contour>
      <point x="304" y="-182" type="line" name="hr00"/>
      <point x="338" y="21" type="line"/>
      <point x="326" y="274" type="line"/>
      <point x="273" y="274" type="line"/>
      <point x="177" y="21" type="line"/>
      <point x="143" y="-182" type="line"/>
    </contour>
    <contour>
      <point x="315" y="342" type="curve" smooth="yes"/>
      <point x="381" y="342"/>
      <point x="413" y="375"/>
      <point x="420" y="417" type="curve" smooth="yes"/>
      <point x="425" y="447"/>
      <point x="426" y="457"/>
      <point x="426" y="465" type="curve" smooth="yes"/>
      <point x="426" y="500"/>
      <point x="400" y="528"/>
      <point x="338" y="528" type="curve" smooth="yes"/>
      <point x="272" y="528"/>
      <point x="240" y="495"/>
      <point x="233" y="453" type="curve" smooth="yes"/>
      <point x="228" y="423"/>
      <point x="227" y="413"/>
      <point x="227" y="405" type="curve" smooth="yes"/>
      <point x="227" y="370"/>
      <point x="253" y="342"/>
    </contour>
  </outline>
</glyph>
<glyph name="cent" format="1">
  <advance width="600"/>
  <unicode hex="00A2"/>
  <outline>
    <contour>
      <point x="198" y="-114" type="line" name="hr00"/>
      <point x="310" y="-114" type="line"/>
      <point x="327" y="-9" type="line"/>
      <point x="418" y="4"/>
      <point x="474" y="56"/>
      <point x="529" y="144" type="curve"/>
      <point x="443" y="196" type="line"/>
      <point x="395" y="133"/>
      <point x="365" y="109"/>
      <point x="337" y="100" type="curve"/>
      <point x="389" y="414" type="line"/>
      <point x="419" y="404"/>
      <point x="434" y="382"/>
      <point x="444" y="353" type="curve"/>
      <point x="555" y="399" type="line"/>
      <point x="538" y="459"/>
      <point x="492" y="504"/>
      <point x="416" y="521" type="curve"/>
      <point x="434" y="630" type="line"/>
      <point x="322" y="630" type="line"/>
      <point x="305" y="526" type="line"/>
      <point x="146" y="507"/>
      <point x="57" y="369"/>
      <point x="57" y="206" type="curve" smooth="yes"/>
      <point x="57" y="90"/>
      <point x="112" y="16"/>
      <point x="216" y="-6" type="curve"/>
    </contour>
    <contour>
      <point x="197" y="194" type="curve" smooth="yes"/>
      <point x="197" y="210"/>
      <point x="198" y="224"/>
      <point x="201" y="240" type="curve" smooth="yes"/>
      <point x="211" y="302" type="line" smooth="yes"/>
      <point x="220" y="361"/>
      <point x="251" y="401"/>
      <point x="296" y="416" type="curve"/>
      <point x="244" y="105" type="line"/>
      <point x="211" y="120"/>
      <point x="197" y="152"/>
    </contour>
  </outline>
</glyph>
<glyph name="sterling" format="1">
  <advance width="600"/>
  <unicode hex="00A3"/>
  <outline>
    <contour>
      <point x="472" y="-12" type="curve" smooth="yes"/>
      <point x="539" y="-12"/>
      <point x="578" y="47"/>
      <point x="578" y="109" type="curve" smooth="yes"/>
      <point x="578" y="141"/>
      <point x="572" y="166"/>
      <point x="557" y="212" type="curve" smooth="yes"/>
      <point x="547" y="242" type="line"/>
      <point x="448" y="216" type="line"/>
      <point x="465" y="127" type="line"/>
      <point x="454" y="114" type="line"/>
      <point x="217" y="188" type="line"/>
      <point x="221" y="195" type="line"/>
      <point x="264" y="207"/>
      <point x="304" y="236"/>
      <point x="304" y="288" type="curve" smooth="yes"/>
      <point x="304" y="296" type="line"/>
      <point x="445" y="296" type="line"/>
      <point x="462" y="397" type="line"/>
      <point x="285" y="397" type="line"/>
      <point x="280" y="419"/>
      <point x="276" y="441"/>
      <point x="276" y="465" type="curve" smooth="yes" name="hr01"/>
      <point x="276" y="543"/>
      <point x="324" y="583"/>
      <point x="390" y="583" type="curve" smooth="yes"/>
      <point x="440" y="583"/>
      <point x="473" y="557"/>
      <point x="496" y="512" type="curve"/>
      <point x="610" y="583" type="line"/>
      <point x="567" y="664"/>
      <point x="496" y="710"/>
      <point x="394" y="710" type="curve" smooth="yes"/>
      <point x="249" y="710"/>
      <point x="133" y="613"/>
      <point x="133" y="473" type="curve" smooth="yes"/>
      <point x="133" y="446"/>
      <point x="137" y="419"/>
      <point x="141" y="397" type="curve"/>
      <point x="67" y="397" type="line"/>
      <point x="50" y="296" type="line"/>
      <point x="157" y="296" type="line"/>
      <point x="158" y="290"/>
      <point x="158" y="284"/>
      <point x="158" y="278" type="curve" smooth="yes" name="hr02"/>
      <point x="158" y="209"/>
      <point x="116" y="168"/>
      <point x="50" y="141" type="curve"/>
      <point x="28" y="0" type="line"/>
      <point x="153" y="0" type="line"/>
      <point x="165" y="82" type="line"/>
      <point x="317" y="24" type="line" smooth="yes"/>
      <point x="374" y="2"/>
      <point x="426" y="-12"/>
    </contour>
  </outline>
</glyph>
<glyph name="currency" format="1">
  <advance width="600"/>
  <unicode hex="00A4"/>
  <outline>
    <contour>
      <point x="286" y="107" type="curve" smooth="yes" name="hr00"/>
      <point x="318" y="107"/>
      <point x="349" y="111"/>
      <point x="376" y="119" type="curve"/>
      <point x="420" y="16" type="line"/>
      <point x="524" y="73" type="line"/>
      <point x="478" y="180" type="line"/>
      <point x="515" y="218"/>
      <point x="542" y="272"/>
      <point x="553" y="342" type="curve" smooth="yes"/>
      <point x="556" y="360"/>
      <point x="557" y="378"/>
      <point x="557" y="392" type="curve" smooth="yes"/>
      <point x="557" y="438"/>
      <point x="546" y="475"/>
      <point x="526" y="506" type="curve"/>
      <point x="613" y="621" type="line"/>
      <point x="519" y="682" type="line"/>
      <point x="438" y="576" type="line"/>
      <point x="411" y="586"/>
      <point x="381" y="591"/>
      <point x="345" y="591" type="curve" smooth="yes"/>
      <point x="313" y="591"/>
      <point x="282" y="587"/>
      <point x="255" y="579" type="curve"/>
      <point x="211" y="682" type="line"/>
      <point x="107" y="625" type="line"/>
      <point x="153" y="518" type="line"/>
      <point x="116" y="480"/>
      <point x="89" y="426"/>
      <point x="78" y="356" type="curve" smooth="yes"/>
      <point x="75" y="338"/>
      <point x="74" y="320"/>
      <point x="74" y="306" type="curve" smooth="yes"/>
      <point x="74" y="260"/>
      <point x="85" y="223"/>
      <point x="105" y="192" type="curve"/>
      <point x="18" y="77" type="line"/>
      <point x="112" y="16" type="line"/>
      <point x="193" y="122" type="line"/>
      <point x="220" y="112"/>
      <point x="250" y="107"/>
    </contour>
    <contour>
      <point x="293" y="212" type="curve" smooth="yes"/>
      <point x="245" y="212"/>
      <point x="217" y="241"/>
      <point x="217" y="292" type="curve" smooth="yes"/>
      <point x="217" y="301"/>
      <point x="218" y="312"/>
      <point x="220" y="323" type="curve" smooth="yes"/>
      <point x="229" y="377" type="line" smooth="yes"/>
      <point x="240" y="445"/>
      <point x="282" y="486"/>
      <point x="338" y="486" type="curve" smooth="yes"/>
      <point x="386" y="486"/>
      <point x="414" y="457"/>
      <point x="414" y="406" type="curve" smooth="yes"/>
      <point x="414" y="397"/>
      <point x="413" y="386"/>
      <point x="411" y="375" type="curve" smooth="yes"/>
      <point x="402" y="321" type="line" smooth="yes"/>
      <point x="391" y="253"/>
      <point x="349" y="212"/>
    </contour>
  </outline>
</glyph>
<glyph name="yen" format="1">
  <advance width="600"/>
  <unicode hex="00A5"/>
  <outline>
    <contour>
      <point x="19" y="0" type="line" name="hr00"/>
      <point x="497" y="0" type="line"/>
      <point x="516" y="112" type="line"/>
      <point x="347" y="112" type="line"/>
      <point x="363" y="212" type="line"/>
      <point x="532" y="212" type="line"/>
      <point x="551" y="324" type="line"/>
      <point x="423" y="324" type="line"/>
      <point x="673" y="698" type="line"/>
      <point x="514" y="698" type="line"/>
      <point x="322" y="391" type="line"/>
      <point x="314" y="391" type="line"/>
      <point x="225" y="698" type="line"/>
      <point x="75" y="698" type="line"/>
      <point x="201" y="324" type="line"/>
      <point x="74" y="324" type="line"/>
      <point x="55" y="212" type="line"/>
      <point x="223" y="212" type="line"/>
      <point x="207" y="112" type="line"/>
      <point x="38" y="112" type="line"/>
    </contour>
  </outline>
</glyph>
<glyph name="brokenbar" format="1">
  <advance width="600"/>
  <unicode hex="00A6"/>
  <outline>
    <contour>
      <point x="387" y="400" type="line" name="hr00"/>
      <point x="447" y="760" type="line"/>
      <point x="323" y="760" type="line"/>
      <point x="263" y="400" type="line"/>
    </contour>
    <contour>
      <point x="297" y="-138" type="line"/>
      <point x="357" y="221" type="line"/>
      <point x="233" y="221" type="line"/>
      <point x="173" y="-138" type="line"/>
    </contour>
  </outline>
</glyph>
<glyph name="section" format="1">
  <advance width="600"/>
  <unicode hex="00A7"/>
  <outline>
    <contour>
      <point x="464" y="14" type="curve" smooth="yes"/>
      <point x="464" y="62"/>
      <point x="443" y="109"/>
      <point x="395" y="145" type="curve"/>
      <point x="397" y="158" type="line"/>
      <point x="495" y="183"/>
      <point x="539" y="233"/>
      <point x="539" y="313" type="curve" smooth="yes" name="hr01"/>
      <point x="539" y="367"/>
      <point x="497" y="413"/>
      <point x="407" y="444" type="curve" smooth="yes"/>
      <point x="335" y="469" type="line" smooth="yes"/>
      <point x="271" y="491"/>
      <point x="257" y="510"/>
      <point x="257" y="539" type="curve" smooth="yes"/>
      <point x="257" y="579"/>
      <point x="302" y="605"/>
      <point x="354" y="605" type="curve" smooth="yes"/>
      <point x="404" y="605"/>
      <point x="456" y="585"/>
      <point x="485" y="550" type="curve"/>
      <point x="563" y="638" type="line"/>
      <point x="514" y="688"/>
      <point x="432" y="710"/>
      <point x="355" y="710" type="curve" smooth="yes"/>
      <point x="209" y="710"/>
      <point x="130" y="631"/>
      <point x="130" y="520" type="curve" smooth="yes"/>
      <point x="130" y="472"/>
      <point x="151" y="425"/>
      <point x="199" y="389" type="curve"/>
      <point x="197" y="376" type="line"/>
      <point x="99" y="351"/>
      <point x="55" y="301"/>
      <point x="55" y="221" type="curve" smooth="yes" name="hr02"/>
      <point x="55" y="167"/>
      <point x="97" y="121"/>
      <point x="187" y="90" type="curve" smooth="yes"/>
      <point x="259" y="65" type="line" smooth="yes"/>
      <point x="323" y="43"/>
      <point x="337" y="24"/>
      <point x="337" y="-5" type="curve" smooth="yes"/>
      <point x="337" y="-45"/>
      <point x="292" y="-71"/>
      <point x="240" y="-71" type="curve" smooth="yes"/>
      <point x="190" y="-71"/>
      <point x="138" y="-51"/>
      <point x="109" y="-16" type="curve"/>
      <point x="31" y="-104" type="line"/>
      <point x="80" y="-154"/>
      <point x="162" y="-176"/>
      <point x="239" y="-176" type="curve" smooth="yes"/>
      <point x="385" y="-176"/>
      <point x="464" y="-97"/>
    </contour>
    <contour>
      <point x="410" y="255" type="curve" smooth="yes" name="hr03"/>
      <point x="410" y="222"/>
      <point x="396" y="200"/>
      <point x="350" y="169" type="curve"/>
      <point x="343" y="172"/>
      <point x="335" y="175"/>
      <point x="328" y="177" type="curve" smooth="yes"/>
      <point x="255" y="200" type="line" smooth="yes"/>
      <point x="201" y="217"/>
      <point x="184" y="250"/>
      <point x="184" y="279" type="curve" smooth="yes"/>
      <point x="184" y="312"/>
      <point x="198" y="334"/>
      <point x="244" y="365" type="curve"/>
      <point x="251" y="362"/>
      <point x="259" y="359"/>
      <point x="266" y="357" type="curve" smooth="yes"/>
      <point x="339" y="334" type="line" smooth="yes"/>
      <point x="393" y="317"/>
      <point x="410" y="284"/>
    </contour>
  </outline>
</glyph>
<glyph name="dieresis" format="1">
  <advance width="600"/>
  <unicode hex="00A8"/>
  <outline>
    <contour>
      <point x="208" y="592" type="curve" smooth="yes" name="hr00"/>
      <point x="266" y="592"/>
      <point x="287" y="616"/>
      <point x="293" y="652" type="curve" smooth="yes"/>
      <point x="296" y="670"/>
      <point x="298" y="681"/>
      <point x="298" y="687" type="curve" smooth="yes"/>
      <point x="298" y="718"/>
      <point x="278" y="741"/>
      <point x="224" y="741" type="curve" smooth="yes"/>
      <point x="166" y="741"/>
      <point x="145" y="717"/>
      <point x="139" y="681" type="curve" smooth="yes"/>
      <point x="136" y="663"/>
      <point x="134" y="652"/>
      <point x="134" y="646" type="curve" smooth="yes"/>
      <point x="134" y="615"/>
      <point x="154" y="592"/>
    </contour>
    <contour>
      <point x="426" y="592" type="curve" smooth="yes"/>
      <point x="484" y="592"/>
      <point x="505" y="616"/>
      <point x="511" y="652" type="curve" smooth="yes"/>
      <point x="514" y="670"/>
      <point x="516" y="681"/>
      <point x="516" y="687" type="curve" smooth="yes"/>
      <point x="516" y="718"/>
      <point x="496" y="741"/>
      <point x="442" y="741" type="curve" smooth="yes"/>
      <point x="384" y="741"/>
      <point x="363" y="717"/>
      <point x="357" y="681" type="curve" smooth="yes"/>
      <point x="354" y="663"/>
      <point x="352" y="652"/>
      <point x="352" y="646" type="curve" smooth="yes"/>
      <point x="352" y="615"/>
      <point x="372" y="592"/>
    </contour>
    <contour>
      <point x="300" y="516" type="move" name="_top"/>
    </contour>
  </outline>
</glyph>
<glyph name="copyright" format="1">
  <advance width="600"/>
  <unicode hex="00A9"/>
  <outline>
    <contour>
      <point x="271" y="18" type="curve" smooth="yes" name="hr00"/>
      <point x="471" y="18"/>
      <point x="616" y="174"/>
      <point x="616" y="398" type="curve" smooth="yes"/>
      <point x="616" y="573"/>
      <point x="508" y="680"/>
      <point x="356" y="680" type="curve" smooth="yes"/>
      <point x="156" y="680"/>
      <point x="11" y="524"/>
      <point x="11" y="300" type="curve" smooth="yes"/>
      <point x="11" y="125"/>
      <point x="119" y="18"/>
    </contour>
    <contour>
      <point x="276" y="72" type="curve" smooth="yes"/>
      <point x="129" y="72"/>
      <point x="71" y="182"/>
      <point x="71" y="300" type="curve" smooth="yes"/>
      <point x="71" y="315"/>
      <point x="72" y="334"/>
      <point x="82" y="389" type="curve" smooth="yes"/>
      <point x="107" y="530"/>
      <point x="213" y="626"/>
      <point x="351" y="626" type="curve" smooth="yes"/>
      <point x="498" y="626"/>
      <point x="556" y="516"/>
      <point x="556" y="398" type="curve" smooth="yes"/>
      <point x="556" y="383"/>
      <point x="555" y="364"/>
      <point x="545" y="309" type="curve" smooth="yes"/>
      <point x="520" y="168"/>
      <point x="414" y="72"/>
    </contour>
    <contour>
      <point x="296" y="153" type="curve" smooth="yes"/>
      <point x="381" y="153"/>
      <point x="431" y="202"/>
      <point x="463" y="255" type="curve"/>
      <point x="382" y="298" type="line"/>
      <point x="363" y="269"/>
      <point x="340" y="246"/>
      <point x="305" y="246" type="curve" smooth="yes"/>
      <point x="269" y="246"/>
      <point x="250" y="268"/>
      <point x="250" y="299" type="curve" smooth="yes"/>
      <point x="250" y="307"/>
      <point x="251" y="313"/>
      <point x="252" y="321" type="curve" smooth="yes"/>
      <point x="263" y="386" type="line" smooth="yes"/>
      <point x="269" y="424"/>
      <point x="297" y="452"/>
      <point x="336" y="452" type="curve" smooth="yes"/>
      <point x="371" y="452"/>
      <point x="389" y="431"/>
      <point x="396" y="400" type="curve"/>
      <point x="486" y="441" type="line"/>
      <point x="466" y="501"/>
      <point x="426" y="545"/>
      <point x="337" y="545" type="curve" smooth="yes"/>
      <point x="218" y="545"/>
      <point x="131" y="438"/>
      <point x="131" y="319" type="curve" smooth="yes"/>
      <point x="131" y="219"/>
      <point x="196" y="153"/>
    </contour>
  </outline>
</glyph>
<glyph name="ordfeminine" format="1">
  <advance width="600"/>
  <unicode hex="00AA"/>
  <outline>
    <contour>
      <point x="462" y="341" type="line" name="hr00"/>
      <point x="500" y="569" type="line" smooth="yes"/>
      <point x="502" y="581"/>
      <point x="502" y="591"/>
      <point x="502" y="600" type="curve" smooth="yes"/>
      <point x="502" y="673"/>
      <point x="443" y="710"/>
      <point x="356" y="710" type="curve" smooth="yes"/>
      <point x="275" y="710"/>
      <point x="228" y="681"/>
      <point x="200" y="645" type="curve"/>
      <point x="248" y="590" type="line"/>
      <point x="272" y="616"/>
      <point x="297" y="635"/>
      <point x="339" y="635" type="curve" smooth="yes"/>
      <point x="376" y="635"/>
      <point x="399" y="619"/>
      <point x="399" y="588" type="curve" smooth="yes"/>
      <point x="399" y="582"/>
      <point x="398" y="575"/>
      <point x="397" y="569" type="curve" smooth="yes"/>
      <point x="394" y="551" type="line"/>
      <point x="337" y="551" type="line" smooth="yes"/>
      <point x="219" y="551"/>
      <point x="155" y="509"/>
      <point x="155" y="425" type="curve" smooth="yes"/>
      <point x="155" y="367"/>
      <point x="199" y="333"/>
      <point x="263" y="333" type="curve" smooth="yes"/>
      <point x="313" y="333"/>
      <point x="347" y="358"/>
      <point x="368" y="404" type="curve"/>
      <point x="376" y="404" type="line"/>
      <point x="366" y="341" type="line"/>
    </contour>
    <contour>
      <point x="385" y="495" type="line"/>
      <point x="378" y="452" type="line" smooth="yes"/>
      <point x="372" y="418"/>
      <point x="342" y="400"/>
      <point x="306" y="400" type="curve" smooth="yes"/>
      <point x="275" y="400"/>
      <point x="256" y="412"/>
      <point x="256" y="434" type="curve" smooth="yes"/>
      <point x="256" y="437"/>
      <point x="256" y="442"/>
      <point x="258" y="452" type="curve" smooth="yes"/>
      <point x="262" y="480"/>
      <point x="289" y="495"/>
      <point x="331" y="495" type="curve" smooth="yes"/>
    </contour>
  </outline>
</glyph>
<glyph name="logicalnot" format="1">
  <advance width="600"/>
  <unicode hex="00AC"/>
  <outline>
    <contour>
      <point x="489" y="55" type="line" name="hr00"/>
      <point x="541" y="363" type="line"/>
      <point x="81" y="363" type="line"/>
      <point x="61" y="247" type="line"/>
      <point x="402" y="247" type="line"/>
      <point x="370" y="55" type="line"/>
    </contour>
  </outline>
</glyph>
<glyph name="registered" format="1">
  <advance width="600"/>
  <unicode hex="00AE"/>
  <outline>
    <contour>
      <point x="310" y="346" type="curve" smooth="yes" name="hr00"/>
      <point x="428" y="346"/>
      <point x="514" y="439"/>
      <point x="514" y="549" type="curve" smooth="yes"/>
      <point x="514" y="647"/>
      <point x="443" y="710"/>
      <point x="350" y="710" type="curve" smooth="yes"/>
      <point x="232" y="710"/>
      <point x="146" y="617"/>
      <point x="146" y="507" type="curve" smooth="yes"/>
      <point x="146" y="409"/>
      <point x="217" y="346"/>
    </contour>
    <contour>
      <point x="311" y="386" type="curve" smooth="yes"/>
      <point x="228" y="386"/>
      <point x="193" y="437"/>
      <point x="193" y="506" type="curve" smooth="yes"/>
      <point x="193" y="515"/>
      <point x="195" y="527"/>
      <point x="198" y="545" type="curve" smooth="yes"/>
      <point x="211" y="623"/>
      <point x="269" y="670"/>
      <point x="349" y="670" type="curve" smooth="yes"/>
      <point x="432" y="670"/>
      <point x="467" y="619"/>
      <point x="467" y="550" type="curve" smooth="yes"/>
      <point x="467" y="541"/>
      <point x="465" y="529"/>
      <point x="462" y="511" type="curve" smooth="yes"/>
      <point x="449" y="433"/>
      <point x="391" y="386"/>
    </contour>
    <contour>
      <point x="302" y="493" type="line"/>
      <point x="324" y="493" type="line"/>
      <point x="345" y="438" type="line"/>
      <point x="406" y="438" type="line"/>
      <point x="377" y="503" type="line"/>
      <point x="404" y="514"/>
      <point x="422" y="537"/>
      <point x="422" y="571" type="curve" smooth="yes"/>
      <point x="422" y="601"/>
      <point x="403" y="623"/>
      <point x="360" y="623" type="curve" smooth="yes"/>
      <point x="268" y="623" type="line"/>
      <point x="237" y="438" type="line"/>
      <point x="293" y="438" type="line"/>
    </contour>
    <contour>
      <point x="309" y="533" type="line"/>
      <point x="317" y="580" type="line"/>
      <point x="341" y="580" type="line" smooth="yes"/>
      <point x="355" y="580"/>
      <point x="363" y="574"/>
      <point x="363" y="564" type="curve" smooth="yes"/>
      <point x="363" y="563"/>
      <point x="363" y="561"/>
      <point x="362" y="553" type="curve" smooth="yes"/>
      <point x="360" y="540"/>
      <point x="349" y="533"/>
      <point x="333" y="533" type="curve" smooth="yes"/>
    </contour>
  </outline>
</glyph>
<glyph name="macron" format="1">
  <advance width="600"/>
  <unicode hex="00AF"/>
  <outline>
    <contour>
      <point x="164" y="616" type="line" name="hr00"/>
      <point x="469" y="616" type="line"/>
      <point x="486" y="718" type="line"/>
      <point x="181" y="718" type="line"/>
    </contour>
    <contour>
      <point x="300" y="516" type="move" name="_top"/>
    </contour>
  </outline>
</glyph>
<glyph name="degree" format="1">
  <advance width="600"/>
  <unicode hex="00B0"/>
  <outline>
    <contour>
      <point x="326" y="335" type="curve" smooth="yes" name="hr00"/>
      <point x="443" y="335"/>
      <point x="537" y="422"/>
      <point x="537" y="540" type="curve" smooth="yes"/>
      <point x="537" y="637"/>
      <point x="469" y="710"/>
      <point x="367" y="710" type="curve" smooth="yes"/>
      <point x="250" y="710"/>
      <point x="156" y="623"/>
      <point x="156" y="505" type="curve" smooth="yes"/>
      <point x="156" y="408"/>
      <point x="224" y="335"/>
    </contour>
    <contour>
      <point x="334" y="428" type="curve" smooth="yes"/>
      <point x="288" y="428"/>
      <point x="258" y="463"/>
      <point x="258" y="506" type="curve" smooth="yes"/>
      <point x="258" y="566"/>
      <point x="297" y="617"/>
      <point x="359" y="617" type="curve" smooth="yes"/>
      <point x="405" y="617"/>
      <point x="435" y="582"/>
      <point x="435" y="539" type="curve" smooth="yes"/>
      <point x="435" y="479"/>
      <point x="396" y="428"/>
    </contour>
  </outline>
</glyph>
<glyph name="plusminus" format="1">
  <advance width="600"/>
  <unicode hex="00B1"/>
  <outline>
    <contour>
      <point x="352" y="183" type="line" name="hr00"/>
      <point x="380" y="350" type="line"/>
      <point x="554" y="350" type="line"/>
      <point x="574" y="466" type="line"/>
      <point x="399" y="466" type="line"/>
      <point x="427" y="633" type="line"/>
      <point x="301" y="633" type="line"/>
      <point x="273" y="466" type="line"/>
      <point x="98" y="466" type="line"/>
      <point x="78" y="350" type="line"/>
      <point x="254" y="350" type="line"/>
      <point x="226" y="183" type="line"/>
    </contour>
    <contour>
      <point x="496" y="0" type="line"/>
      <point x="516" y="116" type="line"/>
      <point x="40" y="116" type="line"/>
      <point x="20" y="0" type="line"/>
    </contour>
  </outline>
</glyph>
<glyph name="twosuperior" format="1">
  <advance width="600"/>
  <unicode hex="00B2"/>
  <outline>
    <contour>
      <point x="466" y="408" type="line" name="hr00"/>
      <point x="303" y="408" type="line"/>
      <point x="371" y="448" type="line" smooth="yes"/>
      <point x="447" y="493"/>
      <point x="493" y="531"/>
      <point x="493" y="593" type="curve" smooth="yes"/>
      <point x="493" y="663"/>
      <point x="434" y="704"/>
      <point x="357" y="704" type="curve" smooth="yes"/>
      <point x="277" y="704"/>
      <point x="232" y="660"/>
      <point x="208" y="607" type="curve"/>
      <point x="291" y="576" type="line"/>
      <point x="299" y="598"/>
      <point x="317" y="623"/>
      <point x="350" y="623" type="curve" smooth="yes"/>
      <point x="372" y="623"/>
      <point x="391" y="611"/>
      <point x="391" y="589" type="curve" smooth="yes"/>
      <point x="391" y="584"/>
      <point x="390" y="579"/>
      <point x="389" y="573" type="curve" smooth="yes"/>
      <point x="384" y="542"/>
      <point x="345" y="519"/>
      <point x="324" y="505" type="curve" smooth="yes"/>
      <point x="186" y="413" type="line"/>
      <point x="172" y="329" type="line"/>
      <point x="453" y="329" type="line"/>
    </contour>
  </outline>
</glyph>
<glyph name="threesuperior" format="1">
  <advance width="600"/>
  <unicode hex="00B3"/>
  <outline>
    <contour>
      <point x="292" y="556" type="line"/>
      <point x="279" y="479" type="line"/>
      <point x="319" y="479" type="line" smooth="yes"/>
      <point x="351" y="479"/>
      <point x="368" y="469"/>
      <point x="368" y="449" type="curve" smooth="yes"/>
      <point x="368" y="445"/>
      <point x="367" y="441"/>
      <point x="366" y="435" type="curve" smooth="yes"/>
      <point x="362" y="411"/>
      <point x="338" y="399"/>
      <point x="310" y="399" type="curve" smooth="yes"/>
      <point x="272" y="399"/>
      <point x="251" y="418"/>
      <point x="239" y="445" type="curve"/>
      <point x="171" y="396" type="line"/>
      <point x="190" y="355"/>
      <point x="231" y="323"/>
      <point x="311" y="323" type="curve" smooth="yes"/>
      <point x="412" y="323"/>
      <point x="470" y="375"/>
      <point x="470" y="441" type="curve" smooth="yes"/>
      <point x="470" y="482"/>
      <point x="448" y="510"/>
      <point x="403" y="520" type="curve"/>
      <point x="403" y="522" type="line"/>
      <point x="464" y="533"/>
      <point x="490" y="569"/>
      <point x="490" y="610" type="curve" smooth="yes" name="hr01"/>
      <point x="490" y="667"/>
      <point x="441" y="704"/>
      <point x="357" y="704" type="curve" smooth="yes"/>
      <point x="292" y="704"/>
      <point x="251" y="682"/>
      <point x="215" y="645" type="curve"/>
      <point x="269" y="585" type="line"/>
      <point x="294" y="616"/>
      <point x="318" y="628"/>
      <point x="345" y="628" type="curve" smooth="yes"/>
      <point x="372" y="628"/>
      <point x="390" y="617"/>
      <point x="390" y="598" type="curve" smooth="yes"/>
      <point x="390" y="594"/>
      <point x="389" y="590"/>
      <point x="388" y="584" type="curve" smooth="yes"/>
      <point x="386" y="572"/>
      <point x="370" y="556"/>
      <point x="327" y="556" type="curve" smooth="yes"/>
    </contour>
  </outline>
</glyph>
<glyph name="acute" format="1">
  <advance width="600"/>
  <unicode hex="00B4"/>
  <outline>
    <contour>
      <point x="466" y="746" type="line" name="hr00"/>
      <point x="352" y="806" type="line"/>
      <point x="237" y="616" type="line"/>
      <point x="323" y="570" type="line"/>
    </contour>
    <contour>
      <point x="300" y="516" type="move" name="_top"/>
    </contour>
  </outline>
</glyph>
<glyph name="mu" format="1">
  <advance width="600"/>
  <unicode hex="00B5"/>
  <outline>
    <contour>
      <point x="137" y="-200" type="line"/>
      <point x="153" y="-101" type="line"/>
      <point x="147" y="30" type="line"/>
      <point x="153" y="30" type="line"/>
      <point x="169" y="-3"/>
      <point x="193" y="-12"/>
      <point x="219" y="-12" type="curve" smooth="yes"/>
      <point x="286" y="-12"/>
      <point x="331" y="38"/>
      <point x="360" y="116" type="curve"/>
      <point x="366" y="116" type="line"/>
      <point x="346" y="0" type="line" name="hr01"/>
      <point x="492" y="0" type="line"/>
      <point x="578" y="516" type="line"/>
      <point x="432" y="516" type="line"/>
      <point x="384" y="228" type="line" smooth="yes"/>
      <point x="379" y="195"/>
      <point x="365" y="166"/>
      <point x="347" y="144" type="curve" smooth="yes"/>
      <point x="325" y="117"/>
      <point x="295" y="101"/>
      <point x="267" y="101" type="curve" smooth="yes" name="hr02"/>
      <point x="225" y="101"/>
      <point x="203" y="126"/>
      <point x="203" y="175" type="curve" smooth="yes"/>
      <point x="203" y="186"/>
      <point x="204" y="199"/>
      <point x="206" y="212" type="curve" smooth="yes"/>
      <point x="257" y="516" type="line"/>
      <point x="111" y="516" type="line"/>
      <point x="-9" y="-200" type="line"/>
    </contour>
  </outline>
</glyph>
<glyph name="paragraph" format="1">
  <advance width="600"/>
  <unicode hex="00B6"/>
  <outline>
    <contour>
      <point x="191" y="-148" type="line" name="hr00"/>
      <point x="307" y="-148" type="line"/>
      <point x="429" y="585" type="line"/>
      <point x="500" y="585" type="line"/>
      <point x="378" y="-148" type="line"/>
      <point x="494" y="-148" type="line"/>
      <point x="635" y="699" type="line"/>
      <point x="332" y="699" type="line" smooth="yes"/>
      <point x="196" y="699"/>
      <point x="69" y="591"/>
      <point x="69" y="438" type="curve" smooth="yes"/>
      <point x="69" y="319"/>
      <point x="151" y="246"/>
      <point x="257" y="246" type="curve"/>
    </contour>
  </outline>
</glyph>
<glyph name="periodcentered" format="1">
  <advance width="600"/>
  <unicode hex="00B7"/>
  <outline>
    <contour>
      <point x="295" y="207" type="curve" smooth="yes" name="hr00"/>
      <point x="368" y="207"/>
      <point x="403" y="245"/>
      <point x="410" y="287" type="curve" smooth="yes"/>
      <point x="414" y="311"/>
      <point x="416" y="327"/>
      <point x="416" y="338" type="curve" smooth="yes"/>
      <point x="416" y="375"/>
      <point x="390" y="405"/>
      <point x="324" y="405" type="curve" smooth="yes"/>
      <point x="251" y="405"/>
      <point x="216" y="367"/>
      <point x="209" y="325" type="curve" smooth="yes"/>
      <point x="205" y="301"/>
      <point x="203" y="285"/>
      <point x="203" y="274" type="curve" smooth="yes"/>
      <point x="203" y="237"/>
      <point x="229" y="207"/>
    </contour>
  </outline>
</glyph>
<glyph name="cedilla" format="1">
  <advance width="600"/>
  <unicode hex="00B8"/>
  <outline>
    <contour>
      <point x="285" y="-212" type="curve" smooth="yes" name="hr00"/>
      <point x="364" y="-212"/>
      <point x="425" y="-175"/>
      <point x="425" y="-114" type="curve" smooth="yes"/>
      <point x="425" y="-70"/>
      <point x="394" y="-52"/>
      <point x="358" y="-52" type="curve" smooth="yes"/>
      <point x="346" y="-52"/>
      <point x="332" y="-54"/>
      <point x="317" y="-59" type="curve"/>
      <point x="314" y="-55" type="line"/>
      <point x="345" y="30" type="line"/>
      <point x="278" y="30" type="line"/>
      <point x="238" y="-74" type="line"/>
      <point x="261" y="-76" type="line" smooth="yes"/>
      <point x="316" y="-81"/>
      <point x="329" y="-97"/>
      <point x="329" y="-112" type="curve" smooth="yes"/>
      <point x="329" y="-132"/>
      <point x="307" y="-141"/>
      <point x="282" y="-141" type="curve" smooth="yes"/>
      <point x="248" y="-141"/>
      <point x="228" y="-125"/>
      <point x="218" y="-113" type="curve"/>
      <point x="167" y="-166" type="line"/>
      <point x="186" y="-191"/>
      <point x="225" y="-212"/>
    </contour>
    <contour>
      <point x="300" y="0" type="move" name="_bottom"/>
    </contour>
  </outline>
</glyph>
<glyph name="onesuperior" format="1">
  <advance width="600"/>
  <unicode hex="00B9"/>
  <outline>
    <contour>
      <point x="454" y="329" type="line" name="hr00"/>
      <point x="467" y="405" type="line"/>
      <point x="395" y="405" type="line"/>
      <point x="444" y="698" type="line"/>
      <point x="288" y="698" type="line"/>
      <point x="199" y="591" type="line"/>
      <point x="260" y="542" type="line"/>
      <point x="329" y="625" type="line"/>
      <point x="335" y="625" type="line"/>
      <point x="298" y="405" type="line"/>
      <point x="217" y="405" type="line"/>
      <point x="204" y="329" type="line"/>
    </contour>
  </outline>
</glyph>
<glyph name="ordmasculine" format="1">
  <advance width="600"/>
  <unicode hex="00BA"/>
  <outline>
    <contour>
      <point x="320" y="333" type="curve" smooth="yes" name="hr00"/>
      <point x="447" y="333"/>
      <point x="528" y="422"/>
      <point x="528" y="557" type="curve" smooth="yes"/>
      <point x="528" y="651"/>
      <point x="472" y="710"/>
      <point x="370" y="710" type="curve" smooth="yes"/>
      <point x="243" y="710"/>
      <point x="162" y="621"/>
      <point x="162" y="486" type="curve" smooth="yes"/>
      <point x="162" y="392"/>
      <point x="218" y="333"/>
    </contour>
    <contour>
      <point x="330" y="409" type="curve" smooth="yes"/>
      <point x="288" y="409"/>
      <point x="264" y="431"/>
      <point x="264" y="471" type="curve" smooth="yes"/>
      <point x="264" y="478"/>
      <point x="265" y="486"/>
      <point x="266" y="492" type="curve" smooth="yes"/>
      <point x="276" y="552" type="line" smooth="yes"/>
      <point x="284" y="600"/>
      <point x="316" y="634"/>
      <point x="360" y="634" type="curve" smooth="yes"/>
      <point x="402" y="634"/>
      <point x="426" y="612"/>
      <point x="426" y="572" type="curve" smooth="yes"/>
      <point x="426" y="565"/>
      <point x="425" y="557"/>
      <point x="424" y="551" type="curve" smooth="yes"/>
      <point x="414" y="491" type="line" smooth="yes"/>
      <point x="406" y="443"/>
      <point x="374" y="409"/>
    </contour>
  </outline>
</glyph>
<glyph name="questiondown" format="1">
  <advance width="600"/>
  <unicode hex="00BF"/>
  <outline>
    <contour>
      <point x="244" y="-194" type="curve" smooth="yes" name="hr00"/>
      <point x="376" y="-194"/>
      <point x="453" y="-124"/>
      <point x="488" y="-39" type="curve"/>
      <point x="374" y="14" type="line"/>
      <point x="353" y="-37"/>
      <point x="316" y="-70"/>
      <point x="266" y="-70" type="curve" smooth="yes"/>
      <point x="221" y="-70"/>
      <point x="185" y="-47"/>
      <point x="185" y="-2" type="curve" smooth="yes"/>
      <point x="185" y="1"/>
      <point x="185" y="14"/>
      <point x="187" y="26" type="curve" smooth="yes"/>
      <point x="199" y="98"/>
      <point x="258" y="125"/>
      <point x="371" y="130" type="curve"/>
      <point x="396" y="282" type="line"/>
      <point x="250" y="282" type="line"/>
      <point x="238" y="211" type="line"/>
      <point x="123" y="194"/>
      <point x="28" y="115"/>
      <point x="28" y="-8" type="curve" smooth="yes"/>
      <point x="28" y="-122"/>
      <point x="110" y="-194"/>
    </contour>
    <contour>
      <point x="334" y="342" type="curve" smooth="yes"/>
      <point x="400" y="342"/>
      <point x="432" y="375"/>
      <point x="439" y="417" type="curve" smooth="yes"/>
      <point x="444" y="447"/>
      <point x="445" y="457"/>
      <point x="445" y="465" type="curve" smooth="yes"/>
      <point x="445" y="500"/>
      <point x="419" y="528"/>
      <point x="357" y="528" type="curve" smooth="yes"/>
      <point x="291" y="528"/>
      <point x="259" y="495"/>
      <point x="252" y="453" type="curve" smooth="yes"/>
      <point x="247" y="423"/>
      <point x="246" y="413"/>
      <point x="246" y="405" type="curve" smooth="yes"/>
      <point x="246" y="370"/>
      <point x="272" y="342"/>
    </contour>
  </outline>
</glyph>
<glyph name="AE" format="1">
  <advance width="600"/>
  <unicode hex="00C6"/>
  <outline>
    <contour>
      <point x="280" y="0" type="line" name="hr00"/>
      <point x="571" y="0" type="line"/>
      <point x="589" y="110" type="line"/>
      <point x="434" y="110" type="line"/>
      <point x="466" y="298" type="line"/>
      <point x="611" y="298" type="line"/>
      <point x="629" y="408" type="line"/>
      <point x="484" y="408" type="line"/>
      <point x="514" y="588" type="line"/>
      <point x="670" y="588" type="line"/>
      <point x="688" y="698" type="line"/>
      <point x="273" y="698" type="line"/>
      <point x="-3" y="0" type="line"/>
      <point x="141" y="0" type="line"/>
      <point x="204" y="169" type="line"/>
      <point x="308" y="169" type="line"/>
    </contour>
    <contour>
      <point x="380" y="595" type="line"/>
      <point x="327" y="279" type="line"/>
      <point x="243" y="279" type="line"/>
      <point x="357" y="595" type="line"/>
    </contour>
    <contour>
      <point x="454" y="698" type="move" name="top"/>
    </contour>
  </outline>
</glyph>
<glyph name="Ccedilla" format="1">
  <advance width="600"/>
  <unicode hex="00C7"/>
  <outline>
    <contour>
      <point x="367" y="590" type="curve" smooth="yes" name="hr00"/>
      <point x="439" y="590"/>
      <point x="457" y="542"/>
      <point x="461" y="476" type="curve"/>
      <point x="604" y="505" type="line"/>
      <point x="597" y="626"/>
      <point x="528" y="710"/>
      <point x="373" y="710" type="curve" smooth="yes"/>
      <point x="176" y="710"/>
      <point x="50" y="525"/>
      <point x="50" y="254" type="curve" smooth="yes"/>
      <point x="50" y="99"/>
      <point x="115" y="4"/>
      <point x="255" y="-11" type="curve"/>
      <point x="231" y="-74" type="line"/>
      <point x="254" y="-76" type="line" smooth="yes"/>
      <point x="306" y="-81"/>
      <point x="322" y="-95"/>
      <point x="322" y="-112" type="curve" smooth="yes"/>
      <point x="322" y="-132"/>
      <point x="301" y="-141"/>
      <point x="272" y="-141" type="curve" smooth="yes"/>
      <point x="242" y="-141"/>
      <point x="221" y="-125"/>
      <point x="211" y="-113" type="curve"/>
      <point x="160" y="-166" type="line"/>
      <point x="179" y="-191"/>
      <point x="219" y="-212"/>
      <point x="275" y="-212" type="curve" smooth="yes"/>
      <point x="356" y="-212"/>
      <point x="418" y="-178"/>
      <point x="418" y="-110" type="curve" smooth="yes"/>
      <point x="418" y="-74"/>
      <point x="389" y="-52"/>
      <point x="352" y="-52" type="curve" smooth="yes"/>
      <point x="339" y="-52"/>
      <point x="325" y="-54"/>
      <point x="310" y="-59" type="curve"/>
      <point x="307" y="-55" type="line"/>
      <point x="323" y="-11" type="line"/>
      <point x="438" y="0"/>
      <point x="508" y="69"/>
      <point x="559" y="189" type="curve"/>
      <point x="432" y="227" type="line"/>
      <point x="405" y="161"/>
      <point x="364" y="108"/>
      <point x="300" y="108" type="curve" smooth="yes"/>
      <point x="227" y="108"/>
      <point x="199" y="151"/>
      <point x="199" y="221" type="curve" smooth="yes"/>
      <point x="199" y="253"/>
      <point x="203" y="275"/>
      <point x="207" y="299" type="curve" smooth="yes"/>
      <point x="225" y="408" type="line" smooth="yes"/>
      <point x="244" y="520"/>
      <point x="285" y="590"/>
    </contour>
  </outline>
</glyph>
<glyph name="multiply" format="1">
  <advance width="600"/>
  <unicode hex="00D7"/>
  <outline>
    <contour>
      <point x="417" y="76" type="line" name="hr00"/>
      <point x="512" y="157" type="line"/>
      <point x="393" y="301" type="line"/>
      <point x="564" y="447" type="line"/>
      <point x="489" y="534" type="line"/>
      <point x="320" y="390" type="line"/>
      <point x="201" y="534" type="line"/>
      <point x="106" y="453" type="line"/>
      <point x="225" y="310" type="line"/>
      <point x="53" y="164" type="line"/>
      <point x="129" y="76" type="line"/>
      <point x="298" y="220" type="line"/>
    </contour>
  </outline>
</glyph>
<glyph name="Oslash" format="1">
  <advance width="600"/>
  <unicode hex="00D8"/>
  <outline>
    <contour>
      <point x="279" y="-12" type="curve" smooth="yes" name="hr00"/>
      <point x="501" y="-12"/>
      <point x="592" y="210"/>
      <point x="592" y="447" type="curve" smooth="yes"/>
      <point x="592" y="503"/>
      <point x="584" y="552"/>
      <point x="565" y="591" type="curve"/>
      <point x="655" y="708" type="line"/>
      <point x="567" y="765" type="line"/>
      <point x="496" y="672" type="line"/>
      <point x="459" y="697"/>
      <point x="410" y="710"/>
      <point x="349" y="710" type="curve" smooth="yes"/>
      <point x="127" y="710"/>
      <point x="36" y="488"/>
      <point x="36" y="251" type="curve" smooth="yes"/>
      <point x="36" y="195"/>
      <point x="44" y="146"/>
      <point x="63" y="107" type="curve"/>
      <point x="-27" y="-10" type="line"/>
      <point x="61" y="-67" type="line"/>
      <point x="132" y="26" type="line"/>
      <point x="169" y="1"/>
      <point x="218" y="-12"/>
    </contour>
    <contour>
      <point x="191" y="302" type="curve" smooth="yes"/>
      <point x="209" y="410" type="line" smooth="yes"/>
      <point x="228" y="524"/>
      <point x="265" y="591"/>
      <point x="349" y="591" type="curve" smooth="yes"/>
      <point x="381" y="591"/>
      <point x="405" y="580"/>
      <point x="421" y="562" type="curve"/>
      <point x="185" y="254" type="line"/>
      <point x="185" y="255" type="line"/>
      <point x="185" y="267"/>
      <point x="187" y="279"/>
    </contour>
    <contour>
      <point x="279" y="107" type="curve" smooth="yes"/>
      <point x="247" y="107"/>
      <point x="223" y="118"/>
      <point x="207" y="136" type="curve"/>
      <point x="443" y="444" type="line"/>
      <point x="443" y="443" type="line"/>
      <point x="443" y="431"/>
      <point x="441" y="419"/>
      <point x="437" y="396" type="curve" smooth="yes"/>
      <point x="419" y="288" type="line" smooth="yes"/>
      <point x="400" y="174"/>
      <point x="363" y="107"/>
    </contour>
    <contour>
      <point x="356" y="698" type="move" name="top"/>
    </contour>
  </outline>
</glyph>
<glyph name="Thorn" format="1">
  <advance width="600"/>
  <unicode hex="00DE"/>
  <outline>
    <contour>
      <point x="181" y="0" type="line" name="hr00"/>
      <point x="203" y="134" type="line"/>
      <point x="322" y="134" type="line" smooth="yes"/>
      <point x="473" y="134"/>
      <point x="571" y="232"/>
      <point x="571" y="391" type="curve" smooth="yes"/>
      <point x="571" y="499"/>
      <point x="505" y="576"/>
      <point x="381" y="576" type="curve" smooth="yes"/>
      <point x="278" y="576" type="line"/>
      <point x="298" y="698" type="line"/>
      <point x="150" y="698" type="line"/>
      <point x="33" y="0" type="line"/>
    </contour>
    <contour>
      <point x="257" y="457" type="line"/>
      <point x="335" y="457" type="line" smooth="yes"/>
      <point x="394" y="457"/>
      <point x="417" y="439"/>
      <point x="417" y="394" type="curve" smooth="yes"/>
      <point x="417" y="383"/>
      <point x="416" y="373"/>
      <point x="415" y="367" type="curve" smooth="yes"/>
      <point x="410" y="337" type="line" smooth="yes"/>
      <point x="400" y="277"/>
      <point x="369" y="254"/>
      <point x="301" y="254" type="curve" smooth="yes"/>
      <point x="223" y="254" type="line"/>
    </contour>
  </outline>
</glyph>
<glyph name="germandbls" format="1">
  <advance width="600"/>
  <unicode hex="00DF"/>
  <outline>
    <contour>
      <point x="159" y="0" type="line" name="hr00"/>
      <point x="226" y="404" type="line"/>
      <point x="407" y="404" type="line"/>
      <point x="262" y="230" type="line"/>
      <point x="243" y="118" type="line"/>
      <point x="267" y="118" type="line" smooth="yes"/>
      <point x="343" y="118"/>
      <point x="381" y="96"/>
      <point x="381" y="46" type="curve" smooth="yes"/>
      <point x="381" y="39"/>
      <point x="381" y="35"/>
      <point x="376" y="5" type="curve" smooth="yes"/>
      <point x="365" y="-61"/>
      <point x="323" y="-88"/>
      <point x="239" y="-88" type="curve" smooth="yes"/>
      <point x="182" y="-88" type="line"/>
      <point x="163" y="-200" type="line"/>
      <point x="233" y="-200" type="line" smooth="yes"/>
      <point x="410" y="-200"/>
      <point x="528" y="-116"/>
      <point x="528" y="41" type="curve" smooth="yes"/>
      <point x="528" y="134"/>
      <point x="475" y="190"/>
      <point x="386" y="208" type="curve"/>
      <point x="556" y="411" type="line"/>
      <point x="574" y="516" type="line"/>
      <point x="244" y="516" type="line"/>
      <point x="263" y="628" type="line"/>
      <point x="410" y="628" type="line"/>
      <point x="429" y="740" type="line"/>
      <point x="289" y="740" type="line" smooth="yes"/>
      <point x="184" y="740"/>
      <point x="127" y="679"/>
      <point x="113" y="595" type="curve" smooth="yes"/>
      <point x="17" y="0" type="line"/>
    </contour>
  </outline>
</glyph>
<glyph name="ae" format="1">
  <advance width="600"/>
  <unicode hex="00E6"/>
  <outline>
    <contour>
      <point x="110" y="-12" type="curve" smooth="yes" name="hr00"/>
      <point x="176" y="-12"/>
      <point x="222" y="27"/>
      <point x="241" y="105" type="curve"/>
      <point x="245" y="105" type="line"/>
      <point x="256" y="20"/>
      <point x="315" y="-12"/>
      <point x="388" y="-12" type="curve" smooth="yes"/>
      <point x="472" y="-12"/>
      <point x="524" y="31"/>
      <point x="561" y="118" type="curve"/>
      <point x="470" y="157" type="line"/>
      <point x="453" y="114"/>
      <point x="433" y="83"/>
      <point x="397" y="83" type="curve" smooth="yes"/>
      <point x="360" y="83"/>
      <point x="341" y="115"/>
      <point x="341" y="167" type="curve" smooth="yes"/>
      <point x="341" y="179"/>
      <point x="342" y="197"/>
      <point x="345" y="215" type="curve" smooth="yes"/>
      <point x="347" y="226" type="line"/>
      <point x="559" y="230"/>
      <point x="601" y="323"/>
      <point x="601" y="394" type="curve" smooth="yes"/>
      <point x="601" y="472"/>
      <point x="550" y="528"/>
      <point x="466" y="528" type="curve" smooth="yes"/>
      <point x="401" y="528"/>
      <point x="354" y="495"/>
      <point x="327" y="449" type="curve"/>
      <point x="324" y="449" type="line"/>
      <point x="316" y="508"/>
      <point x="267" y="528"/>
      <point x="208" y="528" type="curve" smooth="yes"/>
      <point x="134" y="528"/>
      <point x="83" y="497"/>
      <point x="44" y="411" type="curve"/>
      <point x="124" y="365" type="line"/>
      <point x="143" y="411"/>
      <point x="167" y="437"/>
      <point x="203" y="437" type="curve" smooth="yes"/>
      <point x="234" y="437"/>
      <point x="253" y="417"/>
      <point x="253" y="378" type="curve" smooth="yes"/>
      <point x="253" y="369"/>
      <point x="252" y="359"/>
      <point x="250" y="347" type="curve" smooth="yes"/>
      <point x="243" y="305" type="line"/>
      <point x="203" y="305" type="line" smooth="yes"/>
      <point x="69" y="305"/>
      <point x="-8" y="234"/>
      <point x="-8" y="121" type="curve" smooth="yes"/>
      <point x="-8" y="30"/>
      <point x="41" y="-12"/>
    </contour>
    <contour>
      <point x="146" y="77" type="curve" smooth="yes"/>
      <point x="120" y="77"/>
      <point x="101" y="91"/>
      <point x="101" y="125" type="curve" smooth="yes"/>
      <point x="101" y="127"/>
      <point x="101" y="138"/>
      <point x="104" y="157" type="curve" smooth="yes"/>
      <point x="113" y="206"/>
      <point x="148" y="228"/>
      <point x="201" y="228" type="curve" smooth="yes"/>
      <point x="230" y="228" type="line"/>
      <point x="222" y="179" type="line" smooth="yes"/>
      <point x="211" y="112"/>
      <point x="186" y="77"/>
    </contour>
    <contour>
      <point x="450" y="439" type="curve" smooth="yes"/>
      <point x="478" y="439"/>
      <point x="496" y="422"/>
      <point x="496" y="390" type="curve" smooth="yes"/>
      <point x="496" y="346"/>
      <point x="461" y="307"/>
      <point x="360" y="303" type="curve"/>
      <point x="361" y="311" type="line"/>
      <point x="376" y="399"/>
      <point x="407" y="439"/>
    </contour>
    <contour>
      <point x="333" y="516" type="move" name="top"/>
    </contour>
  </outline>
</glyph>
<glyph name="ccedilla" format="1">
  <advance width="600"/>
  <unicode hex="00E7"/>
  <outline>
    <contour>
      <point x="343" y="528" type="curve" smooth="yes" name="hr00"/>
      <point x="159" y="528"/>
      <point x="57" y="382"/>
      <point x="57" y="206" type="curve" smooth="yes"/>
      <point x="57" y="80"/>
      <point x="121" y="2"/>
      <point x="239" y="-10" type="curve"/>
      <point x="214" y="-74" type="line"/>
      <point x="237" y="-76" type="line" smooth="yes"/>
      <point x="289" y="-81"/>
      <point x="305" y="-95"/>
      <point x="305" y="-112" type="curve" smooth="yes"/>
      <point x="305" y="-132"/>
      <point x="284" y="-141"/>
      <point x="255" y="-141" type="curve" smooth="yes"/>
      <point x="225" y="-141"/>
      <point x="204" y="-125"/>
      <point x="194" y="-113" type="curve"/>
      <point x="143" y="-166" type="line"/>
      <point x="162" y="-191"/>
      <point x="202" y="-212"/>
      <point x="258" y="-212" type="curve" smooth="yes"/>
      <point x="339" y="-212"/>
      <point x="401" y="-178"/>
      <point x="401" y="-110" type="curve" smooth="yes"/>
      <point x="401" y="-74"/>
      <point x="372" y="-52"/>
      <point x="335" y="-52" type="curve" smooth="yes"/>
      <point x="322" y="-52"/>
      <point x="308" y="-54"/>
      <point x="293" y="-59" type="curve"/>
      <point x="290" y="-55" type="line"/>
      <point x="306" y="-11" type="line"/>
      <point x="409" y="-1"/>
      <point x="471" y="58"/>
      <point x="533" y="156" type="curve"/>
      <point x="442" y="215" type="line"/>
      <point x="369" y="119"/>
      <point x="339" y="105"/>
      <point x="297" y="105" type="curve" smooth="yes"/>
      <point x="231" y="105"/>
      <point x="206" y="141"/>
      <point x="206" y="194" type="curve" smooth="yes"/>
      <point x="206" y="210"/>
      <point x="208" y="229"/>
      <point x="210" y="241" type="curve" smooth="yes"/>
      <point x="220" y="301" type="line" smooth="yes"/>
      <point x="232" y="372"/>
      <point x="273" y="411"/>
      <point x="331" y="411" type="curve" smooth="yes"/>
      <point x="389" y="411"/>
      <point x="410" y="384"/>
      <point x="424" y="341" type="curve"/>
      <point x="543" y="397" type="line"/>
      <point x="521" y="475"/>
      <point x="461" y="528"/>
    </contour>
  </outline>
</glyph>
<glyph name="eth" format="1">
  <advance width="600"/>
  <unicode hex="00F0"/>
  <outline>
    <contour>
      <point x="552" y="693" type="line" name="hr00"/>
      <point x="513" y="753" type="line"/>
      <point x="418" y="702" type="line"/>
      <point x="403" y="716"/>
      <point x="388" y="728"/>
      <point x="373" y="740" type="curve"/>
      <point x="150" y="740" type="line"/>
      <point x="204" y="709"/>
      <point x="254" y="674"/>
      <point x="295" y="636" type="curve"/>
      <point x="204" y="588" type="line"/>
      <point x="245" y="528" type="line"/>
      <point x="347" y="583" type="line"/>
      <point x="392" y="529"/>
      <point x="423" y="469"/>
      <point x="431" y="408" type="curve"/>
      <point x="423" y="404" type="line"/>
      <point x="400" y="464"/>
      <point x="356" y="500"/>
      <point x="280" y="500" type="curve" smooth="yes"/>
      <point x="138" y="500"/>
      <point x="32" y="375"/>
      <point x="32" y="204" type="curve" smooth="yes"/>
      <point x="32" y="71"/>
      <point x="112" y="-12"/>
      <point x="255" y="-12" type="curve" smooth="yes"/>
      <point x="438" y="-12"/>
      <point x="568" y="102"/>
      <point x="568" y="353" type="curve" smooth="yes"/>
      <point x="568" y="476"/>
      <point x="527" y="574"/>
      <point x="468" y="648" type="curve"/>
    </contour>
    <contour>
      <point x="271" y="97" type="curve" smooth="yes"/>
      <point x="214" y="97"/>
      <point x="179" y="126"/>
      <point x="179" y="183" type="curve" smooth="yes"/>
      <point x="179" y="192"/>
      <point x="180" y="202"/>
      <point x="182" y="214" type="curve" smooth="yes"/>
      <point x="191" y="268" type="line" smooth="yes"/>
      <point x="204" y="346"/>
      <point x="252" y="389"/>
      <point x="319" y="389" type="curve" smooth="yes"/>
      <point x="376" y="389"/>
      <point x="411" y="360"/>
      <point x="411" y="303" type="curve" smooth="yes"/>
      <point x="411" y="294"/>
      <point x="410" y="284"/>
      <point x="408" y="272" type="curve" smooth="yes"/>
      <point x="399" y="218" type="line" smooth="yes"/>
      <point x="386" y="140"/>
      <point x="338" y="97"/>
    </contour>
  </outline>
</glyph>
<glyph name="divide" format="1">
  <advance width="600"/>
  <unicode hex="00F7"/>
  <outline>
    <contour>
      <point x="537" y="247" type="line"/>
      <point x="557" y="363" type="line"/>
      <point x="81" y="363" type="line"/>
      <point x="61" y="247" type="line"/>
    </contour>
    <contour>
      <point x="266" y="30" type="curve" smooth="yes"/>
      <point x="326" y="30"/>
      <point x="354" y="59"/>
      <point x="360" y="95" type="curve" smooth="yes"/>
      <point x="363" y="113"/>
      <point x="365" y="128"/>
      <point x="365" y="136" type="curve" smooth="yes" name="hr01"/>
      <point x="365" y="166"/>
      <point x="343" y="190"/>
      <point x="287" y="190" type="curve" smooth="yes"/>
      <point x="227" y="190"/>
      <point x="199" y="161"/>
      <point x="193" y="125" type="curve" smooth="yes"/>
      <point x="190" y="107"/>
      <point x="188" y="92"/>
      <point x="188" y="84" type="curve" smooth="yes"/>
      <point x="188" y="54"/>
      <point x="210" y="30"/>
    </contour>
    <contour>
      <point x="330" y="420" type="curve" smooth="yes"/>
      <point x="390" y="420"/>
      <point x="418" y="449"/>
      <point x="424" y="485" type="curve" smooth="yes"/>
      <point x="427" y="503"/>
      <point x="429" y="518"/>
      <point x="429" y="526" type="curve" smooth="yes" name="hr02"/>
      <point x="429" y="556"/>
      <point x="407" y="580"/>
      <point x="351" y="580" type="curve" smooth="yes"/>
      <point x="291" y="580"/>
      <point x="263" y="551"/>
      <point x="257" y="515" type="curve" smooth="yes"/>
      <point x="254" y="497"/>
      <point x="252" y="482"/>
      <point x="252" y="474" type="curve" smooth="yes"/>
      <point x="252" y="444"/>
      <point x="274" y="420"/>
    </contour>
  </outline>
</glyph>
<glyph name="oslash" format="1">
  <advance width="600"/>
  <unicode hex="00F8"/>
  <outline>
    <contour>
      <point x="50" y="-58" type="line" name="hr00"/>
      <point x="131" y="24" type="line"/>
      <point x="167" y="0"/>
      <point x="212" y="-12"/>
      <point x="265" y="-12" type="curve" smooth="yes"/>
      <point x="438" y="-12"/>
      <point x="557" y="109"/>
      <point x="557" y="306" type="curve" smooth="yes"/>
      <point x="557" y="351"/>
      <point x="548" y="391"/>
      <point x="531" y="424" type="curve"/>
      <point x="618" y="513" type="line"/>
      <point x="550" y="574" type="line"/>
      <point x="469" y="492" type="line"/>
      <point x="433" y="516"/>
      <point x="388" y="528"/>
      <point x="335" y="528" type="curve" smooth="yes"/>
      <point x="162" y="528"/>
      <point x="43" y="407"/>
      <point x="43" y="210" type="curve" smooth="yes"/>
      <point x="43" y="165"/>
      <point x="52" y="125"/>
      <point x="69" y="92" type="curve"/>
      <point x="-18" y="3" type="line"/>
    </contour>
    <contour>
      <point x="324" y="419" type="curve" smooth="yes"/>
      <point x="347" y="419"/>
      <point x="367" y="413"/>
      <point x="381" y="403" type="curve"/>
      <point x="189" y="204" type="line"/>
      <point x="189" y="206"/>
      <point x="192" y="223"/>
      <point x="193" y="229" type="curve" smooth="yes"/>
      <point x="206" y="307" type="line" smooth="yes"/>
      <point x="218" y="379"/>
      <point x="260" y="419"/>
    </contour>
    <contour>
      <point x="276" y="97" type="curve" smooth="yes"/>
      <point x="253" y="97"/>
      <point x="233" y="103"/>
      <point x="219" y="113" type="curve"/>
      <point x="411" y="312" type="line"/>
      <point x="411" y="310"/>
      <point x="408" y="294"/>
      <point x="407" y="287" type="curve" smooth="yes"/>
      <point x="394" y="209" type="line" smooth="yes"/>
      <point x="382" y="137"/>
      <point x="341" y="97"/>
    </contour>
    <contour>
      <point x="300" y="516" type="move" name="top"/>
    </contour>
  </outline>
</glyph>
<glyph name="thorn" format="1">
  <advance width="600"/>
  <unicode hex="00FE"/>
  <outline>
    <contour>
      <point x="-13" y="-200" type="line" name="hr00"/>
      <point x="133" y="-200" type="line"/>
      <point x="183" y="96" type="line"/>
      <point x="190" y="96" type="line"/>
      <point x="205" y="28"/>
      <point x="244" y="-12"/>
      <point x="325" y="-12" type="curve" smooth="yes"/>
      <point x="468" y="-12"/>
      <point x="562" y="123"/>
      <point x="562" y="328" type="curve" smooth="yes"/>
      <point x="562" y="449"/>
      <point x="520" y="528"/>
      <point x="411" y="528" type="curve" smooth="yes"/>
      <point x="323" y="528"/>
      <point x="277" y="472"/>
      <point x="238" y="393" type="curve"/>
      <point x="233" y="393" type="line"/>
      <point x="290" y="740" type="line"/>
      <point x="144" y="740" type="line"/>
    </contour>
    <contour>
      <point x="278" y="101" type="curve" smooth="yes"/>
      <point x="215" y="101"/>
      <point x="189" y="132"/>
      <point x="198" y="186" type="curve" smooth="yes"/>
      <point x="212" y="269" type="line"/>
      <point x="219" y="312"/>
      <point x="243" y="347"/>
      <point x="259" y="366" type="curve" smooth="yes"/>
      <point x="283" y="396"/>
      <point x="310" y="415"/>
      <point x="346" y="415" type="curve" smooth="yes"/>
      <point x="396" y="415"/>
      <point x="413" y="377"/>
      <point x="414" y="328" type="curve" smooth="yes"/>
      <point x="414" y="311"/>
      <point x="412" y="295"/>
      <point x="410" y="283" type="curve" smooth="yes"/>
      <point x="400" y="223" type="line" smooth="yes"/>
      <point x="387" y="145"/>
      <point x="350" y="101"/>
    </contour>
  </outline>
</glyph>
<glyph name="Aogonek" format="1">
  <advance width="600"/>
  <unicode hex="0104"/>
  <outline>
    <contour>
      <point x="-37" y="0" type="line" name="hr00"/>
      <point x="118" y="0" type="line"/>
      <point x="187" y="169" type="line"/>
      <point x="383" y="169" type="line"/>
      <point x="400" y="0" type="line"/>
      <point x="476" y="0" type="line"/>
      <point x="477" y="-4" type="line"/>
      <point x="378" y="-30"/>
      <point x="337" y="-78"/>
      <point x="337" y="-127" type="curve" smooth="yes"/>
      <point x="337" y="-182"/>
      <point x="388" y="-212"/>
      <point x="459" y="-212" type="curve" smooth="yes"/>
      <point x="516" y="-212"/>
      <point x="555" y="-190"/>
      <point x="580" y="-158" type="curve"/>
      <point x="526" y="-113" type="line"/>
      <point x="512" y="-134"/>
      <point x="493" y="-140"/>
      <point x="473" y="-140" type="curve" smooth="yes"/>
      <point x="447" y="-140"/>
      <point x="436" y="-127"/>
      <point x="436" y="-110" type="curve" smooth="yes"/>
      <point x="436" y="-90"/>
      <point x="447" y="-63"/>
      <point x="552" y="0" type="curve"/>
      <point x="476" y="698" type="line"/>
      <point x="270" y="698" type="line"/>
    </contour>
    <contour>
      <point x="377" y="289" type="line"/>
      <point x="237" y="289" type="line"/>
      <point x="347" y="553" type="line"/>
      <point x="356" y="553" type="line"/>
    </contour>
  </outline>
</glyph>
<glyph name="aogonek" format="1">
  <advance width="600"/>
  <unicode hex="0105"/>
  <outline>
    <contour>
      <point x="441" y="-212" type="curve" smooth="yes"/>
      <point x="498" y="-212"/>
      <point x="537" y="-190"/>
      <point x="562" y="-158" type="curve"/>
      <point x="508" y="-113" type="line"/>
      <point x="494" y="-134"/>
      <point x="475" y="-140"/>
      <point x="455" y="-140" type="curve" smooth="yes"/>
      <point x="429" y="-140"/>
      <point x="418" y="-127"/>
      <point x="418" y="-110" type="curve" smooth="yes"/>
      <point x="418" y="-90"/>
      <point x="429" y="-63"/>
      <point x="534" y="0" type="curve"/>
      <point x="552" y="107" type="line"/>
      <point x="499" y="107" type="line"/>
      <point x="567" y="516" type="line"/>
      <point x="421" y="516" type="line"/>
      <point x="405" y="420" type="line"/>
      <point x="398" y="420" type="line"/>
      <point x="383" y="488"/>
      <point x="349" y="528"/>
      <point x="271" y="528" type="curve" smooth="yes" name="hr01"/>
      <point x="126" y="528"/>
      <point x="38" y="392"/>
      <point x="38" y="193" type="curve" smooth="yes"/>
      <point x="38" y="68"/>
      <point x="73" y="-12"/>
      <point x="181" y="-12" type="curve" smooth="yes"/>
      <point x="272" y="-12"/>
      <point x="311" y="44"/>
      <point x="350" y="123" type="curve"/>
      <point x="355" y="123" type="line"/>
      <point x="353" y="110" type="line" smooth="yes"/>
      <point x="342" y="38"/>
      <point x="383" y="0"/>
      <point x="458" y="0" type="curve" name="hr02"/>
      <point x="459" y="-4" type="line"/>
      <point x="360" y="-30"/>
      <point x="319" y="-78"/>
      <point x="319" y="-127" type="curve" smooth="yes"/>
      <point x="319" y="-182"/>
      <point x="370" y="-212"/>
    </contour>
    <contour>
      <point x="247" y="101" type="curve" smooth="yes" name="hr03"/>
      <point x="200" y="101"/>
      <point x="186" y="139"/>
      <point x="186" y="187" type="curve" smooth="yes"/>
      <point x="186" y="205"/>
      <point x="188" y="221"/>
      <point x="190" y="233" type="curve" smooth="yes"/>
      <point x="200" y="293" type="line" smooth="yes"/>
      <point x="213" y="371"/>
      <point x="244" y="415"/>
      <point x="317" y="415" type="curve" smooth="yes"/>
      <point x="379" y="415"/>
      <point x="399" y="384"/>
      <point x="390" y="330" type="curve" smooth="yes"/>
      <point x="376" y="247" type="line" smooth="yes"/>
      <point x="369" y="204"/>
      <point x="347" y="168"/>
      <point x="332" y="149" type="curve" smooth="yes"/>
      <point x="309" y="120"/>
      <point x="281" y="101"/>
    </contour>
    <contour>
      <point x="326.0" y="516.0" type="move" name="top"/>
    </contour>
  </outline>
</glyph>
<glyph name="dcaron" format="1">
  <advance width="600"/>
  <unicode hex="010F"/>
  <outline>
    <contour>
      <point x="150" y="-12" type="curve" smooth="yes"/>
      <point x="215" y="-12"/>
      <point x="246" y="33"/>
      <point x="277" y="95" type="curve"/>
      <point x="284" y="95" type="line"/>
      <point x="268" y="0" type="line" name="hr01"/>
      <point x="407" y="0" type="line"/>
      <point x="531" y="740" type="line"/>
      <point x="392" y="740" type="line"/>
      <point x="338" y="420" type="line"/>
      <point x="332" y="420" type="line"/>
      <point x="317" y="487"/>
      <point x="288" y="528"/>
      <point x="219" y="528" type="curve" smooth="yes"/>
      <point x="100" y="528"/>
      <point x="18" y="393"/>
      <point x="18" y="188" type="curve" smooth="yes"/>
      <point x="18" y="67"/>
      <point x="55" y="-12"/>
    </contour>
    <contour>
      <point x="213" y="101" type="curve" smooth="yes"/>
      <point x="183" y="101"/>
      <point x="165" y="132"/>
      <point x="165" y="172" type="curve" smooth="yes"/>
      <point x="165" y="196"/>
      <point x="167" y="215"/>
      <point x="170" y="233" type="curve" smooth="yes"/>
      <point x="181" y="299" type="line" smooth="yes"/>
      <point x="193" y="370"/>
      <point x="217" y="415"/>
      <point x="267" y="415" type="curve" smooth="yes"/>
      <point x="312" y="415"/>
      <point x="333" y="385"/>
      <point x="324" y="334" type="curve" smooth="yes"/>
      <point x="303" y="210" type="line" smooth="yes"/>
      <point x="296" y="168"/>
      <point x="275" y="135"/>
      <point x="258" y="119" type="curve" smooth="yes"/>
      <point x="245" y="108"/>
      <point x="235" y="101"/>
    </contour>
    <contour>
      <point x="546" y="530" type="line"/>
      <point x="622" y="530" type="line"/>
      <point x="711" y="740" type="line"/>
      <point x="582" y="740" type="line"/>
    </contour>
  </outline>
</glyph>
<glyph name="Dcroat" format="1">
  <advance width="600"/>
  <unicode hex="0110"/>
  <outline>
    <contour>
      <point x="25" y="0" type="line" name="hr00"/>
      <point x="252" y="0" type="line" smooth="yes"/>
      <point x="469" y="0"/>
      <point x="588" y="166"/>
      <point x="588" y="441" type="curve" smooth="yes"/>
      <point x="588" y="606"/>
      <point x="503" y="698"/>
      <point x="347" y="698" type="curve" smooth="yes"/>
      <point x="142" y="698" type="line"/>
      <point x="97" y="424" type="line"/>
      <point x="39" y="424" type="line"/>
      <point x="20" y="312" type="line"/>
      <point x="77" y="312" type="line"/>
    </contour>
    <contour>
      <point x="192" y="117" type="line"/>
      <point x="225" y="317" type="line"/>
      <point x="335" y="317" type="line"/>
      <point x="352" y="419" type="line"/>
      <point x="242" y="419" type="line"/>
      <point x="269" y="581" type="line"/>
      <point x="334" y="581" type="line" smooth="yes"/>
      <point x="405" y="581"/>
      <point x="439" y="545"/>
      <point x="439" y="469" type="curve" smooth="yes"/>
      <point x="439" y="450"/>
      <point x="437" y="425"/>
      <point x="433" y="401" type="curve" smooth="yes"/>
      <point x="412" y="275" type="line" smooth="yes"/>
      <point x="394" y="167"/>
      <point x="344" y="117"/>
      <point x="255" y="117" type="curve" smooth="yes"/>
    </contour>
  </outline>
</glyph>
<glyph name="dcroat" format="1">
  <advance width="600"/>
  <unicode hex="0111"/>
  <outline>
    <contour>
      <point x="347" y="0" type="line"/>
      <point x="493" y="0" type="line"/>
      <point x="590" y="581" type="line"/>
      <point x="644" y="581" type="line"/>
      <point x="662" y="689" type="line"/>
      <point x="608" y="689" type="line"/>
      <point x="617" y="740" type="line"/>
      <point x="471" y="740" type="line"/>
      <point x="462" y="689" type="line"/>
      <point x="322" y="689" type="line"/>
      <point x="304" y="581" type="line"/>
      <point x="444" y="581" type="line"/>
      <point x="417" y="420" type="line"/>
      <point x="410" y="420" type="line"/>
      <point x="395" y="488"/>
      <point x="356" y="528"/>
      <point x="275" y="528" type="curve"/>
      <point x="132" y="528"/>
      <point x="38" y="393"/>
      <point x="38" y="188" type="curve" smooth="yes"/>
      <point x="38" y="67"/>
      <point x="80" y="-12"/>
      <point x="189" y="-12" type="curve" smooth="yes" name="hr01"/>
      <point x="277" y="-12"/>
      <point x="323" y="44"/>
      <point x="362" y="123" type="curve" name="hr02"/>
      <point x="367" y="123" type="line"/>
    </contour>
    <contour>
      <point x="254" y="101" type="curve" smooth="yes" name="hr03"/>
      <point x="204" y="101"/>
      <point x="187" y="139"/>
      <point x="186" y="188" type="curve" smooth="yes"/>
      <point x="186" y="205"/>
      <point x="188" y="221"/>
      <point x="190" y="233" type="curve" smooth="yes"/>
      <point x="200" y="293" type="line" smooth="yes"/>
      <point x="213" y="371"/>
      <point x="250" y="415"/>
      <point x="322" y="415" type="curve" smooth="yes"/>
      <point x="385" y="415"/>
      <point x="411" y="384"/>
      <point x="402" y="330" type="curve" smooth="yes"/>
      <point x="388" y="247" type="line" smooth="yes"/>
      <point x="381" y="204"/>
      <point x="357" y="169"/>
      <point x="341" y="150" type="curve" smooth="yes"/>
      <point x="317" y="120"/>
      <point x="290" y="101"/>
    </contour>
  </outline>
</glyph>
<glyph name="Eogonek" format="1">
  <advance width="600"/>
  <unicode hex="0118"/>
  <outline>
    <contour>
      <point x="38" y="0" type="line" name="hr00"/>
      <point x="408" y="0" type="line"/>
      <point x="409" y="-4" type="line"/>
      <point x="310" y="-30"/>
      <point x="269" y="-78"/>
      <point x="269" y="-127" type="curve" smooth="yes"/>
      <point x="269" y="-182"/>
      <point x="320" y="-212"/>
      <point x="391" y="-212" type="curve" smooth="yes"/>
      <point x="448" y="-212"/>
      <point x="487" y="-190"/>
      <point x="512" y="-158" type="curve"/>
      <point x="458" y="-113" type="line"/>
      <point x="444" y="-134"/>
      <point x="425" y="-140"/>
      <point x="405" y="-140" type="curve" smooth="yes"/>
      <point x="379" y="-140"/>
      <point x="368" y="-127"/>
      <point x="368" y="-110" type="curve" smooth="yes"/>
      <point x="368" y="-90"/>
      <point x="379" y="-63"/>
      <point x="484" y="0" type="curve"/>
      <point x="504" y="122" type="line"/>
      <point x="205" y="122" type="line"/>
      <point x="234" y="292" type="line"/>
      <point x="520" y="292" type="line"/>
      <point x="540" y="414" type="line"/>
      <point x="254" y="414" type="line"/>
      <point x="281" y="576" type="line"/>
      <point x="581" y="576" type="line"/>
      <point x="601" y="698" type="line"/>
      <point x="155" y="698" type="line"/>
    </contour>
  </outline>
</glyph>
<glyph name="eogonek" format="1">
  <advance width="600"/>
  <unicode hex="0119"/>
  <outline>
    <contour>
      <point x="326" y="-212" type="curve" smooth="yes" name="hr00"/>
      <point x="383" y="-212"/>
      <point x="422" y="-190"/>
      <point x="447" y="-158" type="curve"/>
      <point x="393" y="-113" type="line"/>
      <point x="379" y="-134"/>
      <point x="360" y="-140"/>
      <point x="340" y="-140" type="curve" smooth="yes"/>
      <point x="318" y="-140"/>
      <point x="303" y="-131"/>
      <point x="303" y="-106" type="curve" smooth="yes"/>
      <point x="303" y="-77"/>
      <point x="326" y="-41"/>
      <point x="410" y="12" type="curve" smooth="yes"/>
      <point x="474" y="52"/>
      <point x="503" y="87"/>
      <point x="533" y="129" type="curve"/>
      <point x="442" y="188" type="line"/>
      <point x="389" y="120"/>
      <point x="357" y="100"/>
      <point x="300" y="100" type="curve" smooth="yes"/>
      <point x="231" y="100"/>
      <point x="201" y="131"/>
      <point x="201" y="185" type="curve" smooth="yes"/>
      <point x="201" y="191"/>
      <point x="201" y="197"/>
      <point x="202" y="203" type="curve"/>
      <point x="496" y="214"/>
      <point x="550" y="303"/>
      <point x="550" y="386" type="curve" smooth="yes"/>
      <point x="550" y="481"/>
      <point x="464" y="528"/>
      <point x="360" y="528" type="curve" smooth="yes"/>
      <point x="177" y="528"/>
      <point x="56" y="400"/>
      <point x="56" y="208" type="curve" smooth="yes"/>
      <point x="56" y="71"/>
      <point x="129" y="-12"/>
      <point x="281" y="-12" type="curve" smooth="yes"/>
      <point x="292" y="-12"/>
      <point x="309" y="-11"/>
      <point x="316" y="-10" type="curve"/>
      <point x="317" y="-14" type="line"/>
      <point x="249" y="-36"/>
      <point x="204" y="-77"/>
      <point x="204" y="-127" type="curve" smooth="yes"/>
      <point x="204" y="-182"/>
      <point x="255" y="-212"/>
    </contour>
    <contour>
      <point x="345" y="425" type="curve" smooth="yes"/>
      <point x="389" y="425"/>
      <point x="409" y="406"/>
      <point x="409" y="373" type="curve" smooth="yes"/>
      <point x="409" y="340"/>
      <point x="397" y="297"/>
      <point x="212" y="287" type="curve"/>
      <point x="215" y="301" type="line" smooth="yes"/>
      <point x="234" y="390"/>
      <point x="282" y="425"/>
    </contour>
  </outline>
</glyph>
<glyph name="Hbar" format="1">
  <advance width="600"/>
  <unicode hex="0126"/>
  <outline>
    <contour>
      <point x="348" y="0" type="line" name="hr00"/>
      <point x="496" y="0" type="line"/>
      <point x="581" y="507" type="line"/>
      <point x="633" y="507" type="line"/>
      <point x="652" y="619" type="line"/>
      <point x="599" y="619" type="line"/>
      <point x="612" y="698" type="line"/>
      <point x="464" y="698" type="line"/>
      <point x="450" y="612" type="line"/>
      <point x="270" y="612" type="line"/>
      <point x="284" y="698" type="line"/>
      <point x="136" y="698" type="line"/>
      <point x="123" y="619" type="line"/>
      <point x="71" y="619" type="line"/>
      <point x="52" y="507" type="line"/>
      <point x="105" y="507" type="line"/>
      <point x="20" y="0" type="line"/>
      <point x="168" y="0" type="line"/>
      <point x="217" y="293" type="line"/>
      <point x="397" y="293" type="line"/>
    </contour>
    <contour>
      <point x="238" y="414" type="line"/>
      <point x="254" y="514" type="line"/>
      <point x="434" y="514" type="line"/>
      <point x="417" y="414" type="line"/>
    </contour>
  </outline>
</glyph>
<glyph name="hbar" format="1">
  <advance width="600"/>
  <unicode hex="0127"/>
  <outline>
    <contour>
      <point x="25" y="0" type="line" name="hr00"/>
      <point x="171" y="0" type="line"/>
      <point x="216" y="269" type="line" smooth="yes"/>
      <point x="223" y="311"/>
      <point x="248" y="349"/>
      <point x="263" y="369" type="curve" smooth="yes"/>
      <point x="286" y="399"/>
      <point x="310" y="416"/>
      <point x="344" y="416" type="curve" smooth="yes"/>
      <point x="389" y="416"/>
      <point x="404" y="382"/>
      <point x="404" y="355" type="curve" smooth="yes"/>
      <point x="404" y="330"/>
      <point x="400" y="310"/>
      <point x="397" y="292" type="curve" smooth="yes"/>
      <point x="348" y="0" type="line"/>
      <point x="494" y="0" type="line"/>
      <point x="540" y="275" type="line" smooth="yes"/>
      <point x="548" y="323"/>
      <point x="551" y="350"/>
      <point x="551" y="379" type="curve" smooth="yes"/>
      <point x="551" y="459"/>
      <point x="511" y="528"/>
      <point x="410" y="528" type="curve" smooth="yes"/>
      <point x="328" y="528"/>
      <point x="281" y="477"/>
      <point x="242" y="393" type="curve"/>
      <point x="237" y="393" type="line"/>
      <point x="268" y="581" type="line"/>
      <point x="403" y="581" type="line"/>
      <point x="421" y="689" type="line"/>
      <point x="286" y="689" type="line"/>
      <point x="294" y="740" type="line"/>
      <point x="148" y="740" type="line"/>
      <point x="140" y="689" type="line"/>
      <point x="81" y="689" type="line"/>
      <point x="63" y="581" type="line"/>
      <point x="122" y="581" type="line"/>
    </contour>
  </outline>
</glyph>
<glyph name="Iogonek" format="1">
  <advance width="600"/>
  <unicode hex="012E"/>
  <outline>
    <contour>
      <point x="32" y="0" type="line" name="hr00"/>
      <point x="407" y="0" type="line"/>
      <point x="408" y="-4" type="line"/>
      <point x="309" y="-30"/>
      <point x="268" y="-78"/>
      <point x="268" y="-127" type="curve" smooth="yes"/>
      <point x="268" y="-182"/>
      <point x="319" y="-212"/>
      <point x="390" y="-212" type="curve" smooth="yes"/>
      <point x="447" y="-212"/>
      <point x="486" y="-190"/>
      <point x="511" y="-158" type="curve"/>
      <point x="457" y="-113" type="line"/>
      <point x="443" y="-134"/>
      <point x="424" y="-140"/>
      <point x="404" y="-140" type="curve" smooth="yes"/>
      <point x="378" y="-140"/>
      <point x="367" y="-127"/>
      <point x="367" y="-110" type="curve" smooth="yes"/>
      <point x="367" y="-90"/>
      <point x="377" y="-63"/>
      <point x="482" y="0" type="curve"/>
      <point x="500" y="110" type="line"/>
      <point x="349" y="110" type="line"/>
      <point x="429" y="588" type="line"/>
      <point x="580" y="588" type="line"/>
      <point x="598" y="698" type="line"/>
      <point x="148" y="698" type="line"/>
      <point x="130" y="588" type="line"/>
      <point x="281" y="588" type="line"/>
      <point x="201" y="110" type="line"/>
      <point x="50" y="110" type="line"/>
    </contour>
  </outline>
</glyph>
<glyph name="iogonek" format="1">
  <advance width="600"/>
  <unicode hex="012F"/>
  <outline>
    <contour>
      <point x="336" y="-212" type="curve" smooth="yes"/>
      <point x="393" y="-212"/>
      <point x="432" y="-190"/>
      <point x="457" y="-158" type="curve"/>
      <point x="403" y="-113" type="line"/>
      <point x="389" y="-134"/>
      <point x="370" y="-140"/>
      <point x="350" y="-140" type="curve" smooth="yes"/>
      <point x="326" y="-140"/>
      <point x="313" y="-128"/>
      <point x="313" y="-109" type="curve" smooth="yes"/>
      <point x="313" y="-71"/>
      <point x="345" y="-42"/>
      <point x="404" y="20" type="curve" smooth="yes"/>
      <point x="551" y="173" type="line"/>
      <point x="471" y="244" type="line"/>
      <point x="331" y="101" type="line"/>
      <point x="314" y="106" type="line" name="hr01"/>
      <point x="391" y="516" type="line"/>
      <point x="87" y="516" type="line"/>
      <point x="68" y="402" type="line"/>
      <point x="224" y="402" type="line"/>
      <point x="184" y="188" type="line" smooth="yes"/>
      <point x="176" y="147"/>
      <point x="174" y="130"/>
      <point x="174" y="108" type="curve" smooth="yes"/>
      <point x="174" y="35"/>
      <point x="216" y="-12"/>
      <point x="298" y="-12" type="curve" smooth="yes"/>
      <point x="306" y="-12"/>
      <point x="307" y="-12"/>
      <point x="315" y="-11" type="curve"/>
      <point x="317" y="-15" type="line"/>
      <point x="259" y="-43"/>
      <point x="214" y="-75"/>
      <point x="214" y="-127" type="curve" smooth="yes" name="hr02"/>
      <point x="214" y="-182"/>
      <point x="265" y="-212"/>
    </contour>
    <contour>
      <point x="338" y="584" type="curve" smooth="yes"/>
      <point x="403" y="584"/>
      <point x="427" y="611"/>
      <point x="433" y="650" type="curve" smooth="yes"/>
      <point x="438" y="680"/>
      <point x="438" y="683"/>
      <point x="438" y="690" type="curve" smooth="yes" name="hr03"/>
      <point x="438" y="725"/>
      <point x="415" y="751"/>
      <point x="356" y="751" type="curve" smooth="yes"/>
      <point x="292" y="751"/>
      <point x="267" y="724"/>
      <point x="261" y="684" type="curve" smooth="yes"/>
      <point x="257" y="656"/>
      <point x="257" y="652"/>
      <point x="257" y="646" type="curve" smooth="yes"/>
      <point x="257" y="610"/>
      <point x="280" y="584"/>
    </contour>
  </outline>
</glyph>
<glyph name="dotlessi" format="1">
  <advance width="600"/>
  <unicode hex="0131"/>
  <outline>
    <contour>
      <point x="298" y="-12" type="curve" smooth="yes" name="hr00"/>
      <point x="367" y="-12"/>
      <point x="423" y="27"/>
      <point x="490" y="103" type="curve" smooth="yes"/>
      <point x="551" y="173" type="line"/>
      <point x="471" y="244" type="line"/>
      <point x="331" y="101" type="line"/>
      <point x="314" y="106" type="line"/>
      <point x="391" y="516" type="line"/>
      <point x="87" y="516" type="line"/>
      <point x="68" y="402" type="line"/>
      <point x="224" y="402" type="line"/>
      <point x="184" y="188" type="line" smooth="yes"/>
      <point x="176" y="147"/>
      <point x="174" y="130"/>
      <point x="174" y="108" type="curve" smooth="yes"/>
      <point x="174" y="35"/>
      <point x="216" y="-12"/>
    </contour>
    <contour>
      <point x="292" y="0" type="move" name="bottom"/>
    </contour>
    <contour>
      <point x="393" y="0" type="move" name="bottomright"/>
    </contour>
    <contour>
      <point x="318" y="516" type="move" name="top"/>
    </contour>
  </outline>
</glyph>
<glyph name="IJ" format="1">
  <advance width="600"/>
  <unicode hex="0132"/>
  <outline>
    <contour>
      <point x="494" y="698" type="line" name="hr00"/>
      <point x="413" y="212" type="line" smooth="yes"/>
      <point x="401" y="140"/>
      <point x="367" y="108"/>
      <point x="314" y="108" type="curve" smooth="yes"/>
      <point x="250" y="108"/>
      <point x="231" y="152"/>
      <point x="228" y="211" type="curve"/>
      <point x="89" y="185" type="line"/>
      <point x="92" y="68"/>
      <point x="163" y="-12"/>
      <point x="303" y="-12" type="curve" smooth="yes"/>
      <point x="444" y="-12"/>
      <point x="536" y="55"/>
      <point x="561" y="205" type="curve" smooth="yes"/>
      <point x="643" y="698" type="line"/>
    </contour>
    <contour>
      <point x="115" y="308" type="line"/>
      <point x="263" y="308" type="line"/>
      <point x="328" y="698" type="line"/>
      <point x="180" y="698" type="line"/>
    </contour>
  </outline>
</glyph>
<glyph name="ij" format="1">
  <advance width="600"/>
  <unicode hex="0133"/>
  <outline>
    <contour>
      <point x="30" y="0" type="line" name="hr00"/>
      <point x="176" y="0" type="line"/>
      <point x="262" y="516" type="line"/>
      <point x="116" y="516" type="line"/>
    </contour>
    <contour>
      <point x="302" y="-212" type="curve" smooth="yes"/>
      <point x="398" y="-212"/>
      <point x="453" y="-152"/>
      <point x="472" y="-37" type="curve" smooth="yes"/>
      <point x="564" y="516" type="line"/>
      <point x="418" y="516" type="line"/>
      <point x="316" y="-96" type="line"/>
      <point x="303" y="-101" type="line"/>
      <point x="220" y="-6" type="line"/>
      <point x="122" y="-78" type="line"/>
      <point x="151" y="-119" type="line" smooth="yes"/>
      <point x="187" y="-169"/>
      <point x="236" y="-212"/>
    </contour>
    <contour>
      <point x="209" y="584" type="curve" smooth="yes"/>
      <point x="273" y="584"/>
      <point x="297" y="611"/>
      <point x="303" y="650" type="curve" smooth="yes"/>
      <point x="308" y="680"/>
      <point x="308" y="683"/>
      <point x="308" y="690" type="curve" smooth="yes"/>
      <point x="308" y="725"/>
      <point x="286" y="751"/>
      <point x="226" y="751" type="curve" smooth="yes"/>
      <point x="162" y="751"/>
      <point x="138" y="724"/>
      <point x="132" y="685" type="curve" smooth="yes"/>
      <point x="127" y="655"/>
      <point x="127" y="652"/>
      <point x="127" y="645" type="curve" smooth="yes"/>
      <point x="127" y="610"/>
      <point x="149" y="584"/>
    </contour>
    <contour>
      <point x="506" y="584" type="curve" smooth="yes"/>
      <point x="570" y="584"/>
      <point x="594" y="611"/>
      <point x="600" y="650" type="curve" smooth="yes"/>
      <point x="605" y="680"/>
      <point x="605" y="683"/>
      <point x="605" y="690" type="curve" smooth="yes"/>
      <point x="605" y="725"/>
      <point x="583" y="751"/>
      <point x="523" y="751" type="curve" smooth="yes"/>
      <point x="459" y="751"/>
      <point x="435" y="724"/>
      <point x="429" y="685" type="curve" smooth="yes"/>
      <point x="424" y="655"/>
      <point x="424" y="652"/>
      <point x="424" y="645" type="curve" smooth="yes"/>
      <point x="424" y="610"/>
      <point x="446" y="584"/>
    </contour>
  </outline>
</glyph>
<glyph name="kgreenlandic" format="1">
  <advance width="600"/>
  <unicode hex="0138"/>
  <outline>
    <contour>
      <point x="374" y="0" type="line" name="hr00"/>
      <point x="539" y="0" type="line"/>
      <point x="375" y="301" type="line"/>
      <point x="605" y="516" type="line"/>
      <point x="437" y="516" type="line"/>
      <point x="310" y="397" type="line"/>
      <point x="228" y="315" type="line"/>
      <point x="220" y="315" type="line"/>
      <point x="253" y="516" type="line"/>
      <point x="108" y="516" type="line"/>
      <point x="22" y="0" type="line"/>
      <point x="167" y="0" type="line"/>
      <point x="193" y="157" type="line"/>
      <point x="262" y="219" type="line"/>
    </contour>
  </outline>
</glyph>
<glyph name="Lslash" format="1">
  <advance width="600"/>
  <unicode hex="0141"/>
  <outline>
    <contour>
      <point x="530" y="122" type="line" name="hr00"/>
      <point x="240" y="122" type="line"/>
      <point x="268" y="289" type="line"/>
      <point x="463" y="350" type="line"/>
      <point x="482" y="464" type="line"/>
      <point x="287" y="403" type="line"/>
      <point x="336" y="698" type="line"/>
      <point x="188" y="698" type="line"/>
      <point x="132" y="358" type="line"/>
      <point x="56" y="335" type="line"/>
      <point x="37" y="222" type="line"/>
      <point x="113" y="245" type="line"/>
      <point x="72" y="0" type="line"/>
      <point x="510" y="0" type="line"/>
    </contour>
  </outline>
</glyph>
<glyph name="lslash" format="1">
  <advance width="600"/>
  <unicode hex="0142"/>
  <outline>
    <contour>
      <point x="270" y="-12" type="curve" smooth="yes" name="hr00"/>
      <point x="339" y="-12"/>
      <point x="395" y="27"/>
      <point x="462" y="103" type="curve" smooth="yes"/>
      <point x="523" y="173" type="line"/>
      <point x="443" y="244" type="line"/>
      <point x="303" y="101" type="line"/>
      <point x="288" y="106" type="line"/>
      <point x="329" y="327" type="line"/>
      <point x="478" y="372" type="line"/>
      <point x="496" y="479" type="line"/>
      <point x="349" y="435" type="line"/>
      <point x="405" y="740" type="line"/>
      <point x="106" y="740" type="line"/>
      <point x="87" y="626" type="line"/>
      <point x="239" y="626" type="line"/>
      <point x="196" y="391" type="line"/>
      <point x="69" y="353" type="line"/>
      <point x="51" y="246" type="line"/>
      <point x="176" y="284" type="line"/>
      <point x="158" y="188" type="line" smooth="yes"/>
      <point x="150" y="147"/>
      <point x="148" y="130"/>
      <point x="148" y="108" type="curve" smooth="yes"/>
      <point x="148" y="35"/>
      <point x="188" y="-12"/>
    </contour>
  </outline>
</glyph>
<glyph name="napostrophe" format="1">
  <advance width="600"/>
  <unicode hex="0149"/>
  <outline>
    <contour>
      <point x="80" y="0" type="line"/>
      <point x="220" y="0" type="line"/>
      <point x="268" y="286" type="line" smooth="yes"/>
      <point x="275" y="328"/>
      <point x="298" y="364"/>
      <point x="313" y="380" type="curve"/>
      <point x="334" y="405"/>
      <point x="353" y="415"/>
      <point x="382" y="415" type="curve" smooth="yes"/>
      <point x="420" y="415"/>
      <point x="432" y="385"/>
      <point x="432" y="361" type="curve" smooth="yes"/>
      <point x="432" y="336"/>
      <point x="430" y="317"/>
      <point x="426" y="293" type="curve" smooth="yes"/>
      <point x="377" y="0" type="line"/>
      <point x="517" y="0" type="line"/>
      <point x="564" y="281" type="line" smooth="yes"/>
      <point x="572" y="329"/>
      <point x="574" y="358"/>
      <point x="574" y="388" type="curve" smooth="yes"/>
      <point x="574" y="463"/>
      <point x="538" y="528"/>
      <point x="446" y="528" type="curve" smooth="yes"/>
      <point x="370" y="528"/>
      <point x="328" y="482"/>
      <point x="293" y="408" type="curve"/>
      <point x="288" y="408" type="line"/>
      <point x="306" y="516" type="line" name="hr01"/>
      <point x="166" y="516" type="line"/>
    </contour>
    <contour>
      <point x="57" y="530" type="line"/>
      <point x="130" y="530" type="line"/>
      <point x="222" y="740" type="line"/>
      <point x="93" y="740" type="line"/>
    </contour>
  </outline>
</glyph>
<glyph name="Eng" format="1">
  <advance width="600"/>
  <unicode hex="014A"/>
  <outline>
    <contour>
      <point x="149" y="0" type="line" name="hr00"/>
      <point x="227" y="468" type="line"/>
      <point x="237" y="468" type="line"/>
      <point x="318" y="0" type="line"/>
      <point x="369" y="0" type="line"/>
      <point x="353" y="-96" type="line"/>
      <point x="338" y="-100" type="line"/>
      <point x="253" y="-7" type="line"/>
      <point x="164" y="-78" type="line"/>
      <point x="195" y="-115" type="line" smooth="yes"/>
      <point x="250" y="-181"/>
      <point x="278" y="-212"/>
      <point x="345" y="-212" type="curve" smooth="yes"/>
      <point x="424" y="-212"/>
      <point x="468" y="-166"/>
      <point x="488" y="-46" type="curve" smooth="yes"/>
      <point x="612" y="698" type="line"/>
      <point x="483" y="698" type="line"/>
      <point x="405" y="230" type="line"/>
      <point x="395" y="230" type="line"/>
      <point x="314" y="698" type="line"/>
      <point x="136" y="698" type="line"/>
      <point x="20" y="0" type="line"/>
    </contour>
  </outline>
</glyph>
